<?xml version="1.0" encoding="UTF-8" standalone="no"?>
<svg
   width="1024"
   height="414"
   version="1.1"
   id="svg11"
   sodipodi:docname="logo_outlined.svg"
   inkscape:version="1.4.2 (1:1.4.2+202505120738+ebf0e940d0)"
   xmlns:inkscape="http://www.inkscape.org/namespaces/inkscape"
   xmlns:sodipodi="http://sodipodi.sourceforge.net/DTD/sodipodi-0.dtd"
   xmlns="http://www.w3.org/2000/svg"
   xmlns:svg="http://www.w3.org/2000/svg">
  <defs
     id="defs11">
    <rect
       x="-83.805248"
       y="-397.23687"
       width="853.13742"
       height="266.50069"
       id="rect1" />
    <rect
       x="167.6105"
       y="465.95718"
       width="833.02417"
       height="313.43163"
       id="rect12" />
  </defs>
  <sodipodi:namedview
     id="namedview11"
     pagecolor="#ffffff"
     bordercolor="#666666"
     borderopacity="1.0"
     inkscape:showpageshadow="2"
     inkscape:pageopacity="0.0"
     inkscape:pagecheckerboard="0"
     inkscape:deskcolor="#d1d1d1"
     inkscape:zoom="0.421875"
     inkscape:cx="699.25926"
     inkscape:cy="-59.259259"
     inkscape:window-width="1850"
     inkscape:window-height="1016"
     inkscape:window-x="70"
     inkscape:window-y="27"
     inkscape:window-maximized="1"
     inkscape:current-layer="svg11" />
  <path
     style="font-weight:300;font-size:40px;line-height:1.25;font-family:Roboto;-inkscape-font-specification:'Roboto Light';text-align:center;baseline-shift:baseline;text-anchor:middle;white-space:pre;display:inline;overflow:visible;vector-effect:none;fill:#ffffff;stroke-linecap:round;stroke-linejoin:bevel;enable-background:accumulate;stop-color:#000000"
     d="m 517.43164,250.70508 -1.25977,1.25781 v 6.88867 c -0.30775,-0.192 -0.54249,-0.48326 -0.88085,-0.62695 -0.95728,-0.40651 -2.02645,-0.5957 -3.17383,-0.5957 -1.1983,0 -2.33018,0.24662 -3.33789,0.75586 -0.99653,0.49307 -1.85856,1.22249 -2.54883,2.13867 l -0.002,0.002 c -0.68066,0.90755 -1.18399,1.97982 -1.52735,3.1875 -0.3461,1.20681 -0.51172,2.53139 -0.51172,3.9668 v 0.33398 c 0,1.3876 0.16646,2.68817 0.51172,3.89063 l 0.002,0.002 c 0.34354,1.18462 0.84536,2.24945 1.51563,3.16797 l 0.006,0.006 c 0.67748,0.91585 1.52495,1.65726 2.50976,2.18164 l 0.0117,0.006 c 1.0089,0.5241 2.14392,0.78125 3.33985,0.78125 1.16366,0 2.24249,-0.18791 3.20898,-0.5918 l 0.002,-0.002 c 0.44353,-0.18351 0.7667,-0.53041 1.15821,-0.78906 l 1.10351,1.0625 h 1.78711 l 1.25782,-1.25782 v -24.50781 l -1.25782,-1.25781 z m 269.35547,0.95703 c -0.67299,0 -1.41608,0.26267 -1.90039,0.79101 l -0.002,0.002 c -0.43158,0.47268 -0.66407,1.13706 -0.66407,1.75781 0,0.61797 0.23488,1.26787 0.64649,1.73828 l 0.0371,0.041 c 0.49077,0.51307 1.22058,0.75586 1.88281,0.75586 0.65811,0 1.383,-0.24966 1.86719,-0.75586 0.44402,-0.46332 0.71679,-1.1359 0.71679,-1.7793 0,-0.63496 -0.27439,-1.30601 -0.72461,-1.76953 -0.4783,-0.50781 -1.19912,-0.78125 -1.85937,-0.78125 z m 25.30664,0 c -0.67299,0 -1.41803,0.26267 -1.90234,0.79101 l -0.002,0.002 c -0.43158,0.47268 -0.66406,1.13706 -0.66406,1.75781 0,0.61797 0.23488,1.26787 0.64648,1.73828 l 0.0391,0.041 c 0.49077,0.51307 1.22058,0.75586 1.88281,0.75586 0.65811,0 1.38104,-0.24967 1.86523,-0.75586 0.44402,-0.46332 0.7168,-1.13591 0.7168,-1.7793 0,-0.63555 -0.27362,-1.30793 -0.72461,-1.77148 -0.47833,-0.50654 -1.19801,-0.7793 -1.85742,-0.7793 z m -205.58398,0.31836 -1.25977,1.25976 v 23.23047 l 1.25977,1.25782 h 1.0996 0.86329 4.38671 c 1.63895,0 3.16908,-0.27615 4.5586,-0.84375 h 0.002 c 1.38466,-0.56166 2.60619,-1.3766 3.6211,-2.42774 1.01767,-1.05402 1.79712,-2.32403 2.33007,-3.76562 v -0.002 c 0.54892,-1.45655 0.81446,-3.05776 0.81446,-4.78125 v -2.10547 c 0,-1.7228 -0.26598,-3.32516 -0.81446,-4.78125 -0.53212,-1.43997 -1.31049,-2.70829 -2.32617,-3.76171 -1.00212,-1.06099 -2.20727,-1.88069 -3.57422,-2.4336 -5.8e-4,-2.4e-4 -10e-4,2.4e-4 -0.002,0 -1.37517,-0.56667 -2.87393,-0.8457 -4.46484,-0.8457 h -4.53125 -0.95899 z m 92.26953,0 -1.25977,1.25976 v 23.23047 l 1.25977,1.25782 h 1.38672 0.59179 11.45508 l 1.25781,-1.25782 v -1.6914 l -1.25781,-1.25782 h -10.19727 v -20.28125 l -1.25781,-1.25976 z m -34.76758,1.5332 -1.25781,1.25781 v 3.17774 h -1.91602 l -1.25977,1.25781 v 1.5625 l 1.25977,1.25977 h 1.91602 v 10.22851 c 0,1.26531 0.15962,2.34434 0.60351,3.26172 0.41563,0.85896 1.06972,1.57497 1.9043,1.98438 0.7572,0.3711 1.60864,0.54492 2.5,0.54492 0.42765,0 0.85533,-0.0316 1.28125,-0.0918 0.42319,-0.048 0.79325,-0.1115 1.14258,-0.22266 l 0.875,-1.26171 -0.0801,-1.61133 -1.4336,-1.1836 c -0.21848,0.0312 -0.45878,0.067 -0.71289,0.10743 -0.002,2.2e-4 -0.004,-2.2e-4 -0.006,0 -0.19624,0.0243 -0.41392,0.0391 -0.65234,0.0391 -0.2443,0 -0.4509,-0.0408 -0.65039,-0.10938 -0.0269,-0.0105 -0.0772,-0.0477 -0.16602,-0.20507 -0.0634,-0.13541 -0.17382,-0.56897 -0.17382,-1.25196 V 262.0293 H 669.5 l 1.25977,-1.25977 v -1.5625 L 669.5,257.94922 h -2.31445 v -3.17774 l -1.25977,-1.25781 z m 122.73242,0.64063 c -0.0204,0.0165 -0.10854,0.0254 0.043,0.0254 0.13925,0 0.0392,-0.0146 0.0293,-0.0254 l 0.0391,0.0391 c 0.0254,0.0254 -0.002,-0.0583 -0.002,0.0195 0,0.0586 0.0277,-0.008 -0.0176,0.0391 0.0162,-0.0169 0.10146,-0.0215 -0.0488,-0.0215 -0.10485,0 -0.0537,0.008 -0.0391,0.0137 2e-5,-0.006 -0.01,0.002 -0.01,-0.0312 0,-0.0993 -0.007,-0.0469 0.006,-0.0586 z m 25.30469,0 c -0.0203,0.0165 -0.10671,0.0254 0.0449,0.0254 0.13925,0 0.0392,-0.0146 0.0293,-0.0254 l 0.0371,0.0391 c 0.0254,0.0254 -0.002,-0.0583 -0.002,0.0195 0,0.0586 0.0277,-0.008 -0.0176,0.0391 0.0162,-0.0169 0.10342,-0.0215 -0.0469,-0.0215 -0.10655,0 -0.0566,0.008 -0.041,0.0137 3e-5,-0.006 -0.01,0.002 -0.01,-0.0312 0,-0.0993 -0.007,-0.0469 0.006,-0.0586 z m -202.31836,2.03515 h 3.27344 c 1.05717,0 1.96321,0.17899 2.75781,0.51953 l 0.006,0.002 c 0.81837,0.34691 1.49641,0.82925 2.07812,1.47265 l 0.006,0.008 c 0.57688,0.62932 1.02468,1.39273 1.34766,2.33398 l 0.004,0.01 c 0.3288,0.93159 0.50391,1.99836 0.50391,3.21875 v 2.15429 c 0,1.59745 -0.29793,2.94292 -0.86133,4.08789 -0.56439,1.13622 -1.32252,1.97148 -2.33593,2.59375 l -0.006,0.002 c -0.98016,0.60717 -2.16159,0.92968 -3.64454,0.92968 h -3.1289 z m -159.11914,1.43946 c -1.36348,0 -2.62463,0.24826 -3.73438,0.77734 -1.07852,0.51418 -2.0074,1.25459 -2.74023,2.1875 -5.4e-4,6.7e-4 -0.001,10e-4 -0.002,0.002 -0.72277,0.91025 -1.26188,1.97473 -1.6211,3.16016 l -0.002,0.008 c -0.34615,1.16974 -0.51563,2.42092 -0.51563,3.74024 v 0.66992 c 0,1.31931 0.16948,2.5705 0.51563,3.74023 l 0.002,0.01 c 0.3596,1.1747 0.89884,2.23584 1.61719,3.15234 l 0.006,0.008 c 0.73227,0.92166 1.65759,1.65768 2.73047,2.18164 l 0.0156,0.008 c 1.11715,0.52648 2.38067,0.77539 3.74414,0.77539 1.34402,0 2.62421,-0.28748 3.78125,-0.86524 l 0.004,-0.002 c 1.1542,-0.57163 2.12879,-1.38265 2.86523,-2.39844 0.75748,-1.04483 1.18028,-2.28244 1.24414,-3.59765 l -1.25781,-1.31836 h -1.83398 l -1.25586,1.16601 c -0.049,0.66971 -0.23238,1.13276 -0.53321,1.51563 l -0.008,0.0117 c -0.32899,0.42846 -0.72412,0.73859 -1.25586,0.96875 l -0.008,0.002 c -0.5413,0.23785 -1.10664,0.35547 -1.74219,0.35547 -0.82639,0 -1.45085,-0.1533 -1.93554,-0.4082 -0.5184,-0.28899 -0.91692,-0.65303 -1.24219,-1.13477 -0.33949,-0.52924 -0.59666,-1.13122 -0.76758,-1.83008 -0.16753,-0.73998 -0.25391,-1.51769 -0.25391,-2.33984 v -0.66992 c 0,-0.82561 0.0877,-1.60021 0.25586,-2.33008 2.8e-4,-10e-4 -2.8e-4,-0.003 0,-0.004 0.17237,-0.71088 0.43071,-1.31244 0.76758,-1.82617 0.3268,-0.49263 0.72055,-0.85418 1.23438,-1.13086 l 0.006,-0.002 c 0.48622,-0.26522 1.10548,-0.42188 1.91992,-0.42188 0.68549,0 1.26085,0.13721 1.79101,0.40625 0.52533,0.26659 0.91667,0.61909 1.23828,1.11328 0.30443,0.46773 0.48842,1.03134 0.53125,1.77735 l 1.25782,1.1875 h 1.83398 l 1.25781,-1.3125 c -0.0611,-1.44077 -0.44584,-2.76769 -1.17578,-3.88867 -0.71042,-1.09101 -1.68035,-1.96035 -2.84375,-2.55469 -1.16942,-0.59742 -2.48678,-0.88867 -3.89062,-0.88867 z m 17.24609,0 c -1.1783,0 -2.27805,0.24167 -3.23242,0.75976 l -0.006,0.004 c -0.25073,0.13808 -0.39304,0.41164 -0.62109,0.58203 l -1.03907,-1.02539 h -1.86523 l -1.25977,1.25781 v 17.26367 l 1.25977,1.25782 h 1.89844 L 464.25,276.4707 v -11.65039 c 0.0117,-0.0399 0.009,-0.0916 0.0215,-0.13086 0.18331,-0.58482 0.4342,-1.06392 0.74805,-1.46679 l 0.002,-0.002 c 0.30868,-0.3929 0.66812,-0.68068 1.12696,-0.89843 l 0.0156,-0.008 c 0.43308,-0.21286 0.95419,-0.33398 1.61524,-0.33398 0.20818,0 0.38757,0.01 0.53711,0.0254 0.18032,0.019 0.36025,0.0437 0.54101,0.0723 l 1.45508,-1.19726 0.0645,-1.75586 -0.13281,0.51758 -0.64258,-1.72461 c -0.29898,-0.12452 -0.55768,-0.16992 -0.85156,-0.20899 -0.29524,-0.0516 -0.5941,-0.0801 -0.89258,-0.0801 z m 10.27539,0 c -1.16063,0 -2.28939,0.24266 -3.34179,0.71875 l -0.006,0.002 c -1.04714,0.47941 -1.98116,1.18394 -2.77735,2.07812 v 0.002 c -0.79271,0.8918 -1.41373,1.95233 -1.86523,3.15234 l -0.004,0.01 c -0.45124,1.23177 -0.66797,2.58528 -0.66797,4.03906 v 0.68555 c 0,1.36406 0.214,2.65633 0.65235,3.84961 l 0.002,0.004 c 0.43404,1.16951 1.05727,2.21139 1.86328,3.0918 0.80708,0.88158 1.77824,1.57628 2.87891,2.05859 1.1149,0.48856 2.33534,0.72852 3.61718,0.72852 1.14422,0 2.19231,-0.15261 3.13477,-0.48828 l 0.0137,-0.006 c 0.88917,-0.32887 1.68307,-0.76692 2.35938,-1.32617 l 0.0117,-0.01 c 0.63041,-0.53343 1.17716,-1.1257 1.62695,-1.77539 l -0.26563,-1.71289 -1.19726,-0.92578 -1.76758,0.23047 c -0.52793,0.68898 -1.08423,1.14441 -1.68164,1.43164 -7.4e-4,3.5e-4 -10e-4,0.002 -0.002,0.002 -0.59788,0.28178 -1.29878,0.43555 -2.15235,0.43555 -0.71376,0 -1.31253,-0.1369 -1.85351,-0.39844 -0.5717,-0.28687 -1.04673,-0.66102 -1.45899,-1.14844 -0.41758,-0.50411 -0.74486,-1.08953 -0.98633,-1.78711 -0.14257,-0.41187 -0.15838,-0.89081 -0.21679,-1.3457 h 10.91406 l 1.25781,-1.25781 v -1.16602 c 0,-1.26717 -0.16326,-2.4539 -0.5039,-3.54883 -0.34055,-1.10496 -0.85851,-2.09524 -1.55664,-2.93359 -0.70209,-0.85393 -1.58617,-1.52473 -2.59961,-1.98242 -1.02838,-0.47985 -2.18498,-0.70703 -3.42774,-0.70703 z m 16.70508,0 c -1.10966,0 -2.15764,0.16325 -3.125,0.50195 -0.001,3.9e-4 -0.003,-3.9e-4 -0.004,0 -0.92668,0.31822 -1.76037,0.76452 -2.4707,1.3457 -0.69979,0.57255 -1.26871,1.24962 -1.67187,2.01563 l -0.008,0.0156 c -0.39075,0.76802 -0.59961,1.60484 -0.59961,2.45313 l 1.24805,1.25976 1.89844,0.0156 1.26953,-1.25977 c 0,-0.37883 0.0922,-0.65519 0.33594,-0.97851 4.3e-4,-5.8e-4 -4.4e-4,-10e-4 0,-0.002 0.26565,-0.34814 0.62344,-0.63404 1.15039,-0.86914 l 0.01,-0.004 c 0.51893,-0.23588 1.12743,-0.36524 1.8711,-0.36524 0.82966,0 1.4504,0.13956 1.89258,0.35352 0.45952,0.22235 0.74232,0.48755 0.95703,0.86328 0.2171,0.37992 0.34375,0.85335 0.34375,1.49805 v 0.6875 h -2.26758 c -1.29806,0 -2.49625,0.13583 -3.5957,0.42187 -0.002,3.8e-4 -0.002,0.002 -0.004,0.002 -1.08421,0.27451 -2.05178,0.69079 -2.87695,1.26954 -0.82642,0.56918 -1.49886,1.30119 -1.95704,2.1621 -0.4647,0.86269 -0.6914,1.84 -0.6914,2.85938 0,1.14103 0.29256,2.2347 0.87305,3.17969 l 0.004,0.008 c 0.58118,0.93258 1.4219,1.679 2.43555,2.20508 l 0.0117,0.006 c 1.04078,0.52697 2.22723,0.77539 3.5039,0.77539 1.13415,0 2.18678,-0.16838 3.14063,-0.5293 l 0.01,-0.004 c 0.67572,-0.26127 1.23539,-0.64757 1.79493,-1.0332 0.0326,0.12014 0.0441,0.273 0.082,0.38672 l 1.19531,0.85938 h 2.04102 l 1.25976,-1.25782 v -0.20703 l -0.0996,-0.48828 c -0.10931,-0.25962 -0.22559,-0.68651 -0.31055,-1.24219 v -0.006 c -0.0778,-0.58515 -0.11718,-1.1458 -0.11718,-1.67968 v -8.34375 c 0,-1.43579 -0.31867,-2.74177 -1.01953,-3.81446 -0.66279,-1.02976 -1.61845,-1.82768 -2.76368,-2.33008 -1.12085,-0.49608 -2.38196,-0.73046 -3.74609,-0.73046 z m 36.17188,0 c -1.31507,0 -2.55712,0.25148 -3.67969,0.76757 -1.10484,0.49725 -2.07102,1.21572 -2.85742,2.12696 -0.78052,0.9044 -1.38031,1.97023 -1.79883,3.16601 l -0.004,0.01 c -0.41022,1.20652 -0.60937,2.50874 -0.60937,3.88476 v 0.50977 c 0,1.37602 0.19915,2.67629 0.60937,3.88281 l 0.004,0.0156 c 0.41853,1.18387 1.01784,2.24579 1.79297,3.15625 l 0.0117,0.0137 c 0.7944,0.90611 1.76096,1.6259 2.86132,2.13281 l 0.01,0.004 c 1.1235,0.50495 2.36881,0.75 3.69141,0.75 1.32259,0 2.56381,-0.24474 3.67968,-0.75196 l 0.006,-0.002 c 1.10199,-0.50766 2.06607,-1.23045 2.85156,-2.14062 0.78973,-0.91347 1.39182,-1.98302 1.80079,-3.17383 l 0.002,-0.004 c 0.41022,-1.20652 0.60937,-2.50679 0.60937,-3.88281 v -0.50977 c 0,-1.37602 -0.19915,-2.67824 -0.60937,-3.88476 -0.408,-1.19998 -1.01014,-2.26969 -1.80274,-3.17578 l -0.002,-0.002 c -0.78764,-0.91203 -1.76123,-1.62887 -2.875,-2.125 -1.12332,-0.51578 -2.36849,-0.76757 -3.6914,-0.76757 z m 26.90039,0 c -1.14739,0 -2.22224,0.18845 -3.19336,0.58984 l -0.006,0.002 c -0.44835,0.18783 -0.77505,0.55024 -1.16992,0.82032 l -1.13672,-1.0918 h -1.78711 l -1.25782,1.25781 v 23.90039 l 1.25782,1.25977 h 1.91601 l 1.25782,-1.25977 v -6.23437 c 0.32283,0.18694 0.57346,0.46953 0.92773,0.60937 0.97848,0.38625 2.06114,0.56641 3.22266,0.56641 1.22254,0 2.3712,-0.25284 3.3789,-0.78321 l 0.004,-0.004 c 0.98681,-0.52545 1.83377,-1.26913 2.50195,-2.18945 l 0.004,-0.008 c 0.66061,-0.92236 1.14593,-1.99046 1.46679,-3.17773 1.9e-4,-6.7e-4 0.002,-10e-4 0.002,-0.002 0.33101,-1.19694 0.49023,-2.4898 0.49023,-3.8711 v -0.33398 c 0,-1.43068 -0.15969,-2.74891 -0.49219,-3.95117 -0.31997,-1.20576 -0.80262,-2.27828 -1.4707,-3.1875 l -0.002,-0.002 c -0.6733,-0.92662 -1.53885,-1.6607 -2.54883,-2.15429 -1.01042,-0.50949 -2.1511,-0.75586 -3.36523,-0.75586 z m 17.50195,0 c -1.31373,0 -2.55411,0.25253 -3.67578,0.76757 -1.10545,0.49727 -2.07458,1.21533 -2.86133,2.12696 -0.78051,0.9044 -1.3803,1.97023 -1.79883,3.16601 l -0.004,0.01 c -0.41022,1.20652 -0.60938,2.50874 -0.60938,3.88476 v 0.50977 c 0,1.37601 0.19916,2.67629 0.60938,3.88281 l 0.006,0.0156 c 0.41855,1.18386 1.0159,2.24578 1.79102,3.15625 l 0.0137,0.0137 c 0.7944,0.90612 1.75901,1.62591 2.85938,2.13281 l 0.0117,0.004 c 1.1235,0.50495 2.3688,0.75 3.6914,0.75 1.3226,0 2.56382,-0.24474 3.67969,-0.75196 l 0.006,-0.002 c 1.10115,-0.50726 2.06444,-1.22947 2.84961,-2.13867 0.79027,-0.91375 1.39357,-1.98441 1.80273,-3.17578 v -0.004 c 0.41022,-1.20652 0.60938,-2.5068 0.60938,-3.88281 v -0.50977 c 0,-1.37602 -0.19916,-2.67824 -0.60938,-3.88476 -0.40859,-1.20174 -1.01232,-2.27276 -1.80664,-3.17969 -0.78713,-0.91046 -1.75866,-1.62751 -2.87109,-2.12305 -1.12377,-0.51632 -2.36977,-0.76757 -3.69336,-0.76757 z m 18.44531,0 c -1.1783,0 -2.28,0.24167 -3.23437,0.75976 l -0.006,0.004 c -0.25085,0.13815 -0.39295,0.41155 -0.6211,0.58203 l -1.03711,-1.02539 h -1.86718 l -1.25782,1.25781 v 17.26367 l 1.25782,1.25782 h 1.89843 l 1.25782,-1.25782 v -11.63867 c 0.0126,-0.0435 0.01,-0.0997 0.0234,-0.14258 0.18331,-0.58483 0.43225,-1.06392 0.7461,-1.46679 l 0.002,-0.002 c 0.30867,-0.3929 0.66811,-0.68068 1.12695,-0.89843 l 0.0156,-0.008 c 0.43307,-0.21286 0.95419,-0.33398 1.61523,-0.33398 0.20818,0 0.38953,0.01 0.53907,0.0254 0.18032,0.019 0.36025,0.0437 0.54101,0.0723 l 1.45313,-1.19726 0.0644,-1.75586 -0.13281,0.51758 -0.64063,-1.72461 c -0.29899,-0.12453 -0.55768,-0.16992 -0.85156,-0.20899 -0.29585,-0.0518 -0.59348,-0.0801 -0.89258,-0.0801 z m 39.75977,0 c -1.10967,0 -2.15765,0.16324 -3.125,0.50195 -0.001,3.9e-4 -0.003,-3.9e-4 -0.004,0 -0.92667,0.31821 -1.76037,0.76452 -2.4707,1.3457 -0.69979,0.57255 -1.26871,1.24962 -1.67188,2.01563 l -0.01,0.0156 c -0.39074,0.76802 -0.59766,1.60485 -0.59766,2.45313 l 1.24609,1.25976 1.9004,0.0156 1.26757,-1.25977 c 0,-0.37792 0.0916,-0.65423 0.33399,-0.97656 0.26595,-0.34994 0.62534,-0.63705 1.15429,-0.87305 l 0.008,-0.004 c 0.51893,-0.23588 1.12937,-0.36524 1.87304,-0.36524 0.82966,0 1.4504,0.13956 1.89258,0.35352 0.45953,0.22235 0.74038,0.48755 0.95508,0.86328 0.21711,0.37993 0.3457,0.85335 0.3457,1.49805 v 0.6875 h -2.26757 c -1.29736,0 -2.49673,0.13615 -3.59571,0.42187 -8.9e-4,2.3e-4 -10e-4,0.002 -0.002,0.002 -1.08495,0.2745 -2.05326,0.69046 -2.87891,1.26954 -0.82642,0.56918 -1.49886,1.30118 -1.95703,2.1621 -0.46472,0.86269 -0.6914,1.83999 -0.6914,2.85938 0,1.14102 0.29255,2.2347 0.87304,3.17969 l 0.004,0.008 c 0.58118,0.93259 1.4219,1.67901 2.43555,2.20508 l 0.01,0.006 c 1.04078,0.52697 2.22723,0.77539 3.50391,0.77539 1.13414,0 2.18873,-0.16838 3.14258,-0.5293 l 0.008,-0.004 c 0.67627,-0.26149 1.23698,-0.64715 1.79687,-1.0332 0.0326,0.12014 0.0441,0.273 0.082,0.38672 l 1.19336,0.85938 h 2.04297 l 1.25781,-1.25782 v -0.20703 l -0.0977,-0.48828 c -0.10931,-0.25962 -0.22559,-0.68651 -0.31055,-1.24219 v -0.006 c -0.0778,-0.58515 -0.11719,-1.14385 -0.11719,-1.67773 v -8.3457 c 0,-1.43417 -0.31836,-2.73855 -1.01757,-3.81055 -0.66261,-1.03157 -1.6174,-1.83078 -2.76368,-2.33399 -5.6e-4,-2.4e-4 -10e-4,2.5e-4 -0.002,0 -1.12127,-0.49659 -2.38127,-0.73046 -3.74609,-0.73046 z m 18.89062,0 c -1.15161,0 -2.249,0.22809 -3.24414,0.69336 -0.45507,0.21275 -0.79058,0.5979 -1.19336,0.89062 v -0.0332 l -1.25781,-1.23047 h -1.81836 l -1.25977,1.25781 v 17.26367 l 1.25977,1.25782 h 1.89844 l 1.25781,-1.25782 v -11.52734 c 0.19766,-0.52556 0.4366,-1.02985 0.77734,-1.49805 0.36891,-0.50304 0.80413,-0.89454 1.33789,-1.20312 l 0.006,-0.002 c 0.48263,-0.28214 1.04403,-0.43554 1.77344,-0.43554 0.68446,0 1.20965,0.11842 1.61524,0.31054 0.3384,0.1603 0.58246,0.3924 0.81054,0.86329 l 0.004,0.008 c 0.20047,0.40741 0.36523,1.15522 0.36523,2.21875 v 11.26562 l 1.25782,1.25782 h 1.91601 l 1.25781,-1.25782 v -11.24804 c 0,-1.22782 -0.13551,-2.31665 -0.4414,-3.27735 -0.28821,-0.94837 -0.73781,-1.78377 -1.36914,-2.44726 -0.60717,-0.65876 -1.37201,-1.15412 -2.23047,-1.44922 -0.83511,-0.28708 -1.74713,-0.41992 -2.72266,-0.41992 z m 27.30078,0 c -1.16063,0 -2.29134,0.24265 -3.34375,0.71875 l -0.006,0.002 c -1.04713,0.47941 -1.98115,1.18394 -2.77734,2.07812 v 0.002 c -0.79271,0.8918 -1.41374,1.95233 -1.86523,3.15234 l -0.004,0.01 c -0.45124,1.23177 -0.66602,2.58528 -0.66602,4.03906 v 0.68555 c 0,1.36407 0.21205,2.65634 0.65039,3.84961 l 0.002,0.004 c 0.43404,1.16951 1.05727,2.21139 1.86328,3.0918 0.80707,0.88158 1.78019,1.57628 2.88086,2.05859 1.1149,0.48855 2.33339,0.72852 3.61523,0.72852 1.14422,0 2.19231,-0.15261 3.13477,-0.48828 l 0.0156,-0.006 c 0.88917,-0.32887 1.68307,-0.76693 2.35938,-1.32617 l 0.01,-0.01 c 0.63041,-0.53343 1.17717,-1.12571 1.62696,-1.77539 l -0.26563,-1.71289 -1.19531,-0.92578 -1.76953,0.23047 c -0.52793,0.68898 -1.08423,1.14441 -1.68164,1.43164 -7.5e-4,3.5e-4 -10e-4,0.002 -0.002,0.002 -0.59787,0.28178 -1.29877,0.43555 -2.15234,0.43555 -0.71304,0 -1.311,-0.13741 -1.85156,-0.39844 -0.56917,-0.2856 -1.04409,-0.65831 -1.45508,-1.14258 l -0.002,-0.004 c -0.41836,-0.50454 -0.74845,-1.09057 -0.99024,-1.78906 -0.14256,-0.41183 -0.15642,-0.89086 -0.21484,-1.3457 h 10.91211 l 1.25781,-1.25781 v -1.16602 c 0,-1.26717 -0.16326,-2.4539 -0.50391,-3.54883 -0.34054,-1.10496 -0.8585,-2.09524 -1.55664,-2.93359 -0.70208,-0.85393 -1.58421,-1.52473 -2.59765,-1.98242 -1.02838,-0.47985 -2.18498,-0.70703 -3.42774,-0.70703 z m 42.08985,0 c -1.16064,0 -2.29135,0.24265 -3.34375,0.71875 l -0.006,0.002 c -1.04713,0.47941 -1.98115,1.18395 -2.77735,2.07812 v 0.002 c -0.79271,0.89181 -1.41374,1.95233 -1.86523,3.15234 l -0.004,0.01 c -0.45125,1.23178 -0.66601,2.58528 -0.66601,4.03906 v 0.68555 c 0,1.36407 0.21203,2.65633 0.65039,3.84961 l 0.002,0.004 c 0.43404,1.16951 1.05728,2.21139 1.86328,3.0918 0.80708,0.88158 1.7802,1.57628 2.88086,2.05859 1.11491,0.48855 2.33339,0.72852 3.61524,0.72852 1.14421,0 2.1923,-0.15261 3.13476,-0.48828 l 0.0156,-0.006 c 0.88917,-0.32887 1.68306,-0.76692 2.35937,-1.32617 l 0.01,-0.01 c 0.6304,-0.53343 1.17716,-1.12571 1.62695,-1.77539 l -0.26562,-1.71289 -1.19532,-0.92578 -1.76953,0.23047 c -0.52792,0.68898 -1.08423,1.14441 -1.68164,1.43164 -7.4e-4,3.5e-4 -10e-4,0.002 -0.002,0.002 -0.59788,0.28179 -1.29878,0.43555 -2.15235,0.43555 -0.71303,0 -1.311,-0.13741 -1.85156,-0.39844 -0.56917,-0.2856 -1.04409,-0.65831 -1.45508,-1.14258 l -0.002,-0.004 c -0.41836,-0.50454 -0.74844,-1.09056 -0.99023,-1.78906 -0.14256,-0.41184 -0.15643,-0.89086 -0.21485,-1.3457 h 10.91211 l 1.25781,-1.25781 v -1.16602 c 0,-1.26581 -0.16205,-2.45098 -0.50195,-3.54492 -0.34052,-1.10671 -0.85954,-2.09805 -1.55859,-2.9375 -0.7021,-0.85392 -1.58422,-1.52474 -2.59766,-1.98242 -1.02837,-0.47986 -2.18497,-0.70703 -3.42773,-0.70703 z m 17.19922,0 c -1.31507,0 -2.55712,0.25147 -3.67969,0.76757 -1.10483,0.49724 -2.07102,1.21574 -2.85742,2.12696 -0.78052,0.9044 -1.38031,1.97023 -1.79883,3.16601 l -0.004,0.01 c -0.41021,1.20652 -0.60937,2.50874 -0.60937,3.88476 v 0.50977 c 0,1.37601 0.19916,2.67629 0.60937,3.88281 l 0.006,0.0156 c 0.41854,1.18387 1.01589,2.24578 1.79102,3.15625 l 0.0117,0.0137 c 0.7944,0.90612 1.76096,1.62591 2.86132,2.13281 l 0.01,0.004 c 1.12351,0.50494 2.36881,0.75 3.69141,0.75 1.32259,0 2.56381,-0.24474 3.67968,-0.75196 l 0.006,-0.002 c 1.102,-0.50765 2.06607,-1.23044 2.85157,-2.14062 0.78973,-0.91348 1.39182,-1.98301 1.80078,-3.17383 l 0.002,-0.004 c 0.41022,-1.20652 0.60937,-2.5068 0.60937,-3.88281 v -0.50977 c 0,-1.37602 -0.19915,-2.67824 -0.60937,-3.88476 -0.40799,-1.19999 -1.01013,-2.26969 -1.80273,-3.17578 l -0.002,-0.002 c -0.78763,-0.91203 -1.76123,-1.62887 -2.875,-2.125 -1.12332,-0.51579 -2.36848,-0.76757 -3.6914,-0.76757 z m 19.19336,0 c -1.15162,0 -2.24901,0.22809 -3.24415,0.69336 -0.45507,0.21275 -0.79058,0.5979 -1.19335,0.89062 v -0.0332 l -1.25782,-1.23047 h -1.81836 l -1.25976,1.25781 v 17.26367 l 1.25976,1.25782 h 1.89844 l 1.25781,-1.25782 v -11.52734 c 0.19765,-0.52556 0.4366,-1.02985 0.77735,-1.49805 0.36889,-0.50304 0.80412,-0.89454 1.33789,-1.20312 l 0.006,-0.002 c 0.48262,-0.28215 1.04403,-0.43554 1.77343,-0.43554 0.68446,0 1.20965,0.11842 1.61524,0.31054 0.3384,0.1603 0.58246,0.3924 0.81055,0.86329 l 0.004,0.008 c 0.20047,0.40741 0.36524,1.15522 0.36524,2.21875 v 11.26562 l 1.25781,1.25782 h 1.91601 l 1.25782,-1.25782 v -11.24804 c 0,-1.22782 -0.13552,-2.31665 -0.44141,-3.27735 -0.28793,-0.94747 -0.73485,-1.78212 -1.36523,-2.44531 -0.60764,-0.66037 -1.37452,-1.15559 -2.23438,-1.45117 -0.83511,-0.28708 -1.74713,-0.41992 -2.72265,-0.41992 z m 16.81835,0 c -1.36347,0 -2.62461,0.24826 -3.73437,0.77734 -1.07853,0.51417 -2.00741,1.25459 -2.74023,2.1875 -5.4e-4,6.7e-4 -10e-4,10e-4 -0.002,0.002 -0.72275,0.91025 -1.26187,1.97473 -1.62109,3.16016 l -0.002,0.008 c -0.34615,1.16974 -0.51563,2.42092 -0.51563,3.74024 v 0.66992 c 0,1.31931 0.16948,2.57049 0.51563,3.74023 l 0.002,0.01 c 0.3596,1.17469 0.89885,2.23584 1.61719,3.15234 l 0.006,0.008 c 0.73227,0.92166 1.65759,1.65768 2.73046,2.18164 l 0.0156,0.008 c 1.11715,0.52647 2.38067,0.77539 3.74414,0.77539 1.34401,0 2.62421,-0.28749 3.78125,-0.86524 l 0.004,-0.002 c 1.15419,-0.57164 2.12879,-1.38265 2.86523,-2.39844 0.75748,-1.04483 1.18028,-2.28244 1.24414,-3.59765 l -1.25781,-1.31836 h -1.83399 l -1.25586,1.16601 c -0.049,0.66972 -0.23042,1.13277 -0.53125,1.51563 l -0.01,0.0117 c -0.329,0.42846 -0.72414,0.7386 -1.25586,0.96875 l -0.008,0.002 c -0.54131,0.23785 -1.10664,0.35547 -1.74219,0.35547 -0.82639,0 -1.45086,-0.15331 -1.93555,-0.4082 -0.5184,-0.28899 -0.91692,-0.65304 -1.24218,-1.13477 -0.33949,-0.52924 -0.59667,-1.13123 -0.76758,-1.83008 -0.16754,-0.73997 -0.25391,-1.5177 -0.25391,-2.33984 v -0.66992 c 0,-0.82561 0.0877,-1.60022 0.25586,-2.33008 2.8e-4,-10e-4 -2.8e-4,-0.003 0,-0.004 0.17237,-0.71088 0.43071,-1.31244 0.76758,-1.82617 0.32679,-0.49263 0.72054,-0.85418 1.23437,-1.13086 l 0.006,-0.002 c 0.48622,-0.26521 1.10548,-0.42188 1.91992,-0.42188 0.6855,0 1.26086,0.13721 1.79102,0.40625 0.52533,0.26659 0.91666,0.61909 1.23828,1.11328 0.3044,0.46776 0.48836,1.03128 0.53125,1.77735 l 1.25781,1.1875 h 1.83399 l 1.25781,-1.3125 c -0.0611,-1.44077 -0.44585,-2.76769 -1.17578,-3.88867 -0.71043,-1.09101 -1.68036,-1.96035 -2.84375,-2.55469 -1.16942,-0.59742 -2.48679,-0.88867 -3.89063,-0.88867 z m 25.33594,0 c -1.15161,0 -2.25096,0.22809 -3.24609,0.69336 -0.45446,0.21247 -0.7891,0.59644 -1.19141,0.88867 v -0.0312 L 794.75,257.94922 h -1.82031 l -1.25782,1.25781 v 17.26367 l 1.25782,1.25782 h 1.90039 l 1.25781,-1.25782 v -11.52734 c 0.19765,-0.52556 0.4366,-1.02985 0.77734,-1.49805 0.36891,-0.50304 0.80413,-0.89454 1.33789,-1.20312 l 0.006,-0.002 c 0.48263,-0.28215 1.04404,-0.43554 1.77344,-0.43554 0.68446,0 1.20965,0.11842 1.61524,0.31054 0.3384,0.1603 0.58246,0.3924 0.81054,0.86329 l 0.004,0.008 c 0.20047,0.40741 0.36523,1.15522 0.36523,2.21875 v 11.26562 l 1.25782,1.25782 h 1.91406 l 1.25976,-1.25782 v -11.24804 c 0,-1.22782 -0.13551,-2.31665 -0.4414,-3.27735 -0.28821,-0.94837 -0.73781,-1.78377 -1.36914,-2.44726 -0.60717,-0.65876 -1.37202,-1.15412 -2.23047,-1.44922 -0.83512,-0.28708 -1.74713,-0.41992 -2.72266,-0.41992 z m -14.63086,0.32031 -1.25781,1.25781 v 17.26367 l 1.25781,1.25782 h 1.91407 l 1.25976,-1.25782 v -17.26367 l -1.25976,-1.25781 z m 25.30469,0 -1.25781,1.25781 v 17.26367 l 1.25781,1.25782 h 1.91602 l 1.25781,-1.25782 v -17.26367 l -1.25781,-1.25781 z m -189.54297,1.74805 0.004,0.01 c -8e-4,-0.002 -0.003,-0.004 -0.004,-0.006 -4.1e-4,-0.001 4.1e-4,-0.003 0,-0.004 z m -129.74023,0.13085 c -0.002,7.8e-4 -0.002,0.003 -0.004,0.004 -10e-4,5.2e-4 -0.003,-5.2e-4 -0.004,0 z m 138.77929,0 c -0.002,7.8e-4 -0.002,0.003 -0.004,0.004 -10e-4,5.2e-4 -0.003,-5.2e-4 -0.004,0 z m -115.29101,0.0547 0.0215,0.01 c -0.003,-0.002 -0.008,-3e-4 -0.0117,-0.002 -0.004,-0.002 -0.006,-0.006 -0.01,-0.008 z m 39.27734,0.002 c -0.002,7.9e-4 -0.002,0.003 -0.004,0.004 -0.001,5.3e-4 -0.003,-5.3e-4 -0.004,0 z m -36.8789,0.0684 0.008,0.01 c -9.7e-4,-10e-4 -0.003,-8.7e-4 -0.004,-0.002 -0.002,-0.002 -0.002,-0.006 -0.004,-0.008 z m -52.6543,0.0957 c -0.003,10e-4 -0.005,0.004 -0.008,0.006 -0.002,0.001 -0.005,7.8e-4 -0.008,0.002 z m 126,0 c -0.003,10e-4 -0.005,0.004 -0.008,0.006 -0.002,0.001 -0.005,7.8e-4 -0.008,0.002 z m 92.18164,0.26562 0.008,0.006 c -0.002,-10e-4 -0.004,-7.3e-4 -0.006,-0.002 -10e-4,-8.6e-4 -7.8e-4,-0.003 -0.002,-0.004 z m 42.08984,0 0.008,0.006 c -0.002,-10e-4 -0.004,-7.3e-4 -0.006,-0.002 -0.001,-8.6e-4 -7.9e-4,-0.003 -0.002,-0.004 z m -136.98437,0.19141 c -10e-4,0.002 -5.4e-4,0.006 -0.002,0.008 -1.4e-4,2.1e-4 -0.002,-2e-4 -0.002,0 z m -110.22266,1.2832 c 0.87932,0 1.47604,0.20007 1.94336,0.54883 l 0.008,0.006 c 0.54588,0.40138 0.93442,0.89094 1.21485,1.55078 l 0.008,0.0176 c 0.15677,0.35384 0.16924,0.76872 0.25,1.15234 h -7.27734 c 0.22618,-0.71565 0.51596,-1.3127 0.8789,-1.78906 l 0.002,-0.002 c 0.38574,-0.50251 0.81216,-0.85722 1.30859,-1.10938 0.48556,-0.24663 1.01937,-0.375 1.66406,-0.375 z m 52.87696,0 c 0.76442,0 1.37549,0.14984 1.90039,0.42774 0.56297,0.29804 1.01455,0.68835 1.39648,1.20312 l 0.008,0.01 c 0.40419,0.53317 0.70513,1.13755 0.91016,1.84179 l 0.006,0.0137 c 0.21751,0.71595 0.32812,1.47719 0.32812,2.29882 v 0.50977 c 0,0.83356 -0.1117,1.60607 -0.33007,2.33398 l -0.004,0.0117 c -0.20596,0.70745 -0.50495,1.31382 -0.90039,1.84766 -0.38044,0.50321 -0.83158,0.8882 -1.39649,1.1875 -4.5e-4,2.4e-4 -10e-4,-2.4e-4 -0.002,0 -0.51123,0.26598 -1.11801,0.41211 -1.88476,0.41211 -0.76529,0 -1.37917,-0.14745 -1.9043,-0.41602 -0.56421,-0.29955 -1.02267,-0.68756 -1.41406,-1.19336 -0.39314,-0.53268 -0.69891,-1.13948 -0.91407,-1.84375 -0.20866,-0.72916 -0.3164,-1.50508 -0.3164,-2.33984 v -0.50977 c 0,-0.82356 0.10628,-1.58694 0.31445,-2.30468 0.21615,-0.70917 0.52351,-1.31806 0.91992,-1.85352 0.39552,-0.52016 0.84964,-0.91373 1.40235,-1.21094 h 0.002 c 0.52599,-0.27738 1.12948,-0.42578 1.87891,-0.42578 z m 44.40234,0 c 0.76443,0 1.37548,0.14985 1.90039,0.42774 0.56298,0.29805 1.01456,0.68835 1.39648,1.20312 l 0.008,0.01 c 0.40418,0.53317 0.70707,1.13755 0.91211,1.84179 l 0.004,0.0137 c 0.21751,0.71595 0.32813,1.47719 0.32813,2.29882 v 0.50977 c 0,0.83355 -0.10975,1.60802 -0.32813,2.33594 l -0.004,0.01 c -0.20597,0.70745 -0.50495,1.31382 -0.90039,1.84766 -0.38044,0.50322 -0.83354,0.8882 -1.39844,1.1875 -4.6e-4,2.4e-4 -10e-4,-2.4e-4 -0.002,0 -0.51122,0.26598 -1.11605,0.41211 -1.88281,0.41211 -0.76528,0 -1.37917,-0.14745 -1.90429,-0.41602 -0.56422,-0.29955 -1.02462,-0.68756 -1.41602,-1.19336 -0.39314,-0.53268 -0.69891,-1.13948 -0.91406,-1.84375 -0.20867,-0.72916 -0.31641,-1.50509 -0.31641,-2.33984 v -0.50977 c 0,-0.82572 0.10912,-1.59117 0.31836,-2.31054 1.7e-4,-6e-4 -1.7e-4,-0.001 0,-0.002 0.21598,-0.70534 0.52128,-1.3125 0.91602,-1.8457 0.39583,-0.52057 0.85293,-0.91363 1.40625,-1.21094 0.52561,-0.27684 1.12827,-0.42578 1.87695,-0.42578 z m 104.39648,0 c 0.87932,0 1.47603,0.20007 1.94336,0.54883 l 0.006,0.006 c 0.54588,0.40138 0.93442,0.89094 1.21485,1.55078 l 0.008,0.0176 c 0.15677,0.35384 0.16924,0.76873 0.25,1.15234 h -7.27735 c 0.22619,-0.71566 0.51792,-1.31269 0.88086,-1.78906 l 0.002,-0.002 c 0.38574,-0.50251 0.81216,-0.85722 1.30859,-1.10938 0.48556,-0.24662 1.01937,-0.375 1.66406,-0.375 z m 42.08985,0 c 0.87932,0 1.47602,0.20007 1.94336,0.54883 l 0.008,0.006 c 0.54588,0.40138 0.93245,0.89093 1.21289,1.55078 l 0.008,0.0176 c 0.15674,0.35378 0.16925,0.7688 0.25,1.15234 h -7.27734 c 0.22617,-0.71566 0.51791,-1.3127 0.88086,-1.78906 l 0.002,-0.002 c 0.38575,-0.50251 0.81216,-0.85722 1.30859,-1.10938 0.48555,-0.24662 1.01937,-0.375 1.66407,-0.375 z m 17.19922,0 c 0.76442,0 1.37549,0.14985 1.90039,0.42774 0.56299,0.29805 1.01455,0.68835 1.39648,1.20312 l 0.008,0.01 c 0.40418,0.53318 0.70708,1.13754 0.91211,1.84179 l 0.004,0.0137 c 0.21751,0.71595 0.32812,1.47719 0.32812,2.29882 v 0.50977 c 0,0.83355 -0.1117,1.60802 -0.33007,2.33594 l -0.002,0.01 c -0.20596,0.70745 -0.5069,1.31382 -0.90234,1.84766 -0.38044,0.50322 -0.83158,0.8882 -1.39649,1.1875 -4.5e-4,2.4e-4 -10e-4,-2.4e-4 -0.002,0 -0.51123,0.26599 -1.11801,0.41211 -1.88476,0.41211 -0.76679,0 -1.38046,-0.14645 -1.90625,-0.41602 -0.5636,-0.29945 -1.02104,-0.68797 -1.41211,-1.19336 -0.39314,-0.53269 -0.69891,-1.13947 -0.91407,-1.84375 -0.20865,-0.72916 -0.3164,-1.50509 -0.3164,-2.33984 v -0.50977 c 0,-0.82357 0.10629,-1.58694 0.31445,-2.30468 0.21615,-0.70918 0.52352,-1.31806 0.91992,-1.85352 0.39584,-0.52057 0.85294,-0.91363 1.40625,-1.21094 0.52562,-0.27684 1.12827,-0.42578 1.87696,-0.42578 z m -226.62891,0.0332 c 0.77331,0 1.35514,0.12998 1.78125,0.33593 l 0.0234,0.0117 c 0.49863,0.22888 0.86499,0.50917 1.15234,0.85547 l 0.0176,0.0234 c 0.31254,0.35942 0.54149,0.74996 0.72851,1.16601 v 7.32032 c -0.0944,0.18814 -0.13454,0.4073 -0.24804,0.58593 -0.33621,0.51878 -0.76827,0.92578 -1.34766,1.25782 -0.51475,0.28524 -1.20535,0.46093 -2.13867,0.46093 -0.6866,0 -1.2075,-0.13594 -1.63477,-0.36914 -0.45865,-0.26133 -0.82576,-0.6032 -1.13671,-1.08008 -0.32762,-0.51333 -0.58377,-1.12912 -0.75782,-1.87109 -0.17738,-0.75621 -0.26953,-1.59078 -0.26953,-2.50586 v -0.33398 c 0,-0.9266 0.0924,-1.7664 0.26953,-2.52149 0.17416,-0.74245 0.42921,-1.35203 0.75391,-1.85156 l 0.006,-0.008 c 0.31367,-0.49063 0.68071,-0.83571 1.13867,-1.09571 0.43846,-0.24325 0.96634,-0.38085 1.66211,-0.38085 z m 45.00977,0 c 0.711,0 1.24045,0.13996 1.6621,0.3789 l 0.008,0.004 c 0.46889,0.26135 0.83489,0.60638 1.14648,1.09375 l 0.0137,0.0215 c 0.3315,0.49725 0.59063,1.10022 0.76368,1.83789 l 0.004,0.0137 c 0.18529,0.75043 0.28125,1.58563 0.28125,2.50782 v 0.33398 c 0,0.91062 -0.0967,1.7451 -0.2832,2.50977 l -0.002,0.0117 c -0.17331,0.7388 -0.43402,1.35162 -0.76954,1.86328 l -0.002,0.004 c -0.31343,0.4822 -0.6854,0.83362 -1.15234,1.10743 -0.42318,0.2383 -0.94372,0.37695 -1.63867,0.37695 -0.92457,0 -1.61333,-0.17455 -2.13086,-0.46289 -0.58239,-0.32447 -1.01254,-0.72372 -1.34766,-1.23438 -0.11007,-0.16772 -0.14833,-0.37426 -0.24023,-0.55078 v -7.45117 c 0.18692,-0.41029 0.40786,-0.79753 0.70703,-1.15039 0.30395,-0.35681 0.67769,-0.6423 1.16797,-0.87109 l 0.008,-0.004 c 0.44171,-0.21 1.03137,-0.33984 1.80469,-0.33984 z m 4.92382,0.10156 0.0137,0.0195 c -0.002,-0.004 -0.007,-0.004 -0.01,-0.008 -0.002,-0.003 -0.002,-0.008 -0.004,-0.0117 z m -78.79492,0.96875 0.008,0.0176 c -10e-4,-0.003 -0.005,-0.005 -0.006,-0.008 -10e-4,-0.003 -6.1e-4,-0.007 -0.002,-0.01 z m 9.42578,4.03711 c -8.8e-4,1.9e-4 -0.001,0.002 -0.002,0.002 -0.003,6.8e-4 -0.007,-6.9e-4 -0.01,0 z m 138.7793,0 c -8.8e-4,1.9e-4 -10e-4,0.002 -0.002,0.002 -0.003,6.8e-4 -0.007,-6.9e-4 -0.01,0 z m -135.87305,2.21484 h 1.9961 v 2.04102 c -0.1437,0.3192 -0.23635,0.64846 -0.49024,0.95312 -0.40933,0.4912 -0.92737,0.89242 -1.60156,1.2168 -9.2e-4,4.4e-4 -10e-4,0.002 -0.002,0.002 -0.61633,0.29095 -1.34995,0.45117 -2.24805,0.45117 -0.64115,0 -1.12499,-0.11764 -1.50391,-0.31054 -0.40561,-0.2065 -0.65161,-0.44033 -0.83398,-0.74219 -0.19245,-0.31854 -0.28125,-0.63383 -0.28125,-1.04102 0,-0.39838 0.0826,-0.68391 0.23828,-0.94922 0.17638,-0.29319 0.42521,-0.55015 0.81055,-0.78906 0.38432,-0.23828 0.89859,-0.44361 1.55664,-0.58984 l 0.0117,-0.004 c 0.66275,-0.15434 1.44658,-0.23828 2.34765,-0.23828 z m 138.7793,0 h 1.99609 v 2.04102 c -0.14369,0.31919 -0.23634,0.64846 -0.49023,0.95312 -0.40989,0.49187 -0.92995,0.89415 -1.60547,1.21875 -0.61601,0.29049 -1.34875,0.45117 -2.24609,0.45117 -0.64116,0 -1.12499,-0.11764 -1.50391,-0.31054 -0.40562,-0.20651 -0.6516,-0.44032 -0.83398,-0.74219 -0.19246,-0.31854 -0.28125,-0.63384 -0.28125,-1.04102 0,-0.39839 0.0826,-0.68392 0.23828,-0.94922 0.17638,-0.29319 0.4252,-0.55014 0.81054,-0.78906 0.38434,-0.23828 0.89859,-0.4436 1.55664,-0.58984 l 0.0117,-0.004 c 0.66277,-0.15434 1.44659,-0.23828 2.34766,-0.23828 z m -179.08984,4.94922 -0.008,0.0117 c 0.002,-0.002 3.1e-4,-0.006 0.002,-0.008 0.001,-0.002 0.004,-0.002 0.006,-0.004 z m 324.49804,0 -0.008,0.0117 c 0.002,-0.002 3.1e-4,-0.006 0.002,-0.008 10e-4,-0.002 0.004,-0.002 0.006,-0.004 z m -279.52148,0.16797 -0.01,0.0137 c 0.001,-0.002 7.6e-4,-0.004 0.002,-0.006 0.002,-0.003 0.006,-0.005 0.008,-0.008 z m 138.77734,0 -0.008,0.0137 c 0.002,-0.003 0.002,-0.007 0.004,-0.01 9.6e-4,-0.002 0.003,-0.002 0.004,-0.004 z"
     id="path3" />
  <path
     style="font-size:40px;line-height:1.25;font-family:'Arial Black';-inkscape-font-specification:'Arial Black, ';text-align:center;baseline-shift:baseline;text-anchor:middle;white-space:pre;display:inline;overflow:visible;vector-effect:none;fill:#ffffff;stroke-width:2.87602;stroke-linecap:round;stroke-linejoin:round;enable-background:accumulate;stop-color:#000000"
     d="m 848.2459,149.90157 c -10.02039,0 -18.36109,1.92935 -24.67091,6.44296 a 5.0385033,5.0385033 0 0 0 -0.0115,0.0115 c -6.07822,4.37987 -10.23232,10.85682 -12.26806,18.66045 a 5.0385033,5.0385033 0 0 0 0.0173,0.0955 5.0385033,5.0385033 0 0 0 -1.65708,-1.11221 h -28.14236 a 5.0385033,5.0385033 0 0 0 -3.81409,1.74695 l -8.22365,9.52122 v -28.92339 a 5.0385033,5.0385033 0 0 0 -5.03865,-5.03865 h -23.36769 a 5.0385033,5.0385033 0 0 0 -5.03865,5.03865 v 82.34865 a 5.0385033,5.0385033 0 0 0 5.03865,5.03867 h 23.36769 a 5.0385033,5.0385033 0 0 0 5.03865,-5.03867 v -13.38585 l 2.16266,-2.12334 8.97072,17.77854 a 5.0385033,5.0385033 0 0 0 4.49939,2.76932 h 25.78313 a 5.0385033,5.0385033 0 0 0 4.34771,-7.57766 l -20.64893,-35.36612 18.58743,-18.14366 a 5.0385033,5.0385033 0 0 0 0.51115,-2.46596 5.0385033,5.0385033 0 0 0 1.5953,1.06727 l 21.62635,3.8759 -4.15113,-4.96002 a 5.0385033,5.0385033 0 0 0 6.29691,3.713 5.0385033,5.0385033 0 0 0 -1.3425,2.5502 l -1.17963,16.34617 a 5.0385033,5.0385033 0 0 0 6.40927,5.20716 c 2.90191,-0.8291 5.07506,-1.15153 6.0329,-1.15153 2.32543,0 3.32482,0.49844 4.28596,1.53352 a 5.0385033,5.0385033 0 0 0 0.0336,0.0336 c 0.93505,0.98798 1.59527,2.46789 1.59527,5.41501 0,2.82118 -0.64621,4.36434 -1.7638,5.58351 a 5.0385033,5.0385033 0 0 0 -0.0336,0.0336 c -1.17394,1.30439 -2.05075,1.70203 -3.89273,1.70203 -1.88394,0 -2.82472,-0.42346 -3.78042,-1.29196 -0.61794,-0.60986 -1.88946,-2.83271 -2.67942,-6.88112 a 5.0385033,5.0385033 0 0 0 -5.60597,-4.02756 l -22.86215,3.03332 a 5.0385033,5.0385033 0 0 0 -4.17363,6.40364 c 1.64811,5.64468 4.05888,10.55354 7.3305,14.57672 a 5.0385033,5.0385033 0 0 0 0.0394,0.0449 c 3.34323,4.01185 7.64482,7.09259 12.6388,9.13362 a 5.0385033,5.0385033 0 0 0 0.0115,0.006 c 5.27796,2.1385 11.7592,3.01085 19.64347,3.01085 8.19299,0 15.14957,-1.22449 20.84557,-4.07251 a 5.0385033,5.0385033 0 0 0 0.0288,-0.0115 c 5.5022,-2.79475 9.94189,-6.93616 12.93089,-12.15569 a 5.0385033,5.0385033 0 0 0 0.0115,-0.0173 c 2.89524,-5.09905 4.42077,-10.63442 4.42077,-16.30683 0,-4.48384 -0.92209,-8.66673 -2.9378,-12.26803 -1.88665,-3.47236 -4.64383,-6.36711 -8.02141,-8.47081 1.04063,-1.06461 2.14598,-2.08592 2.96026,-3.29169 2.48512,-3.67987 3.78603,-8.0047 3.78603,-12.48149 0,-7.39351 -3.24553,-14.16562 -8.99882,-18.97502 -6.21494,-5.19531 -15.16769,-7.18443 -26.54141,-7.18443 z m -418.31545,1.40431 a 5.0385033,5.0385033 0 0 0 -4.9151,6.13401 l 18.3122,82.34865 a 5.0385033,5.0385033 0 0 0 4.91509,3.94331 h 24.94051 a 5.0385033,5.0385033 0 0 0 4.85329,-3.69054 l 9.53807,-34.37746 9.57176,34.3831 a 5.0385033,5.0385033 0 0 0 4.85329,3.6849 h 24.94053 a 5.0385033,5.0385033 0 0 0 4.92068,-3.95453 l 18.14368,-82.34868 a 5.0385033,5.0385033 0 0 0 -4.9207,-6.12276 H 521.042 a 5.0385033,5.0385033 0 0 0 -4.9488,4.10057 l -4.68476,24.7439 -6.97099,-25.15396 a 5.0385033,5.0385033 0 0 0 -4.85329,-3.69051 h -24.09795 a 5.0385033,5.0385033 0 0 0 -4.8589,3.69612 l -6.92043,25.08658 -4.67354,-24.68213 a 5.0385033,5.0385033 0 0 0 -4.94877,-4.10057 z m 125.82605,0 a 5.0385033,5.0385033 0 0 0 -5.03868,5.03865 v 82.34865 a 5.0385033,5.0385033 0 0 0 5.03868,5.03867 h 22.86215 a 5.0385033,5.0385033 0 0 0 5.03865,-5.03867 v -28.64791 c 0,-4.89723 1.06913,-7.64533 1.43801,-8.09442 0.88156,-1.07319 1.34762,-1.30319 2.84793,-1.30319 1.45636,0 1.67304,0.21053 2.06153,0.6516 a 5.0385033,5.0385033 0 0 0 0.0394,0.0449 c 0.0201,0.023 0.78081,1.42087 0.78081,4.54435 v 32.80465 a 5.0385033,5.0385033 0 0 0 5.03865,5.03868 h 22.97449 a 5.0385033,5.0385033 0 0 0 5.03865,-5.03868 v -37.91632 c 0,-8.59293 -1.99004,-15.83398 -6.77436,-20.87364 -4.56057,-4.84285 -11.08425,-7.25187 -18.3178,-7.25187 -4.74901,0 -9.11564,0.78289 -12.97021,2.52213 -0.76226,0.34395 -1.41434,1.17357 -2.15702,1.59531 v -20.42426 a 5.0385033,5.0385033 0 0 0 -5.03865,-5.03865 z m 77.57399,0 a 5.0385033,5.0385033 0 0 0 -5.03865,5.03865 v 15.55975 a 5.0385033,5.0385033 0 0 0 3.56696,3.56693 5.0385033,5.0385033 0 0 0 -3.56696,3.56693 v 59.65504 a 5.0385033,5.0385033 0 0 0 5.03865,5.03867 h 22.86215 a 5.0385033,5.0385033 0 0 0 5.03868,-5.03867 v -59.65504 a 5.0385033,5.0385033 0 0 0 -3.56696,-3.56693 5.0385033,5.0385033 0 0 0 3.56696,-3.56693 v -15.55975 a 5.0385033,5.0385033 0 0 0 -5.03868,-5.03865 z m 263.0551,0 a 5.0385033,5.0385033 0 0 0 -5.03868,5.03865 v 82.34865 a 5.0385033,5.0385033 0 0 0 5.03868,5.03867 h 37.80399 c 5.08639,0 10.56573,-0.83456 16.47533,-2.42103 4.93549,-1.31544 9.49798,-3.95272 13.55441,-7.66754 a 5.0385033,5.0385033 0 0 0 0.0173,-0.0173 c 4.11047,-3.80756 7.31022,-8.52416 9.54368,-13.9532 2.43473,-5.86142 3.42092,-13.24901 3.42092,-22.43523 0,-6.02027 -0.726,-11.78879 -2.19634,-17.26175 -1.50847,-5.61484 -3.9908,-10.67649 -7.43161,-15.0205 -3.50222,-4.42157 -8.02126,-7.85876 -13.31286,-10.18406 -5.49574,-2.43251 -12.16247,-3.46581 -20.07036,-3.46581 z m -48.13969,8.67299 c 10.12153,0 16.70981,2.01785 20.08161,4.83644 3.83345,3.20452 5.3813,6.50597 5.3813,11.24571 0,2.63835 -0.64639,4.75462 -2.0559,6.84178 -1.39545,2.06636 -3.66912,4.10765 -7.08333,5.9936 a 5.0385033,5.0385033 0 0 0 1.23016,9.30213 c 2.87795,0.71104 4.89076,1.53925 5.84756,2.13455 a 5.0385033,5.0385033 0 0 0 0.0173,0.0115 c 2.03355,1.25354 3.46978,2.77234 4.5612,4.79148 a 5.0385033,5.0385033 0 0 0 0.0394,0.073 c 1.04477,1.86022 1.65711,4.2195 1.65711,7.36421 0,3.91268 -0.98539,7.58726 -3.10634,11.32434 -9.2e-4,0.002 8.9e-4,0.003 0,0.006 -2.02696,3.53202 -4.81067,6.16148 -8.7348,8.15623 -0.002,0.001 -0.003,0.006 -0.006,0.006 -3.74021,1.86352 -9.16661,2.994 -16.31247,2.994 -7.08856,0 -12.43575,-0.88424 -15.84623,-2.26375 l -0.0115,-0.006 c -3.60211,-1.47423 -6.39967,-3.52193 -8.66739,-6.23514 -1.13505,-1.3991 -1.82515,-3.68398 -2.74122,-5.52173 l 11.68945,-1.55038 c 0.96735,2.97956 2.18601,5.66821 4.28036,7.67878 a 5.0385033,5.0385033 0 0 0 0.073,0.0673 c 2.85106,2.62748 6.72863,3.97702 10.66151,3.97702 4.29002,0 8.49362,-1.8454 11.36366,-5.02182 2.99221,-3.27318 4.40391,-7.7135 4.40391,-12.37476 0,-4.68052 -1.32386,-9.10865 -4.34213,-12.31297 -2.9332,-3.14916 -7.24189,-4.74657 -11.65014,-4.74657 -0.57754,0 -1.33114,0.28387 -1.92671,0.33705 l 0.38196,-5.29146 c 3.43639,-0.36344 6.75829,-1.57278 9.23475,-3.94892 2.84651,-2.69886 4.5949,-6.52935 4.5949,-10.43681 0,-3.51162 -1.2318,-7.07933 -3.72422,-9.57178 -2.53697,-2.53694 -6.15932,-3.72422 -9.74029,-3.72422 -3.71306,0 -7.42744,1.31906 -10.07172,3.89276 -1.80686,1.73415 -2.86043,3.94438 -3.6512,6.36993 l -10.84686,-1.94356 c 1.57643,-3.18741 3.49368,-5.93048 6.22389,-7.89782 3.95134,-2.8225 10.09806,-4.55559 18.79527,-4.55559 z m -412.03539,1.40431 h 13.70043 l 7.93155,41.90459 a 5.0385033,5.0385033 0 0 0 9.80768,0.40442 l 11.67263,-42.30901 h 16.43041 l 11.72877,42.30901 a 5.0385033,5.0385033 0 0 0 9.80206,-0.40442 l 7.93156,-41.90459 h 13.59931 l -15.92486,72.27135 H 505.8249 l -13.40834,-48.16216 a 5.0385033,5.0385033 0 0 0 -9.70658,0.006 l -13.35778,48.15655 h -17.07079 z m 124.58464,0 h 12.78482 v 25.2944 a 5.0385033,5.0385033 0 0 0 8.66178,3.49954 c 2.78318,-2.88379 5.40031,-4.77362 7.7181,-5.81946 2.28695,-1.03192 5.18524,-1.62898 8.82467,-1.62898 5.19462,0 8.43869,1.36818 10.99291,4.08373 a 5.0385033,5.0385033 0 0 0 0.0173,0.023 c 2.39953,2.52449 4.00509,6.88664 4.00509,13.94199 v 32.87767 H 600.9026 v -27.766 c 0,-4.35392 -0.62824,-8.22425 -3.35911,-11.26817 -2.38316,-2.69044 -6.04747,-4.05002 -9.59985,-4.05002 -4.04199,0 -8.06972,1.86711 -10.63341,4.98812 -3.07634,3.7451 -3.72986,8.5241 -3.72986,14.48682 v 23.60925 h -12.78482 z m 77.57402,0 h 12.78482 v 5.48242 h -12.78482 z m 107.73853,0 h 13.2904 v 37.42762 a 5.0385033,5.0385033 0 0 0 8.85274,3.29173 l 15.56536,-18.02571 h 13.46451 l -12.5489,12.25117 a 5.0385033,5.0385033 0 0 0 -0.82573,6.14526 l 18.21107,31.18128 H 788.2089 l -10.67836,-21.16012 a 5.0385033,5.0385033 0 0 0 -8.02704,-1.33128 l -8.59437,8.42583 a 5.0385033,5.0385033 0 0 0 -1.51103,3.60066 v 10.46491 h -13.2904 z m 155.31654,0 h 32.76534 c 6.9965,0 12.35065,0.98895 15.99227,2.60079 a 5.0385033,5.0385033 0 0 0 0.0115,0.006 c 3.91565,1.71908 6.99498,4.08404 9.4819,7.22376 2.55092,3.22052 4.41257,6.95923 5.60037,11.38052 1.22593,4.56318 1.84807,9.42993 1.84807,14.64414 0,8.41444 -1.03605,14.69547 -2.64571,18.57057 a 5.0385033,5.0385033 0 0 0 -0.0115,0.0173 c -1.73396,4.22039 -4.07084,7.62017 -7.06648,10.39748 -3.05192,2.79239 -6.12162,4.49658 -9.34147,5.35323 a 5.0385033,5.0385033 0 0 0 -0.0115,0.006 c -5.24998,1.40936 -9.88165,2.07275 -13.85772,2.07275 h -32.76534 z m 20.40741,8.5719 a 5.0385033,5.0385033 0 0 0 -5.03865,5.03865 v 44.99407 a 5.0385033,5.0385033 0 0 0 5.03865,5.03865 h 6.23513 c 5.68429,0 9.97428,-0.39818 13.66111,-2.30306 a 5.0385033,5.0385033 0 0 0 0.0561,-0.0336 c 3.39793,-1.81224 5.92095,-4.92651 7.5271,-8.61122 a 5.0385033,5.0385033 0 0 0 0.0115,-0.023 c 1.81032,-4.2063 2.31992,-9.39715 2.31992,-16.31246 0,-9.27319 -1.19191,-16.34335 -5.53298,-21.2556 -4.1239,-4.66658 -10.51874,-6.53286 -17.9302,-6.53286 z m -223.56592,2.69627 c -7.09052,0 -12.95076,0.70794 -17.7954,2.42665 -0.003,0.001 -0.009,-0.001 -0.0115,0 -4.71651,1.63832 -8.7522,4.29727 -11.67821,7.94277 -2.99328,3.72934 -4.53874,8.41079 -4.53874,13.31847 0,4.57463 1.43189,8.9876 4.14553,12.62192 a 5.0385033,5.0385033 0 0 0 0.0288,0.0336 c 2.40387,3.16294 5.52369,5.53681 9.04374,7.11704 l -11.17827,1.05041 a 5.0385033,5.0385033 0 0 0 -4.43762,6.13965 c 1.5526,6.78713 5.35257,12.51968 10.96485,16.30683 a 5.0385033,5.0385033 0 0 0 0.0172,0.0115 c 6.15745,4.12152 14.7381,5.51613 26.1145,5.51613 8.13012,0 14.81512,-0.95038 20.2389,-3.27487 a 5.0385033,5.0385033 0 0 0 0.023,-0.006 c 5.16982,-2.24028 9.36931,-5.45821 12.07142,-9.72344 2.52756,-3.9331 3.93768,-8.30144 3.93768,-12.76235 0,-4.3774 -1.35521,-8.62457 -3.87027,-12.23996 -2.33516,-3.40728 -5.73341,-5.95463 -9.67851,-7.78548 l 6.98224,-0.6853 a 5.0385033,5.0385033 0 0 0 4.20731,-6.82495 c -1.68584,-4.3832 -3.90498,-8.10372 -6.8081,-11.00976 -2.85273,-2.8932 -6.44439,-5.00604 -10.50422,-6.30255 -0.001,-4.3e-4 -0.003,4.6e-4 -0.006,0 -4.35476,-1.40235 -9.89827,-1.87054 -17.26739,-1.87054 z m 149.53079,1.53914 c 1.66174,0 2.15871,0.31066 2.61761,0.76956 0.50342,0.50342 0.76957,0.94265 0.76957,2.44911 0,1.32587 -0.2692,2.01457 -1.45487,3.1344 a 5.0385033,5.0385033 0 0 0 -0.0337,0.0337 c -1.07215,1.03172 -2.05169,1.45487 -3.97699,1.45487 -0.26948,0 -1.10172,-0.057 -2.24129,-0.22462 a 5.0385033,5.0385033 0 0 0 -2.78051,0.75832 5.0385033,5.0385033 0 0 0 2.084,-1.67393 c 0.5144,-3.50458 1.56318,-5.28113 1.9267,-5.62849 a 5.0385033,5.0385033 0 0 0 0.0394,-0.0394 c 0.72484,-0.70871 1.38014,-1.03356 3.05016,-1.03356 z m 79.07381,5.84192 h 1.30882 c 5.77028,0 8.81245,1.35426 10.38063,3.1288 1.35107,1.52883 3.00522,6.40467 3.00522,14.58233 0,6.26366 -0.76393,10.61207 -1.49979,12.32422 -3.5e-4,7.5e-4 3.1e-4,0.006 0,0.006 -0.92985,2.12256 -1.91799,3.11786 -2.99961,3.70175 -0.82237,0.41792 -4.06632,1.174 -8.99882,1.174 h -1.19645 z m -228.6046,2.69627 c 6.85886,0 11.79823,0.61886 14.18352,1.38745 a 5.0385033,5.0385033 0 0 0 0.0172,0 c 2.7393,0.87296 4.7866,2.1305 6.4205,3.79164 a 5.0385033,5.0385033 0 0 0 0.0288,0.0288 c 0.32384,0.32387 0.56663,1.08104 0.8819,1.46611 l -10.35256,1.01673 c -0.78907,-1.16045 -1.75904,-2.20254 -2.93783,-3.01085 a 5.0385033,5.0385033 0 0 0 -0.0506,-0.0336 c -2.71114,-1.80741 -5.97664,-2.64571 -9.3134,-2.64571 -3.18543,0 -6.17839,0.45381 -8.75726,2.46035 -0.002,0.002 -0.003,0.003 -0.006,0.006 -2.09532,1.62533 -3.69051,4.49575 -3.69051,7.29118 0,3.18287 2.36355,6.48443 5.03304,7.81919 3.02998,1.51498 6.22622,1.89504 11.43108,2.51652 a 5.0385033,5.0385033 0 0 0 0.0288,0.006 c 7.36026,0.83393 12.71429,2.04974 15.60467,3.24677 2.97878,1.23364 4.90768,2.79299 6.25199,4.75778 a 5.0385033,5.0385033 0 0 0 0.023,0.0394 c 1.44511,2.07223 2.07277,4.06943 2.07277,6.49912 0,2.42302 -0.68273,4.75209 -2.3424,7.3305 a 5.0385033,5.0385033 0 0 0 -0.023,0.0336 c -1.41759,2.24238 -3.76673,4.22422 -7.57766,5.87563 -3.48968,1.49096 -8.96422,2.44911 -16.25066,2.44911 -10.40686,0 -17.35695,-1.71118 -20.49167,-3.80288 -1.93119,-1.30316 -3.37803,-2.8613 -4.52186,-4.69037 l 12.57136,-1.18524 c 1.05752,1.78998 2.30977,3.421 4.02195,4.60052 2.76199,1.90269 6.09711,2.62886 9.59985,2.62886 3.76515,0 7.32541,-0.80822 10.17281,-2.99961 2.25878,-1.69841 3.96578,-4.70612 3.96578,-7.65629 0,-3.40337 -2.44942,-6.8026 -5.29145,-8.28542 a 5.0385033,5.0385033 0 0 0 -0.023,-0.0115 c -2.95724,-1.52337 -5.81851,-1.88385 -11.26257,-2.84231 a 5.0385033,5.0385033 0 0 0 -0.0115,-0.006 c -7.78614,-1.35892 -13.19629,-2.66273 -15.61592,-3.56132 -2.18195,-0.85438 -3.96445,-2.19927 -5.59476,-4.3365 -1.47261,-1.97787 -2.14016,-3.96345 -2.14016,-6.57217 0,-2.95644 0.73888,-5.05312 2.31428,-7.01592 1.6341,-2.03591 3.87685,-3.6013 7.15638,-4.73534 a 5.0385033,5.0385033 0 0 0 0.0394,-0.0173 c 3.1674,-1.12487 8.05014,-1.84244 14.43629,-1.84244 z m -59.89656,1.34814 h 12.78482 v 49.57771 h -12.78482 z m 57.234,36.57943 c 0.14898,0.0259 0.17515,0.0523 0.32579,0.0785 3.78123,0.66572 4.96212,1.06313 6.11716,1.36499 -0.64201,0.16365 -0.80362,0.43253 -1.9267,0.43253 -2.11448,0 -3.27312,-0.43471 -3.88151,-0.85381 -0.1694,-0.11648 -0.42847,-0.78685 -0.63474,-1.02234 z"
     id="path18" />
  <path
     d="m 429.93045,156.34418 h 24.15411 l 8.7067,46.00514 12.69495,-46.00514 h 24.09794 l 12.75111,46.00514 8.70673,-46.00514 h 24.04175 l -18.14365,82.34865 h -24.94054 l -14.43629,-51.84706 -14.38012,51.84706 h -24.9405 z m 125.82605,0 h 22.86214 v 30.33305 q 4.6623,-4.83083 9.26842,-6.90918 4.60616,-2.07839 10.89746,-2.07839 9.32459,0 14.66096,5.67342 5.39255,5.67338 5.39255,17.41343 v 37.91632 h -22.97449 v -32.80465 q 0,-5.61725 -2.07839,-7.92031 -2.07835,-2.35923 -5.84192,-2.35923 -4.15675,0 -6.74068,3.14565 -2.58391,3.14565 -2.58391,11.29064 v 28.6479 H 555.7565 Z m 77.57398,0 h 22.86215 v 15.55972 h -22.86215 z m 0,22.69361 h 22.86215 v 59.65504 h -22.86215 z m 33.42257,43.14036 22.69361,-2.13455 q 1.4043,4.04441 3.93207,5.78575 2.52777,1.74135 6.74068,1.74135 4.60613,0 7.13389,-1.96602 1.96602,-1.46048 1.96602,-3.6512 0,-2.4716 -2.5839,-3.81973 -1.85371,-0.95493 -9.83017,-2.35924 -11.90855,-2.07838 -16.57084,-3.81973 -4.60613,-1.79751 -7.80797,-6.01043 -3.14566,-4.21291 -3.14566,-9.60546 0,-5.89809 3.42653,-10.1672 3.42652,-4.26909 9.43695,-6.34748 6.01043,-2.13455 16.12147,-2.13455 10.67275,0 15.72825,1.62901 5.11168,1.62898 8.48203,5.0555 3.4265,3.42652 5.67339,9.26845 l -21.68252,2.13453 q -0.84259,-2.86478 -2.80861,-4.21292 -2.69627,-1.79751 -6.516,-1.79751 -3.87588,0 -5.67339,1.4043 -1.74135,1.34814 -1.74135,3.31419 0,2.19069 2.2469,3.31415 2.24689,1.12344 9.77399,2.02219 11.40298,1.29197 16.96403,3.59503 5.56108,2.3031 8.48202,6.57218 2.97715,4.26911 2.97715,9.38078 0,5.16785 -3.14565,10.05484 -3.08948,4.887 -9.83017,7.80798 -6.68451,2.86478 -18.25602,2.86478 -16.34614,0 -23.3115,-4.6623 -6.90921,-4.66232 -8.87523,-13.25669 z m 74.316,-65.83397 h 23.36769 v 42.46628 l 17.07639,-19.77267 h 28.14236 l -21.40167,20.89613 22.63747,38.75891 h -25.78313 l -12.07705,-23.92941 -8.59437,8.42583 v 15.50358 h -23.36769 z m 96.72877,23.81708 -21.62635,-3.87591 q 2.69627,-10.33571 10.33571,-15.84059 7.69561,-5.50488 21.73871,-5.50488 16.12147,0 23.31153,6.01043 7.19006,6.01043 7.19006,15.11037 0,5.33635 -2.92098,9.66163 -2.92094,4.32528 -8.81907,7.58327 4.77466,1.17963 7.30243,2.75244 4.10058,2.52776 6.34747,6.68451 2.30306,4.10058 2.30306,9.83016 0,7.19006 -3.76353,13.81841 -3.76357,6.57214 -10.84129,10.16717 -7.07769,3.53887 -18.59303,3.53887 -11.23447,0 -17.75045,-2.64011 -6.45984,-2.6401 -10.67275,-7.69561 -4.15675,-5.11167 -6.40364,-12.80728 l 22.86212,-3.03331 q 1.34813,6.90919 4.15677,9.60546 2.86478,2.6401 7.24623,2.6401 4.60612,0 7.63944,-3.37032 3.08948,-3.37036 3.08948,-8.98758 0,-5.72958 -2.97714,-8.87523 -2.92095,-3.14566 -7.97648,-3.14566 -2.69628,0 -7.41474,1.34814 l 1.1796,-16.34617 q 1.90988,0.28099 2.97715,0.28099 4.49378,0 7.47093,-2.86478 3.03328,-2.86481 3.03328,-6.79685 0,-3.76357 -2.24689,-6.01046 -2.24689,-2.24689 -6.17894,-2.24689 -4.0444,0 -6.57217,2.47159 -2.52777,2.4154 -3.42652,8.5382 z m 58.58777,-23.81708 h 37.80398 q 11.1783,0 18.03132,3.03329 6.90919,3.03331 11.40298,8.70673 4.49378,5.67339 6.516,13.20049 2.02219,7.5271 2.02219,15.95296 0,13.20049 -3.03328,20.50289 -2.97715,7.24622 -8.31352,12.18939 -5.33638,4.887 -11.45915,6.51601 -8.36969,2.24689 -15.16654,2.24689 h -37.80398 z m 25.44605,18.64921 v 44.99404 h 6.23514 q 7.97648,0 11.34683,-1.74135 3.37033,-1.79751 5.28018,-6.17893 1.90988,-4.43762 1.90988,-14.32395 0,-13.08816 -4.26911,-17.91899 -4.26909,-4.83082 -14.15542,-4.83082 z"
     id="text12"
     style="font-size:40px;line-height:1.25;font-family:'Arial Black';-inkscape-font-specification:'Arial Black, ';text-align:center;text-anchor:middle;white-space:pre;stroke-width:2.87602"
     aria-label="Whisk3D" />
  <g
     id="g12"
     transform="matrix(0.67592629,0,0,0.67592629,14.407388,-272.4905)">
    <path
       style="baseline-shift:baseline;display:inline;overflow:visible;vector-effect:none;fill:#ffffff;stroke-width:4.1226;stroke-linecap:round;stroke-linejoin:round;paint-order:markers stroke fill;enable-background:accumulate;stop-color:#000000"
       d="m 357.35996,454.59254 -117.22038,0.008 c -5.26594,-0.002 -9.53527,4.26758 -9.53352,9.53352 v 15.37118 c 0,15.3286 -12.22213,27.56414 -27.5538,27.55378 h -0.008 c -6.53148,0 -12.8019,-2.25676 -17.67404,-6.24027 l -4.36416,-4.35609 -8.32572,-8.33378 c -3.72103,-3.71717 -9.7499,-3.71717 -13.47093,0 l -82.918661,82.91943 c -3.72252,3.72193 -3.72252,9.757 0,13.47897 l 10.87014,10.8621 c 10.83695,10.85412 10.83159,28.12463 0,38.97951 -4.64679,4.60173 -10.65934,7.44185 -16.88496,8.0761 h -6.20012 -11.77195 c -5.26595,-0.002 -9.53527,4.26757 -9.53352,9.53352 v 117.26868 c 0.003,5.26281 4.27072,9.52721 9.53352,9.52547 h 15.36313 c 15.33947,0 27.56283,12.22481 27.56184,27.56988 0,6.51821 -2.25836,12.78402 -6.22416,17.64185 l -12.71404,12.71407 c -3.72251,3.72196 -3.72251,9.757 0,13.47896 l 82.919051,82.91906 c 3.72102,3.71717 9.74989,3.71717 13.47092,0 l 10.87014,-10.87015 0.008,-0.008 c 10.84275,-10.81912 28.11846,-10.80453 38.95537,0 4.69155,4.72558 7.52954,10.87204 8.08416,17.27947 v 5.78937 11.77999 c 0.003,5.25967 4.2658,9.52283 9.52547,9.52551 h 117.26868 c 5.25967,-0.003 9.52279,-4.26584 9.52547,-9.52551 v -15.45169 c 0.0999,-15.32058 12.26392,-27.47327 27.5699,-27.47327 6.50796,0 12.76638,2.25203 17.64183,6.21611 l 12.706,12.71403 c 3.71985,3.72461 9.75492,3.72798 13.47897,0.008 l 82.91911,-82.91902 c 3.72249,-3.72196 3.72249,-9.757 0,-13.47896 l -10.87824,-10.87015 c -0.0227,-0.008 -0.0427,-0.0151 -0.0643,-0.0227 -0.0113,-0.0227 -0.0227,-0.048 -0.034,-0.0722 -10.73193,-10.8412 -10.70887,-28.04424 0.0805,-38.85876 4.7345,-4.70237 10.89282,-7.5445 17.29561,-8.09219 h 5.80543 11.78007 c 5.26594,0.002 9.53521,-4.26762 9.53348,-9.53352 V 651.96249 c -0.003,-5.26276 -4.27072,-9.5272 -9.53348,-9.52546 h -15.36314 c -15.33366,0 -27.56281,-12.23373 -27.56183,-27.56183 v -0.008 c 0,-6.62661 2.35741,-12.98166 6.50593,-17.92366 l 4.09844,-4.09844 h 0.008 l 8.32577,-8.33378 c 3.71717,-3.72102 3.71717,-9.7499 0,-13.47096 l -82.91725,-82.91992 c -3.72193,-3.7225 -9.75701,-3.7225 -13.47893,0 l -8.07612,8.07609 h 3.81663 c -2.51355,0.003 -4.92427,0.99825 -6.70729,2.7699 -10.84774,10.76795 -28.11423,10.73182 -38.92315,0.008 -0.003,-0.003 -0.005,-0.004 -0.008,-0.008 -4.5726,-4.62391 -7.39366,-10.60732 -8.04384,-16.79641 v -18.05246 c -0.003,-5.2628 -4.27072,-9.5272 -9.53351,-9.52546 z m -9.52546,19.05898 v 9.28388 c 8.1e-4,0.31181 0.017,0.62366 0.0483,0.93404 1.05993,10.78265 5.91114,20.86004 13.5756,28.5764 0.0159,0.0151 0.0321,0.0302 0.0483,0.0484 18.04595,17.9184 47.45111,17.96867 65.60733,0.11263 0.11376,-0.0435 0.22639,-0.0892 0.33827,-0.13682 l 4.1306,-4.13065 69.43206,69.44006 -1.58623,1.58623 -4.58154,4.58158 c -0.18785,0.18557 -0.36775,0.37908 -0.53949,0.57974 -7.13186,8.42457 -11.07145,19.17744 -11.07145,30.33978 -0.002,25.63109 20.9822,46.62886 46.62081,46.62886 h 5.83767 v 98.20971 h -2.25456 -6.44961 c -0.25512,-0.002 -0.51039,0.008 -0.76494,0.0265 -11.04465,0.89235 -21.41896,5.75516 -29.31716,13.59976 -0.008,0.008 -0.0151,0.0151 -0.0227,0.0265 -18.07015,18.07408 -18.13062,47.62394 -0.16895,65.76839 l -0.467,-1.12728 c 0.55771,0.76479 1.16376,1.20393 1.77952,1.74727 l -1.14338,-0.45898 4.1306,4.13873 -69.43201,69.44005 -6.51402,-6.51401 c -0.21543,-0.21732 -0.44111,-0.42429 -0.67638,-0.62 -8.37495,-6.8968 -18.96735,-10.64473 -29.90495,-10.64469 -25.57562,0 -46.46238,20.87943 -46.62888,46.41146 -7e-5,0.0227 -7e-5,0.0427 0,0.0643 v 5.97457 h -98.20343 v -2.24652 -6.44961 c -2.4e-4,-0.25814 -0.011,-0.51583 -0.0321,-0.77295 -0.90235,-11.02488 -5.74615,-21.4009 -13.59975,-29.30147 -0.008,-0.008 -0.0163,-0.0151 -0.0246,-0.0227 -18.12308,-18.09237 -47.7796,-18.10885 -65.91332,0 h -0.008 l -4.13871,4.1387 -69.440071,-69.44009 6.522081,-6.52207 c 0.21173,-0.21316 0.41325,-0.43612 0.6039,-0.66829 6.91227,-8.37086 10.66079,-18.96578 10.66079,-29.90498 0.002,-25.64236 -20.984921,-46.63061 -46.620471,-46.63061 h -5.83744 V 661.5076 h 2.24649 6.92469 c 0.30107,8.4e-4 0.60201,-0.0113 0.90181,-0.0401 10.84563,-1.02826 20.96613,-5.90404 28.705231,-13.58366 0.0106,-0.008 0.0215,-0.0151 0.0321,-0.0265 18.11957,-18.135 18.12275,-47.80868 0,-65.9455 h -0.008 l -4.122601,-4.12259 69.440071,-69.44009 1.58623,1.58623 v 0.008 l 4.8956,4.88753 c 0.21059,0.21166 0.43099,0.41314 0.66049,0.60405 8.38864,6.93739 19.00395,10.68491 29.95329,10.68491 25.63979,0.0113 46.62082,-20.98488 46.62082,-46.61276 v -5.84568 z m 155.5799,349.36635 c 0,0 1.9627,-0.18256 4.26754,0.92598 0.44088,0.21165 0.88512,0.92341 1.35273,1.33659 -1.57743,-1.34543 -3.5506,-2.13978 -5.62027,-2.26257 z m 7.38368,4.00989 c 1.23715,1.70721 2.22233,3.65816 2.22233,5.38673 -0.16026,-1.98357 -0.93733,-3.86721 -2.22233,-5.38673 z"
       id="path13"
       sodipodi:nodetypes="cccsssccccccccccccccsccccccccccccccccscccccccccccccccsssccccccccccsccccccccscccccccccscccccccccccccccsscccccccccccccccsccccccccccccccccsccccccccc" />
    <path
       style="baseline-shift:baseline;display:inline;overflow:visible;vector-effect:none;fill:#bfffbf;fill-opacity:1;stroke-width:4.1226;stroke-linecap:round;stroke-linejoin:round;paint-order:markers stroke fill;enable-background:accumulate;stop-color:#000000"
       d="m 357.36286,464.11816 -117.22387,0.0113 v 15.37731 c 0,20.47963 -16.60503,37.0958 -37.09262,37.08196 -8.76603,0 -17.24155,-3.01258 -23.87981,-8.50246 l -4.89356,-4.88916 -8.32779,-8.32781 -82.915681,82.91785 10.8651,10.85869 c 14.486191,14.49744 14.483571,37.97617 0,52.47209 -6.2171,6.16932 -14.32053,10.04595 -22.89342,10.85873 h -6.92597 -11.7748 v 117.26877 h 15.36881 c 20.4875,0 37.091811,16.60188 37.090491,37.09478 0,8.75429 -3.01075,17.21506 -8.479041,23.83721 l -13.25117,13.25753 82.915681,82.91784 10.87363,-10.87362 c 14.49018,-14.47034 37.96557,-14.45643 52.44652,0 6.29167,6.32927 10.14323,14.61853 10.85872,23.35994 v 6.44881 11.7769 h 117.26647 v -15.50941 c 0.13323,-20.4263 16.65822,-36.94779 37.09902,-36.94779 8.75145,0 17.20723,3.01153 23.84146,8.47484 l 13.24693,13.25544 82.91571,-82.91573 -10.87367,-10.8757 c 0,0 -0.13228,0.003 -0.13228,-0.12964 -14.3503,-14.49641 -14.30835,-37.88145 0.13228,-52.3251 6.33173,-6.28879 14.62454,-10.15423 23.37067,-10.86085 h 6.45086 11.78121 V 651.96412 h -15.36881 c -20.48614,0 -37.09175,-16.61514 -37.09055,-37.09474 0,-8.91375 3.155,-17.49521 8.81783,-24.18448 l 4.58676,-4.58253 8.3257,-8.32777 -82.91571,-82.91781 -10.86725,10.87151 h -0.1321 c -14.49691,14.39025 -37.90621,14.35079 -52.35916,0 -6.15332,-6.19499 -10.01838,-14.26832 -10.85659,-22.79543 z m -87.96051,74.41107 a 174.54846,174.54846 0 0 0 -18.46429,4.2949 c 6.04307,-1.72002 12.17298,-3.229 18.46429,-4.2949 z m 74.95859,3.57483 c 18.26408,4.92971 35.34792,12.73251 50.71876,22.92113 5.1252,3.39723 9.99271,7.13503 14.71902,11.03978 A 174.54846,174.54846 0 0 0 395.0797,565.02519 174.54846,174.54846 0 0 0 344.36094,542.10406 Z m -98.12045,2.19432 a 174.54846,174.54846 0 0 0 -13.6879,4.95749 c 4.475,-1.83893 9.03541,-3.48881 13.6879,-4.95749 z m -18.31942,6.88335 a 174.54846,174.54846 0 0 0 -16.78979,8.45352 c 5.40054,-3.14177 11.04144,-5.89482 16.78979,-8.45352 z m 186.36643,28.80321 c 3.27943,2.9023 6.44076,5.91817 9.49314,9.05639 a 174.54846,174.54846 0 0 0 -9.49314,-9.05639 z m 13.62401,13.36195 c 4.12203,4.53672 8.08373,9.22031 11.71514,14.17365 a 174.54846,174.54846 0 0 0 -11.71514,-14.17365 z m -278.79656,27.395 a 174.54846,174.54846 0 0 0 -9.60817,18.71993 c 2.87812,-6.432 6.0025,-12.72824 9.60817,-18.71993 z m 303.3325,7.39253 c 1.3553,2.51944 2.45885,5.16291 3.69203,7.75469 a 174.54846,174.54846 0 0 0 -3.69203,-7.75469 z M 137.37211,644.61101 A 174.54846,174.54846 0 0 0 131.9289,659.95 c 1.58501,-5.22445 3.39409,-10.33456 5.44321,-15.33899 z m 325.05208,6.03549 c 1.11289,3.03447 2.09999,6.09895 3.04649,9.20976 a 174.54846,174.54846 0 0 0 -3.04649,-9.20976 z m -332.09523,14.61248 a 174.54846,174.54846 0 0 0 -4.37587,20.75025 c 0.99872,-7.08083 2.55396,-13.96905 4.37587,-20.75025 z m 339.10219,10.36872 c 0.6943,3.39939 1.51756,6.73864 2.01113,10.20684 a 174.54846,174.54846 0 0 0 -2.01113,-10.20684 z m 2.50326,14.05221 c 0.77306,6.45698 1.32374,12.98215 1.37193,19.63605 a 174.54846,174.54846 0 0 0 -1.37193,-19.63605 z m 1.3762,20.92494 c -4e-5,7.10064 -0.54996,14.06336 -1.37412,20.94195 a 174.54846,174.54846 0 0 0 1.37412,-20.94195 z m -2.173,26.17637 c -0.82284,5.45593 -1.88209,10.81935 -3.19778,16.09742 a 174.54846,174.54846 0 0 0 3.19778,-16.09742 z m -341.31569,17.69737 a 174.54846,174.54846 0 0 0 6.84502,20.78003 c -2.68905,-6.73576 -5.00149,-13.6611 -6.84502,-20.78003 z m 336.85455,3.30852 c -1.84343,6.57064 -3.96295,13.0201 -6.53182,19.25254 a 174.54846,174.54846 0 0 0 6.53182,-19.25254 z m -329.85188,17.9466 a 174.54846,174.54846 0 0 0 9.28222,19.38251 c -3.46416,-6.24419 -6.59161,-12.69861 -9.28222,-19.38251 z m 323.1795,1.69156 c -2.73305,6.58659 -5.91413,12.92323 -9.40154,19.07362 a 174.54846,174.54846 0 0 0 9.40154,-19.07362 z m -313.49038,18.53246 a 174.54846,174.54846 0 0 0 12.17745,18.78599 c -4.44993,-5.97585 -8.50881,-12.25572 -12.17745,-18.78599 z m 301.75177,4.38868 c -2.85143,4.73888 -5.90937,9.32209 -9.18421,13.75396 a 174.54846,174.54846 0 0 0 9.18421,-13.75396 z m -12.45653,18.13194 c -8.51822,10.80582 -18.26349,20.55874 -29.0631,29.08437 a 174.54846,174.54846 0 0 0 29.0631,-29.08437 z m -245.33841,29.00984 a 174.54846,174.54846 0 0 0 17.39908,11.9729 c -6.02265,-3.68595 -11.88719,-7.60615 -17.39908,-11.9729 z m 211.90369,3.34685 c -4.43444,3.28176 -9.02011,6.34586 -13.76247,9.20341 a 174.54846,174.54846 0 0 0 13.76247,-9.20341 z m -191.52842,10.44544 a 174.54846,174.54846 0 0 0 18.62833,9.45899 c -6.42549,-2.78453 -12.63129,-5.95166 -18.62833,-9.45899 z m 173.92695,1.09289 c -6.14902,3.49224 -12.48573,6.67861 -19.07147,9.41643 a 174.54846,174.54846 0 0 0 19.07147,-9.41643 z m -153.0489,9.27583 a 174.54846,174.54846 0 0 0 19.73189,6.91109 c -6.7619,-1.90144 -13.32932,-4.2421 -19.73189,-6.91109 z m 133.65787,0.25776 c -6.25299,2.58516 -12.72449,4.71561 -19.31858,6.57018 a 174.54846,174.54846 0 0 0 19.31858,-6.57018 z M 252.391,878.85003 a 174.54846,174.54846 0 0 0 20.59258,4.2587 c -7.00188,-1.03862 -13.88783,-2.41437 -20.59258,-4.2587 z m 88.77646,0.88834 c -5.26244,1.31577 -10.61101,2.37834 -16.05054,3.20417 a 174.54846,174.54846 0 0 0 16.05054,-3.20417 z m -64.12545,3.91147 a 174.54846,174.54846 0 0 0 20.92492,1.4891 c -7.09833,-0.034 -14.05075,-0.63372 -20.92492,-1.4891 z m 42.77444,0.10432 c -6.87536,0.8279 -13.8317,1.38232 -20.92918,1.38686 a 174.54846,174.54846 0 0 0 20.92918,-1.38686 z"
       id="path14" />
    <path
       id="path15"
       style="baseline-shift:baseline;display:inline;overflow:visible;vector-effect:none;fill:#00b200;fill-opacity:1;stroke-width:4.1226;stroke-linecap:round;stroke-linejoin:round;paint-order:markers stroke fill;enable-background:accumulate;stop-color:#000000"
       d="m 357.36286,464.11816 -117.22387,0.0113 v 15.37731 c 0,20.47963 -16.60503,37.0958 -37.09262,37.08196 -8.76603,0 -17.24155,-3.01258 -23.87981,-8.50246 l -4.89356,-4.88916 -8.32779,-8.32781 -82.915681,82.91785 10.8651,10.85869 c 14.486191,14.49744 14.483571,37.97617 0,52.47209 -6.2171,6.16932 -14.32053,10.04595 -22.89342,10.85873 h -6.92597 -11.7748 v 117.26877 h 15.36881 c 20.4875,0 37.091811,16.60188 37.090491,37.09478 0,8.75429 -3.01075,17.21506 -8.479041,23.83721 l -13.25117,13.25753 39.664031,39.66621 234.6693,-406.45837 z m 74.2151,30.73973 -8.13392,8.13815 -33.81181,58.56295 c 1.83855,1.12267 3.65468,2.27781 5.44747,3.4662 1.95884,1.29842 3.87909,2.64677 5.76916,4.03499 l 38.4071,-66.52218 z m -36.49826,70.1673 a 174.54846,174.54846 0 0 0 -5.4496,-3.46193 L 190.25323,906.89473 c 5.37191,-1.96638 11.10768,-2.65153 16.73227,-2.05368 l 193.86123,-335.7766 a 174.54846,174.54846 0 0 0 -5.76703,-4.03926 z M 445.89643,509.1764 216.19527,907.03109 c 4.7654,1.80178 9.23316,4.61878 13.07009,8.44925 1.70171,1.7119 3.2239,3.56814 4.55482,5.53693 l 23.60073,-40.87838 c -1.68726,-0.40245 -3.36404,-0.83063 -5.02991,-1.28886 a 174.54846,174.54846 0 0 0 5.03416,1.28247 L 462.18983,525.46979 Z m 22.93185,22.93387 -230.24662,398.79852 c 2e-4,6.4e-4 -2e-4,0.001 0,0.002 0.79935,2.57008 1.32134,5.22838 1.54242,7.92934 v 6.44882 11.77689 h 117.26647 v -15.5094 c 0.13323,-20.42631 16.65822,-36.94779 37.09902,-36.94779 8.75145,0 17.20723,3.01152 23.84146,8.47483 L 431.57796,926.33893 514.49367,843.4232 503.62,832.54745 c 0,0 -0.13228,0.003 -0.13228,-0.13001 -14.3503,-14.49642 -14.30816,-37.88145 0.13228,-52.3251 6.33173,-6.2888 14.62454,-10.15423 23.37067,-10.86086 h 6.45086 11.78121 V 651.96521 h -15.36881 c -20.48614,0 -37.09175,-16.61514 -37.09055,-37.09474 0,-8.91375 3.155,-17.4952 8.81783,-24.18448 l 4.58676,-4.58252 8.3257,-8.32778 z" />
    <circle
       style="fill:#000000;fill-opacity:1;stroke-width:9.0373;stroke-linecap:round;stroke-linejoin:round;paint-order:markers fill stroke"
       id="circle7"
       cx="298.76154"
       cy="710.59204"
       r="172.13817" />
    <path
       style="fill:#00b200;fill-opacity:1;stroke:none;stroke-width:38.3403;stroke-linecap:round;stroke-linejoin:round;paint-order:markers stroke fill"
       d="m 372.14731,730.68378 c -0.0646,0 -0.12919,0.0227 -0.17881,0.0737 L 253.72287,849.00314 c 14.5322,4.81032 29.73129,7.30197 45.0387,7.38346 52.05939,-0.13833 100.095,-28.02444 126.02926,-73.1644 l -52.4647,-52.46464 c -0.0496,-0.0495 -0.11421,-0.0737 -0.17877,-0.0737 z"
       id="path10" />
    <path
       style="fill:#ffffff;fill-opacity:1;stroke:none;stroke-width:38.3403;stroke-linecap:round;stroke-linejoin:round;paint-order:markers stroke fill"
       d="m 310.81258,661.26588 v 98.58531 l 49.29937,-49.29937 z"
       id="path9" />
    <path
       style="fill:#00b200;fill-opacity:1;stroke:none;stroke-width:38.3403;stroke-linecap:round;stroke-linejoin:round;paint-order:markers stroke fill"
       d="m 231.19457,589.62153 v 241.87623 l 57.1769,-57.17688 V 647.26114 646.861 Z"
       id="path8-7" />
    <path
       style="fill:#00b200;fill-opacity:1;stroke:none;stroke-width:38.3403;stroke-linecap:round;stroke-linejoin:round;paint-order:markers stroke fill"
       d="m 298.76173,564.79748 c -15.28204,0.0801 -30.45642,2.56286 -44.96733,7.35666 l 183.40511,183.40509 c 4.79377,-14.51085 7.27631,-29.6852 7.35663,-44.96715 -1.2e-4,-80.52008 -65.27449,-145.79449 -145.79457,-145.7946 z"
       id="path7-5" />
    <path
       id="circle2"
       style="fill:#00b200;fill-opacity:1;stroke-width:7.65426;stroke-linecap:round;stroke-linejoin:round;paint-order:markers fill stroke"
       d="m 208.75379,595.8977 c -35.21901,27.63844 -55.78739,69.92538 -55.78734,114.69438 -5e-5,44.76895 20.56833,87.05593 55.78734,114.69433 z"
       sodipodi:nodetypes="cccc" />
  </g>
  <path
     style="font-weight:300;font-size:40px;line-height:1.25;font-family:Roboto;-inkscape-font-specification:'Roboto Light';text-align:center;baseline-shift:baseline;text-anchor:middle;white-space:pre;display:inline;overflow:visible;vector-effect:none;fill:#000000;stroke-linecap:round;stroke-linejoin:bevel;enable-background:accumulate;stop-color:#000000"
     d="m 450.62641,275.14613 q 1.19664,0 2.24969,-0.46271 1.06901,-0.4627 1.75508,-1.35619 0.70204,-0.8935 0.79776,-2.20183 h 1.83486 q -0.0798,1.64339 -1.00518,2.91981 -0.9254,1.27642 -2.40925,2.01036 -1.46788,0.73395 -3.22296,0.73395 -1.8189,0 -3.207,-0.65417 -1.37216,-0.67012 -2.29756,-1.83486 -0.92541,-1.18068 -1.40406,-2.7443 -0.46271,-1.56362 -0.46271,-3.38252 v -0.67011 q 0,-1.8189 0.46271,-3.38252 0.47865,-1.57957 1.40406,-2.7443 0.9254,-1.18069 2.29756,-1.83486 1.37214,-0.65417 3.19105,-0.65417 1.8508,0 3.31869,0.7499 1.46788,0.7499 2.36138,2.12205 0.89349,1.37216 0.97327,3.25487 h -1.83486 q -0.0797,-1.3881 -0.73394,-2.39328 -0.65416,-1.00518 -1.72317,-1.54766 -1.069,-0.54249 -2.36137,-0.54249 -1.46789,0 -2.52094,0.5744 -1.03709,0.55843 -1.69125,1.54766 -0.63821,0.97327 -0.94137,2.23373 -0.28719,1.24451 -0.28719,2.61667 v 0.67011 q 0,1.37216 0.28719,2.63263 0.30316,1.24451 0.94137,2.23373 0.65416,0.97327 1.69125,1.54766 1.05305,0.55844 2.53689,0.55844 z m 12.36533,-13.08332 v 14.4076 h -1.89868 v -17.26359 h 1.86676 z m 6.12682,-2.98363 -0.0638,1.75508 q -0.30315,-0.0479 -0.6063,-0.0798 -0.30315,-0.0319 -0.67012,-0.0319 -1.22855,0 -2.16992,0.46269 -0.94135,0.44675 -1.57956,1.26047 -0.62226,0.79777 -0.95732,1.86677 -0.33506,1.069 -0.38293,2.31351 l -0.70203,0.25528 q 0,-1.69125 0.35102,-3.14319 0.35101,-1.45192 1.069,-2.53687 0.71799,-1.10092 1.8189,-1.70722 1.11687,-0.6063 2.63262,-0.6063 0.35102,0 0.70203,0.0638 0.36697,0.0479 0.55843,0.12764 z m 9.36573,17.71034 q -1.69125,0 -3.11127,-0.62226 -1.42002,-0.62225 -2.45711,-1.75508 -1.0371,-1.13282 -1.61148,-2.68048 -0.57439,-1.56362 -0.57439,-3.41443 v -0.68607 q 0,-1.99441 0.59034,-3.60589 0.60631,-1.61148 1.62744,-2.76026 1.03709,-1.16474 2.36138,-1.77104 1.34024,-0.6063 2.82408,-0.6063 1.64339,0 2.90386,0.59035 1.27642,0.57439 2.15396,1.64339 0.87754,1.05305 1.32428,2.50498 0.44675,1.43597 0.44675,3.17509 v 1.16474 h -13.06736 v -1.64339 h 11.15273 v -0.20742 q -0.0319,-1.45193 -0.59035,-2.7124 -0.54247,-1.27642 -1.62744,-2.07418 -1.06899,-0.79777 -2.69643,-0.79777 -1.22855,0 -2.23374,0.51057 -1.00518,0.51057 -1.73912,1.46789 -0.71798,0.94136 -1.11687,2.24969 -0.39888,1.29238 -0.39888,2.87195 v 0.68607 q 0,1.42002 0.43079,2.66453 0.43079,1.24451 1.2126,2.18587 0.78181,0.92541 1.86677,1.46789 1.08495,0.52652 2.40924,0.52652 1.51575,0 2.69644,-0.55843 1.19664,-0.57439 2.13801,-1.80295 l 1.19664,0.92541 q -0.57439,0.82967 -1.40406,1.5317 -0.82968,0.68608 -1.99441,1.11687 -1.16474,0.41484 -2.7124,0.41484 z m 20.70993,-3.41443 v -8.90304 q 0,-1.22855 -0.51057,-2.12204 -0.51057,-0.8935 -1.49979,-1.37215 -0.98922,-0.47866 -2.44116,-0.47866 -1.34024,0 -2.39328,0.47866 -1.03709,0.46269 -1.64339,1.26046 -0.59035,0.78181 -0.59035,1.73912 l -1.89868,-0.0159 q 0,-0.97327 0.46271,-1.88272 0.47866,-0.90945 1.3562,-1.62743 0.87753,-0.71799 2.09013,-1.13283 1.22856,-0.43079 2.7124,-0.43079 1.83486,0 3.23892,0.62225 1.42002,0.62226 2.21778,1.86677 0.81371,1.24451 0.81371,3.12723 v 8.3446 q 0,0.8935 0.12764,1.85081 0.1436,0.95732 0.39888,1.56362 v 0.20741 h -2.04227 q -0.19146,-0.57438 -0.30315,-1.43597 -0.0957,-0.87754 -0.0957,-1.65934 z m 0.44675,-6.9565 0.0319,1.46789 h -3.73353 q -1.46788,0 -2.63262,0.27124 -1.14878,0.25528 -1.94654,0.7499 -0.79776,0.49461 -1.22855,1.21259 -0.41484,0.70204 -0.41484,1.59553 0,0.92541 0.46271,1.69126 0.46269,0.76585 1.34023,1.2126 0.87754,0.44675 2.07419,0.44675 1.57957,0 2.79217,-0.57439 1.22856,-0.59035 2.02632,-1.54766 0.79776,-0.95732 1.069,-2.09014 l 0.82967,1.10091 q -0.20742,0.78181 -0.76585,1.62744 -0.54248,0.84563 -1.42002,1.57957 -0.86158,0.71799 -2.05822,1.18069 -1.18069,0.44675 -2.69644,0.44675 -1.6753,0 -2.93577,-0.63821 -1.26047,-0.65417 -1.94655,-1.75508 -0.68607,-1.11687 -0.68607,-2.52094 0,-1.26046 0.54248,-2.26564 0.54248,-1.02114 1.56362,-1.72317 1.02113,-0.71799 2.47306,-1.08496 1.46788,-0.38293 3.28679,-0.38293 z m 17.79011,6.70122 v -21.15668 h 1.91464 v 24.50728 h -1.78699 z m -11.9824,-5.10569 v -0.33506 q 0,-2.01036 0.46271,-3.62184 0.4627,-1.62744 1.32428,-2.77622 0.87754,-1.16473 2.1061,-1.77103 1.22855,-0.62226 2.77622,-0.62226 1.51574,0 2.68048,0.49461 1.16473,0.49462 1.9944,1.42002 0.84564,0.92541 1.3562,2.20183 0.52653,1.27642 0.76586,2.84004 v 4.26005 q -0.19147,1.45193 -0.70204,2.68048 -0.51057,1.22856 -1.35619,2.12206 -0.84563,0.89349 -2.04227,1.3881 -1.1807,0.49462 -2.72836,0.49462 -1.5317,0 -2.76025,-0.63821 -1.22856,-0.65417 -2.09015,-1.81891 -0.86158,-1.18068 -1.32428,-2.77621 -0.46271,-1.61148 -0.46271,-3.54207 z m 1.93059,-0.33506 v 0.33506 q 0,1.4998 0.30315,2.79218 0.30315,1.29237 0.92541,2.26564 0.62225,0.95732 1.57956,1.49979 0.95732,0.52653 2.2497,0.52653 1.64339,0 2.76026,-0.62225 1.11686,-0.63821 1.78699,-1.67531 0.67012,-1.05305 0.97327,-2.29756 v -4.94612 q -0.19146,-0.84564 -0.55843,-1.72318 -0.36698,-0.87754 -1.00519,-1.61147 -0.62225,-0.7499 -1.59552,-1.19665 -0.95732,-0.4627 -2.32947,-0.4627 -1.30833,0 -2.28161,0.54248 -0.95731,0.54247 -1.57956,1.51575 -0.62226,0.95731 -0.92541,2.24968 -0.30315,1.29238 -0.30315,2.80813 z m 15.9393,0.41484 v -0.51057 q 0,-1.88272 0.54249,-3.47825 0.55843,-1.59552 1.56361,-2.76025 1.00518,-1.16474 2.4252,-1.80295 1.42002,-0.65417 3.15915,-0.65417 1.75507,0 3.17509,0.65417 1.43597,0.63821 2.44116,1.80295 1.02113,1.16473 1.56361,2.76025 0.54248,1.59553 0.54248,3.47825 v 0.51057 q 0,1.88272 -0.54248,3.47825 -0.54248,1.57957 -1.56361,2.76025 -1.00519,1.16474 -2.4252,1.81891 -1.40407,0.63821 -3.15915,0.63821 -1.75508,0 -3.17509,-0.63821 -1.42002,-0.65417 -2.44116,-1.81891 -1.00518,-1.18068 -1.56361,-2.76025 -0.54249,-1.59553 -0.54249,-3.47825 z m 1.91464,-0.51057 v 0.51057 q 0,1.42002 0.36697,2.69644 0.38292,1.26047 1.11687,2.24969 0.7499,0.97327 1.83485,1.54766 1.08496,0.55844 2.48902,0.55844 1.40407,0 2.47307,-0.55844 1.08496,-0.57439 1.81889,-1.54766 0.73395,-0.98922 1.10092,-2.24969 0.38293,-1.27642 0.38293,-2.69644 v -0.51057 q 0,-1.40406 -0.38293,-2.66452 -0.36697,-1.26047 -1.11687,-2.2497 -0.73394,-0.98923 -1.8189,-1.56361 -1.08495,-0.5744 -2.48901,-0.5744 -1.38811,0 -2.47308,0.5744 -1.06899,0.57438 -1.81889,1.56361 -0.73395,0.98923 -1.11687,2.2497 -0.36697,1.26046 -0.36697,2.66452 z m 27.29945,-5.05782 v 20.58229 h -1.91463 v -23.90098 h 1.78698 z m 11.99835,5.15355 v 0.33506 q 0,1.93059 -0.44674,3.54207 -0.4308,1.59553 -1.27642,2.77621 -0.84563,1.16474 -2.07419,1.81891 -1.2126,0.63821 -2.79217,0.63821 -1.54766,0 -2.76026,-0.47866 -1.2126,-0.47866 -2.07418,-1.3562 -0.86159,-0.8935 -1.38811,-2.09014 -0.52652,-1.19664 -0.71799,-2.61666 v -4.40365 q 0.23933,-1.56362 0.78181,-2.84004 0.54248,-1.27642 1.38811,-2.20183 0.84563,-0.9254 2.02632,-1.42002 1.19664,-0.49461 2.71239,-0.49461 1.57957,0 2.80812,0.62226 1.24452,0.6063 2.09015,1.77103 0.84562,1.14878 1.27642,2.77622 0.44674,1.61148 0.44674,3.62184 z m -1.91463,0.33506 v -0.33506 q 0,-1.51575 -0.3191,-2.80813 -0.30316,-1.29237 -0.94137,-2.24968 -0.62225,-0.97328 -1.59552,-1.51575 -0.95732,-0.54248 -2.2816,-0.54248 -1.37216,0 -2.34542,0.4627 -0.95732,0.44675 -1.59553,1.19665 -0.62226,0.73393 -0.98923,1.61147 -0.36697,0.87754 -0.54248,1.72318 v 5.08972 q 0.30315,1.2126 0.97328,2.23374 0.67012,1.02113 1.78699,1.64339 1.11686,0.62226 2.7443,0.62226 1.30833,0 2.26565,-0.54248 0.95731,-0.55844 1.57956,-1.51575 0.63821,-0.97328 0.94137,-2.26565 0.3191,-1.30833 0.3191,-2.80813 z m 5.10568,0.0798 v -0.51057 q 0,-1.88273 0.54248,-3.47826 0.55844,-1.59552 1.56362,-2.76025 1.00518,-1.16473 2.4252,-1.80294 1.42002,-0.65418 3.15914,-0.65418 1.75508,0 3.1751,0.65418 1.43597,0.63821 2.44115,1.80294 1.02114,1.16473 1.56362,2.76025 0.54248,1.59553 0.54248,3.47826 v 0.51057 q 0,1.88271 -0.54248,3.47824 -0.54248,1.57957 -1.56362,2.76026 -1.00518,1.16474 -2.4252,1.8189 -1.40406,0.63821 -3.15914,0.63821 -1.75508,0 -3.17509,-0.63821 -1.42002,-0.65416 -2.44116,-1.8189 -1.00518,-1.18069 -1.56362,-2.76026 -0.54248,-1.59553 -0.54248,-3.47824 z m 1.91464,-0.51057 v 0.51057 q 0,1.42001 0.36697,2.69643 0.38292,1.26047 1.11687,2.24969 0.7499,0.97327 1.83485,1.54766 1.08496,0.55844 2.48902,0.55844 1.40407,0 2.47307,-0.55844 1.08496,-0.57439 1.81889,-1.54766 0.73395,-0.98922 1.10092,-2.24969 0.38293,-1.27642 0.38293,-2.69643 v -0.51057 q 0,-1.40407 -0.38293,-2.66453 -0.36697,-1.26047 -1.11687,-2.2497 -0.73394,-0.98922 -1.8189,-1.56361 -1.08496,-0.57439 -2.48902,-0.57439 -1.3881,0 -2.47306,0.57439 -1.069,0.57439 -1.8189,1.56361 -0.73395,0.98923 -1.11687,2.2497 -0.36697,1.26046 -0.36697,2.66453 z m 19.35373,-5.52053 v 14.4076 h -1.89868 v -17.26359 h 1.86677 z m 6.12682,-2.98363 -0.0638,1.75508 q -0.30315,-0.0479 -0.6063,-0.0798 -0.30315,-0.0319 -0.67012,-0.0319 -1.22855,0 -2.16992,0.4627 -0.94136,0.44675 -1.57957,1.26046 -0.62225,0.79777 -0.95732,1.86677 -0.33505,1.069 -0.38292,2.31351 l -0.70203,0.25529 q 0,-1.69126 0.35102,-3.14319 0.35101,-1.45193 1.069,-2.53688 0.71799,-1.10092 1.8189,-1.70722 1.11687,-0.6063 2.63262,-0.6063 0.35101,0 0.70202,0.0638 0.36698,0.0479 0.55844,0.12764 z m 17.74225,17.39123 h -5.24928 l 0.0319,-1.69125 h 5.21737 q 2.50497,0 4.30792,-1.11687 1.8189,-1.11687 2.80813,-3.11128 0.98922,-2.01036 0.98922,-4.64298 v -2.15395 q 0,-2.01037 -0.57439,-3.63781 -0.55844,-1.62744 -1.61148,-2.77622 -1.05305,-1.16473 -2.52093,-1.78698 -1.45193,-0.62226 -3.25487,-0.62226 h -5.48861 v -1.69126 h 5.48861 q 2.16991,0 3.98881,0.7499 1.8189,0.73395 3.14319,2.13801 1.34024,1.38811 2.05823,3.33465 0.73394,1.94654 0.73394,4.33983 v 2.10609 q 0,2.39329 -0.73394,4.33983 -0.71799,1.94655 -2.05823,3.33466 -1.34025,1.3881 -3.19105,2.13799 -1.83486,0.7499 -4.08455,0.7499 z m -4.3877,-23.23086 v 23.23086 h -1.9625 v -23.23086 z m 29.50128,20.13554 v -8.90303 q 0,-1.22855 -0.51057,-2.12205 -0.51057,-0.89349 -1.49979,-1.37215 -0.98923,-0.47866 -2.44116,-0.47866 -1.34024,0 -2.39329,0.47866 -1.03709,0.4627 -1.64339,1.26046 -0.59035,0.78181 -0.59035,1.73912 l -1.89867,-0.0159 q 0,-0.97326 0.4627,-1.88272 0.47866,-0.90945 1.3562,-1.62743 0.87754,-0.71799 2.09013,-1.13282 1.22856,-0.4308 2.7124,-0.4308 1.83486,0 3.23892,0.62225 1.42002,0.62226 2.21778,1.86677 0.81372,1.24452 0.81372,3.12723 v 8.34461 q 0,0.89349 0.12764,1.8508 0.1436,0.95732 0.39888,1.56362 v 0.20742 h -2.04227 q -0.19147,-0.57439 -0.30315,-1.43597 -0.0957,-0.87754 -0.0957,-1.65935 z m 0.44674,-6.95649 0.0319,1.46788 h -3.73352 q -1.46788,0 -2.63263,0.27124 -1.14877,0.25529 -1.94654,0.7499 -0.79776,0.49462 -1.22855,1.2126 -0.41484,0.70203 -0.41484,1.59553 0,0.9254 0.46271,1.69125 0.4627,0.76585 1.34024,1.21261 0.87754,0.44674 2.07419,0.44674 1.57956,0 2.79217,-0.57439 1.22855,-0.59034 2.02631,-1.54766 0.79777,-0.95731 1.06901,-2.09014 l 0.82966,1.10092 q -0.20741,0.7818 -0.76585,1.62744 -0.54247,0.84562 -1.42001,1.57956 -0.86159,0.71799 -2.05823,1.18069 -1.18069,0.44675 -2.69644,0.44675 -1.6753,0 -2.93577,-0.63821 -1.26046,-0.65416 -1.94654,-1.75508 -0.68608,-1.11687 -0.68608,-2.52093 0,-1.26047 0.54249,-2.26565 0.54247,-1.02114 1.56361,-1.72317 1.02114,-0.71799 2.47306,-1.08496 1.46789,-0.38292 3.28679,-0.38292 z m 8.47224,-3.52611 v 13.57792 h -1.89867 v -17.26359 h 1.8189 z m -0.41483,3.87712 -0.84563,-0.47866 q 0.0797,-1.5317 0.6063,-2.87194 0.52652,-1.34024 1.42002,-2.36138 0.90945,-1.02114 2.138,-1.59552 1.22856,-0.5744 2.71239,-0.5744 1.29239,0 2.31352,0.35102 1.02114,0.35102 1.72317,1.11687 0.71799,0.7499 1.08496,1.9625 0.38293,1.19665 0.38293,2.90385 v 11.24846 h -1.91463 v -11.26441 q 0,-1.77103 -0.49462,-2.77622 -0.49461,-1.02113 -1.40406,-1.45192 -0.90945,-0.4308 -2.15396,-0.4308 -1.37216,0 -2.40925,0.6063 -1.02113,0.59035 -1.72317,1.54766 -0.68607,0.94137 -1.05305,2.02632 -0.36697,1.06901 -0.38292,2.04227 z m 23.02344,-7.56279 v 1.56362 h -8.6637 v -1.56362 z m -5.48861,-4.43556 h 1.91464 v 17.48696 q 0,1.19665 0.30314,1.8189 0.3191,0.6063 0.82967,0.81372 0.52653,0.19146 1.11687,0.19146 0.4308,0 0.81373,-0.0479 0.39888,-0.0638 0.73393,-0.11168 l 0.0798,1.61148 q -0.35101,0.11169 -0.9254,0.1755 -0.55844,0.0798 -1.11687,0.0798 -1.10092,0 -1.94654,-0.41485 -0.84563,-0.41483 -1.32429,-1.40406 -0.47865,-0.98922 -0.47865,-2.71239 z m 16.14672,22.01826 q -1.69125,0 -3.11127,-0.62225 -1.42002,-0.62226 -2.45711,-1.75509 -1.0371,-1.13282 -1.61148,-2.68048 -0.57439,-1.56361 -0.57439,-3.41443 v -0.68607 q 0,-1.99441 0.59034,-3.60589 0.60631,-1.61148 1.62744,-2.76026 1.03709,-1.16473 2.36138,-1.77103 1.34024,-0.60631 2.82408,-0.60631 1.64339,0 2.90386,0.59035 1.27642,0.57439 2.15396,1.64339 0.87754,1.05305 1.32428,2.50498 0.44675,1.43597 0.44675,3.17509 v 1.16474 h -13.06736 v -1.64339 h 11.15273 v -0.20742 q -0.0319,-1.45193 -0.59035,-2.71239 -0.54247,-1.27642 -1.62744,-2.07418 -1.069,-0.79777 -2.69643,-0.79777 -1.22855,0 -2.23374,0.51056 -1.00518,0.51057 -1.73912,1.46789 -0.71798,0.94136 -1.11687,2.24969 -0.39888,1.29238 -0.39888,2.87195 v 0.68607 q 0,1.42002 0.43079,2.66453 0.43079,1.24452 1.2126,2.18587 0.78181,0.92541 1.86677,1.46789 1.08495,0.52652 2.40924,0.52652 1.51575,0 2.69644,-0.55843 1.19664,-0.57439 2.13801,-1.80295 l 1.19664,0.92541 q -0.57439,0.82967 -1.40406,1.53171 -0.82968,0.68607 -1.99441,1.11686 -1.16474,0.41484 -2.7124,0.41484 z m 32.05412,-2.01036 v 1.69125 h -12.04622 v -1.69125 z m -11.45588,-21.53961 v 23.23086 h -1.97845 v -23.23086 z m 21.49174,23.54997 q -1.69125,0 -3.11128,-0.62225 -1.42002,-0.62226 -2.45711,-1.75509 -1.03709,-1.13282 -1.61147,-2.68048 -0.5744,-1.56361 -0.5744,-3.41443 v -0.68607 q 0,-1.99441 0.59035,-3.60589 0.6063,-1.61148 1.62743,-2.76026 1.0371,-1.16473 2.36138,-1.77103 1.34024,-0.60631 2.82408,-0.60631 1.6434,0 2.90386,0.59035 1.27642,0.57439 2.15397,1.64339 0.87754,1.05305 1.32428,2.50498 0.44675,1.43597 0.44675,3.17509 v 1.16474 h -13.06736 v -1.64339 h 11.15273 v -0.20742 q -0.0319,-1.45193 -0.59035,-2.71239 -0.54248,-1.27642 -1.62744,-2.07418 -1.069,-0.79777 -2.69644,-0.79777 -1.22855,0 -2.23373,0.51056 -1.00518,0.51057 -1.73912,1.46789 -0.71799,0.94136 -1.11687,2.24969 -0.39888,1.29238 -0.39888,2.87195 v 0.68607 q 0,1.42002 0.43078,2.66453 0.4308,1.24452 1.21261,2.18587 0.7818,0.92541 1.86677,1.46789 1.08495,0.52652 2.40923,0.52652 1.51575,0 2.69645,-0.55843 1.19664,-0.57439 2.138,-1.80295 l 1.19665,0.92541 q -0.5744,0.82967 -1.40406,1.53171 -0.82968,0.68607 -1.99442,1.11686 -1.16473,0.41484 -2.71239,0.41484 z m 9.15832,-8.69561 v -0.51057 q 0,-1.88273 0.54248,-3.47826 0.55843,-1.59552 1.56361,-2.76025 1.00519,-1.16473 2.4252,-1.80294 1.42002,-0.65418 3.15915,-0.65418 1.75508,0 3.1751,0.65418 1.43597,0.63821 2.44115,1.80294 1.02114,1.16473 1.56361,2.76025 0.54248,1.59553 0.54248,3.47826 v 0.51057 q 0,1.88271 -0.54248,3.47824 -0.54247,1.57957 -1.56361,2.76026 -1.00518,1.16474 -2.4252,1.8189 -1.40406,0.63821 -3.15914,0.63821 -1.75508,0 -3.1751,-0.63821 -1.42002,-0.65416 -2.44116,-1.8189 -1.00518,-1.18069 -1.56361,-2.76026 -0.54248,-1.59553 -0.54248,-3.47824 z m 1.91464,-0.51057 v 0.51057 q 0,1.42001 0.36696,2.69643 0.38293,1.26047 1.11687,2.24969 0.7499,0.97327 1.83486,1.54766 1.08495,0.55844 2.48902,0.55844 1.40406,0 2.47306,-0.55844 1.08496,-0.57439 1.8189,-1.54766 0.73394,-0.98922 1.10091,-2.24969 0.38293,-1.27642 0.38293,-2.69643 v -0.51057 q 0,-1.40407 -0.38293,-2.66453 -0.36697,-1.26047 -1.11686,-2.2497 -0.73394,-0.98922 -1.81891,-1.56361 -1.08495,-0.57439 -2.48901,-0.57439 -1.38811,0 -2.47307,0.57439 -1.069,0.57439 -1.8189,1.56361 -0.73394,0.98923 -1.11687,2.2497 -0.36696,1.26046 -0.36696,2.66453 z m 19.35372,-4.69085 v 13.57792 h -1.89868 v -17.26359 h 1.81891 z m -0.41483,3.87712 -0.84564,-0.47866 q 0.0798,-1.5317 0.60631,-2.87194 0.52652,-1.34024 1.42001,-2.36138 0.90945,-1.02114 2.13801,-1.59552 1.22856,-0.5744 2.71239,-0.5744 1.29238,0 2.31351,0.35102 1.02114,0.35102 1.72318,1.11687 0.71798,0.7499 1.08495,1.9625 0.38293,1.19665 0.38293,2.90385 v 11.24846 h -1.91464 v -11.26441 q 0,-1.77103 -0.49461,-2.77622 -0.49461,-1.02113 -1.40406,-1.45192 -0.90945,-0.4308 -2.15396,-0.4308 -1.37215,0 -2.40924,0.6063 -1.02114,0.59035 -1.72317,1.54766 -0.68608,0.94137 -1.05305,2.02632 -0.36697,1.06901 -0.38292,2.04227 z m 22.86388,8.37652 q 1.19664,0 2.2497,-0.46271 1.069,-0.46269 1.75507,-1.35619 0.70204,-0.89349 0.79777,-2.20183 h 1.83485 q -0.0798,1.64339 -1.00518,2.91981 -0.9254,1.27642 -2.40925,2.01037 -1.46788,0.73394 -3.22296,0.73394 -1.81889,0 -3.207,-0.65416 -1.37216,-0.67013 -2.29756,-1.83486 -0.9254,-1.18069 -1.40406,-2.7443 -0.46271,-1.56363 -0.46271,-3.38252 v -0.67012 q 0,-1.8189 0.46271,-3.38252 0.47866,-1.57957 1.40406,-2.7443 0.9254,-1.18069 2.29756,-1.83485 1.37215,-0.65418 3.19105,-0.65418 1.8508,0 3.31869,0.7499 1.46788,0.7499 2.36138,2.12205 0.89349,1.37216 0.97327,3.25487 h -1.83485 q -0.0798,-1.3881 -0.73394,-2.39328 -0.65417,-1.00518 -1.72318,-1.54766 -1.069,-0.54248 -2.36137,-0.54248 -1.46789,0 -2.52093,0.57439 -1.0371,0.55843 -1.69126,1.54766 -0.63821,0.97327 -0.94136,2.23373 -0.2872,1.24451 -0.2872,2.61667 v 0.67012 q 0,1.37215 0.2872,2.63262 0.30315,1.24451 0.94136,2.23373 0.65416,0.97327 1.69126,1.54766 1.05304,0.55844 2.53688,0.55844 z m 12.60466,-15.93931 v 17.26359 h -1.91463 v -17.26359 z m -2.24969,-4.99399 q 0,-0.54248 0.33506,-0.90945 0.35102,-0.38293 0.97327,-0.38293 0.6063,0 0.95731,0.38293 0.36698,0.36697 0.36698,0.90945 0,0.52652 -0.36698,0.90945 -0.35101,0.36697 -0.95731,0.36697 -0.62225,0 -0.97327,-0.36697 -0.33506,-0.38293 -0.33506,-0.90945 z m 9.34978,8.67966 v 13.57792 h -1.89867 v -17.26359 h 1.8189 z m -0.41484,3.87712 -0.84562,-0.47866 q 0.0798,-1.5317 0.60629,-2.87194 0.52652,-1.34024 1.42002,-2.36138 0.90946,-1.02114 2.13801,-1.59552 1.22855,-0.5744 2.71239,-0.5744 1.29238,0 2.31352,0.35102 1.02113,0.35102 1.72316,1.11687 0.71799,0.7499 1.08496,1.9625 0.38293,1.19665 0.38293,2.90385 v 11.24846 h -1.91463 v -11.26441 q 0,-1.77103 -0.49462,-2.77622 -0.49461,-1.02113 -1.40406,-1.45192 -0.90945,-0.4308 -2.15396,-0.4308 -1.37215,0 -2.40924,0.6063 -1.02114,0.59035 -1.72318,1.54766 -0.68607,0.94137 -1.05304,2.02632 -0.36697,1.06901 -0.38293,2.04227 z m 18.61979,-7.56279 v 17.26359 h -1.91463 v -17.26359 z m -2.24969,-4.99399 q 0,-0.54248 0.33506,-0.90945 0.35102,-0.38293 0.97327,-0.38293 0.6063,0 0.95732,0.38293 0.36697,0.36697 0.36697,0.90945 0,0.52652 -0.36697,0.90945 -0.35102,0.36697 -0.95732,0.36697 -0.62225,0 -0.97327,-0.36697 -0.33506,-0.38293 -0.33506,-0.90945 z"
     id="path2" />
</svg>
