<?xml version="1.0" encoding="UTF-8" standalone="no"?>
<svg
   inkscape:export-ydpi="13.5"
   inkscape:export-xdpi="13.5"
   inkscape:export-filename="ic_launcher_72.png"
   sodipodi:docname="Whisk3D.svg"
   inkscape:version="1.4.2 (1:1.4.2+202505120738+ebf0e940d0)"
   id="svg8"
   version="1.1"
   viewBox="0 0 135.46666 135.46667"
   height="512"
   width="512"
   xml:space="preserve"
   xmlns:inkscape="http://www.inkscape.org/namespaces/inkscape"
   xmlns:sodipodi="http://sodipodi.sourceforge.net/DTD/sodipodi-0.dtd"
   xmlns:xlink="http://www.w3.org/1999/xlink"
   xmlns="http://www.w3.org/2000/svg"
   xmlns:svg="http://www.w3.org/2000/svg"
   xmlns:rdf="http://www.w3.org/1999/02/22-rdf-syntax-ns#"
   xmlns:cc="http://creativecommons.org/ns#"
   xmlns:dc="http://purl.org/dc/elements/1.1/"><defs
     id="defs2"><rect
       x="-1297.9591"
       y="6733.8857"
       width="314.3725"
       height="63.781132"
       id="rect2071" /><rect
       id="rect3091"
       height="57.144775"
       width="524.61249"
       y="5852.4351"
       x="1347.2854" /><rect
       id="rect2519"
       height="127.49283"
       width="432.43927"
       y="4778.8408"
       x="1925.2828" /><linearGradient
       inkscape:collect="always"
       id="linearGradient2513"><stop
         style="stop-color:#930000;stop-opacity:1"
         offset="0"
         id="stop2509" /><stop
         style="stop-color:#b20000;stop-opacity:1"
         offset="1"
         id="stop2511" /></linearGradient><inkscape:perspective
       id="perspective1199"
       inkscape:persp3d-origin="142.875 : -55.033336 : 1"
       inkscape:vp_z="285.74999 : -7.4083369 : 1"
       inkscape:vp_y="0 : 999.99998 : 0"
       inkscape:vp_x="0 : -7.4083369 : 1"
       sodipodi:type="inkscape:persp3d" /><linearGradient
       gradientUnits="userSpaceOnUse"
       y2="4707.3071"
       x2="1595.5963"
       y1="4927.5786"
       x1="1595.5963"
       id="linearGradient2507"
       xlink:href="#linearGradient2513"
       inkscape:collect="always" /><rect
       x="1925.2828"
       y="4778.8408"
       width="432.43927"
       height="127.49283"
       id="rect2563" /><rect
       x="1925.2828"
       y="4778.8408"
       width="432.43927"
       height="127.49283"
       id="rect2569" /><rect
       x="1925.2828"
       y="4778.8408"
       width="432.43927"
       height="127.49283"
       id="rect2643" /><rect
       id="rect2645"
       height="127.49283"
       width="432.43927"
       y="4778.8408"
       x="1925.2828" /><rect
       id="rect2693"
       height="127.49283"
       width="432.43927"
       y="4778.8408"
       x="1925.2828" /><rect
       x="1925.2828"
       y="4778.8408"
       width="432.43927"
       height="127.49283"
       id="rect2695" /><rect
       x="1925.2828"
       y="4778.8408"
       width="432.43927"
       height="127.49283"
       id="rect2896" /><rect
       id="rect2898"
       height="127.49283"
       width="432.43927"
       y="4778.8408"
       x="1925.2828" /><rect
       id="rect2970"
       height="127.49283"
       width="432.43927"
       y="4778.8408"
       x="1925.2828" /><rect
       x="1925.2828"
       y="4778.8408"
       width="432.43927"
       height="127.49283"
       id="rect2972" /><rect
       id="rect3053"
       height="127.49283"
       width="432.43927"
       y="4778.8408"
       x="1925.2828" /><rect
       x="1925.2828"
       y="4778.8408"
       width="432.43927"
       height="127.49283"
       id="rect3055" /><rect
       x="1347.2854"
       y="5852.4351"
       width="524.61249"
       height="57.144775"
       id="rect3103" /><rect
       x="1925.2828"
       y="4778.8408"
       width="432.43927"
       height="127.49283"
       id="rect3161" /><rect
       id="rect3163"
       height="127.49283"
       width="432.43927"
       y="4778.8408"
       x="1925.2828" /><rect
       x="1347.2854"
       y="5852.4351"
       width="524.61249"
       height="57.144775"
       id="rect3165" /><rect
       id="rect3167"
       height="57.144775"
       width="524.61249"
       y="5852.4351"
       x="1347.2854" /><rect
       x="1925.2828"
       y="4778.8408"
       width="432.43927"
       height="127.49283"
       id="rect3335" /><rect
       id="rect3337"
       height="127.49283"
       width="432.43927"
       y="4778.8408"
       x="1925.2828" /><rect
       id="rect3339"
       height="57.144775"
       width="524.61249"
       y="5852.4351"
       x="1347.2854" /><rect
       x="1925.2828"
       y="4778.8408"
       width="432.43927"
       height="127.49283"
       id="rect3393" /><rect
       id="rect3395"
       height="127.49283"
       width="432.43927"
       y="4778.8408"
       x="1925.2828" /><rect
       id="rect3397"
       height="57.144775"
       width="524.61249"
       y="5852.4351"
       x="1347.2854" /><rect
       id="rect3587"
       height="127.49283"
       width="432.43927"
       y="4778.8408"
       x="1925.2828" /><rect
       x="1925.2828"
       y="4778.8408"
       width="432.43927"
       height="127.49283"
       id="rect3589" /><rect
       x="1925.2828"
       y="4778.8408"
       width="432.43927"
       height="127.49283"
       id="rect4185" /><rect
       x="1925.2828"
       y="4778.8408"
       width="432.43927"
       height="127.49283"
       id="rect4329" /><rect
       id="rect4407"
       height="127.49283"
       width="432.43927"
       y="4778.8408"
       x="1925.2828" /><rect
       x="1925.2828"
       y="4778.8408"
       width="432.43927"
       height="127.49283"
       id="rect1568" /><rect
       id="rect728"
       height="127.49283"
       width="432.43927"
       y="4778.8408"
       x="1925.2828" /><rect
       id="rect728-3"
       height="127.49283"
       width="432.43927"
       y="4778.8408"
       x="1925.2828" /><rect
       id="rect799"
       height="127.49283"
       width="432.43927"
       y="4778.8408"
       x="1925.2828" /><rect
       id="rect1583"
       height="127.49283"
       width="432.43927"
       y="4778.8408"
       x="1925.2828" /><rect
       id="rect1583-3"
       height="127.49283"
       width="432.43927"
       y="4778.8408"
       x="1925.2828" /><rect
       id="rect1196"
       height="127.49283"
       width="432.43927"
       y="4778.8408"
       x="1925.2828" /><rect
       id="rect1605"
       height="127.49283"
       width="432.43927"
       y="4778.8408"
       x="1925.2828" /><filter
       inkscape:collect="always"
       style="color-interpolation-filters:sRGB"
       id="filter1683"
       x="-0.00012"
       width="1.00024"
       y="-0.00012"
       height="1.00024"><feGaussianBlur
         inkscape:collect="always"
         stdDeviation="0.01191697"
         id="feGaussianBlur1685" /></filter><rect
       id="rect1703"
       height="127.49283"
       width="432.43927"
       y="4778.8408"
       x="1925.2828" /><rect
       id="rect1747"
       height="127.49283"
       width="432.43927"
       y="4778.8408"
       x="1925.2828" /><rect
       id="rect1771"
       height="127.49283"
       width="432.43927"
       y="4778.8408"
       x="1925.2828" /><rect
       id="rect1789"
       height="127.49283"
       width="432.43927"
       y="4778.8408"
       x="1925.2828" /><rect
       id="rect1835"
       height="127.49283"
       width="432.43927"
       y="4778.8408"
       x="1925.2828" /><rect
       x="1925.2828"
       y="4778.8408"
       width="432.43927"
       height="127.49283"
       id="rect1857" /><rect
       id="rect1959"
       height="127.49283"
       width="432.43927"
       y="4778.8408"
       x="1925.2828" /><rect
       id="rect1973"
       height="127.49283"
       width="432.43927"
       y="4778.8408"
       x="1925.2828" /><rect
       id="rect1365"
       height="127.49283"
       width="432.43927"
       y="4778.8408"
       x="1925.2828" /><rect
       id="rect1367"
       height="127.49283"
       width="432.43927"
       y="4778.8408"
       x="1925.2828" /><rect
       id="rect1369"
       height="127.49283"
       width="432.43927"
       y="4778.8408"
       x="1925.2828" /><rect
       id="rect1371"
       height="127.49283"
       width="432.43927"
       y="4778.8408"
       x="1925.2828" /><clipPath
       clipPathUnits="userSpaceOnUse"
       id="clipPath1784"><g
         inkscape:label="Clip"
         id="use1786"><path
           id="path1790"
           style="fill:#000000;stroke-width:6.58812;stroke-linecap:round;stroke-linejoin:round;paint-order:markers stroke fill;filter:url(#filter1683)"
           d="m -2618.4685,6654.3532 a 119.1697,119.1697 0 0 1 -119.1697,119.1697 119.1697,119.1697 0 0 1 -119.1697,-119.1697 119.1697,119.1697 0 0 1 119.1697,-119.1697 119.1697,119.1697 0 0 1 119.1697,119.1697 z" /></g></clipPath><rect
       id="rect3556"
       height="127.49283"
       width="432.43927"
       y="4778.8408"
       x="1925.2828" /><rect
       id="rect3558"
       height="127.49283"
       width="432.43927"
       y="4778.8408"
       x="1925.2828" /><rect
       id="rect3560"
       height="127.49283"
       width="432.43927"
       y="4778.8408"
       x="1925.2828" /><rect
       id="rect3562"
       height="127.49283"
       width="432.43927"
       y="4778.8408"
       x="1925.2828" /><rect
       id="rect3882"
       height="127.49283"
       width="432.43927"
       y="4778.8408"
       x="1925.2828" /><rect
       id="rect3884"
       height="127.49283"
       width="432.43927"
       y="4778.8408"
       x="1925.2828" /><rect
       id="rect3886"
       height="127.49283"
       width="432.43927"
       y="4778.8408"
       x="1925.2828" /><rect
       id="rect3888"
       height="127.49283"
       width="432.43927"
       y="4778.8408"
       x="1925.2828" /><rect
       id="rect4112"
       height="127.49283"
       width="432.43927"
       y="4778.8408"
       x="1925.2828" /><rect
       id="rect4114"
       height="127.49283"
       width="432.43927"
       y="4778.8408"
       x="1925.2828" /><rect
       id="rect4116"
       height="127.49283"
       width="432.43927"
       y="4778.8408"
       x="1925.2828" /><rect
       id="rect4118"
       height="127.49283"
       width="432.43927"
       y="4778.8408"
       x="1925.2828" /><rect
       id="rect4404"
       height="127.49283"
       width="432.43927"
       y="4778.8408"
       x="1925.2828" /><rect
       id="rect4406"
       height="127.49283"
       width="432.43927"
       y="4778.8408"
       x="1925.2828" /><rect
       id="rect4527"
       height="127.49283"
       width="432.43927"
       y="4778.8408"
       x="1925.2828" /><rect
       id="rect4529"
       height="127.49283"
       width="432.43927"
       y="4778.8408"
       x="1925.2828" /><rect
       id="rect4655"
       height="127.49283"
       width="432.43927"
       y="4778.8408"
       x="1925.2828" /><rect
       id="rect4657"
       height="127.49283"
       width="432.43927"
       y="4778.8408"
       x="1925.2828" /><rect
       id="rect4659"
       height="127.49283"
       width="432.43927"
       y="4778.8408"
       x="1925.2828" /><rect
       id="rect6679"
       height="127.49283"
       width="432.43927"
       y="4778.8408"
       x="1925.2828" /><rect
       id="rect6681"
       height="127.49283"
       width="432.43927"
       y="4778.8408"
       x="1925.2828" /><rect
       id="rect6683"
       height="127.49283"
       width="432.43927"
       y="4778.8408"
       x="1925.2828" /><rect
       id="rect6685"
       height="127.49283"
       width="432.43927"
       y="4778.8408"
       x="1925.2828" /><rect
       id="rect6687"
       height="127.49283"
       width="432.43927"
       y="4778.8408"
       x="1925.2828" /><rect
       id="rect6689"
       height="127.49283"
       width="432.43927"
       y="4778.8408"
       x="1925.2828" /><rect
       id="rect6691"
       height="127.49283"
       width="432.43927"
       y="4778.8408"
       x="1925.2828" /><rect
       id="rect6693"
       height="127.49283"
       width="432.43927"
       y="4778.8408"
       x="1925.2828" /><rect
       id="rect6695"
       height="127.49283"
       width="432.43927"
       y="4778.8408"
       x="1925.2828" /><rect
       id="rect6697"
       height="127.49283"
       width="432.43927"
       y="4778.8408"
       x="1925.2828" /><rect
       id="rect6699"
       height="127.49283"
       width="432.43927"
       y="4778.8408"
       x="1925.2828" /><rect
       id="rect6701"
       height="127.49283"
       width="432.43927"
       y="4778.8408"
       x="1925.2828" /><rect
       id="rect6703"
       height="127.49283"
       width="432.43927"
       y="4778.8408"
       x="1925.2828" /><rect
       id="rect6705"
       height="127.49283"
       width="432.43927"
       y="4778.8408"
       x="1925.2828" /><rect
       id="rect3216"
       height="127.49283"
       width="432.43927"
       y="4778.8408"
       x="1925.2828" /></defs><sodipodi:namedview
     inkscape:snap-bbox="false"
     inkscape:snap-nodes="true"
     inkscape:snap-to-guides="false"
     inkscape:snap-grids="false"
     inkscape:document-rotation="0"
     inkscape:window-maximized="1"
     inkscape:window-y="27"
     inkscape:window-x="70"
     inkscape:window-height="1016"
     inkscape:window-width="1850"
     inkscape:snap-global="true"
     inkscape:snap-others="true"
     inkscape:snap-midpoints="false"
     inkscape:snap-smooth-nodes="false"
     inkscape:snap-page="false"
     units="in"
     showgrid="false"
     inkscape:current-layer="layer1"
     inkscape:document-units="mm"
     inkscape:cy="338.63786"
     inkscape:cx="322.06504"
     inkscape:zoom="1.8101934"
     inkscape:pageshadow="2"
     inkscape:pageopacity="0"
     borderopacity="1.0"
     bordercolor="#666666"
     pagecolor="#afe1d4"
     id="base"
     inkscape:snap-object-midpoints="false"
     inkscape:snap-center="true"
     inkscape:object-paths="false"
     inkscape:snap-intersection-paths="false"
     inkscape:object-nodes="true"
     inkscape:pagecheckerboard="0"
     inkscape:showpageshadow="2"
     inkscape:deskcolor="#afe1d4"
     showguides="false" /><metadata
     id="metadata5"><rdf:RDF><cc:Work
         rdf:about=""><dc:format>image/svg+xml</dc:format><dc:type
           rdf:resource="http://purl.org/dc/dcmitype/StillImage" /></cc:Work></rdf:RDF></metadata><g
     transform="translate(0,-11.249983)"
     id="layer1"
     inkscape:groupmode="layer"
     inkscape:label="Capa 1"><path
       style="baseline-shift:baseline;display:inline;overflow:visible;vector-effect:none;stroke-width:1.09077;stroke-linecap:round;stroke-linejoin:round;paint-order:markers stroke fill;enable-background:accumulate;stop-color:#000000;fill:#000000"
       d="m 83.237484,11.250103 -31.014558,0.0022 c -1.39328,-4.64e-4 -2.522873,1.129129 -2.52241,2.522409 v 4.066959 c 0,4.055695 -3.233771,7.293014 -7.290275,7.290274 h -0.0022 c -1.728122,0 -3.38717,-0.597101 -4.676257,-1.65107 L 36.5771,22.328321 34.374253,20.123343 c -0.984522,-0.983497 -2.579661,-0.983497 -3.564183,0 L 8.8711738,42.062242 c -0.9849155,0.984766 -0.9849155,2.581545 0,3.566311 l 2.8760582,2.873928 c 2.867276,2.871828 2.86586,7.441317 0,10.313331 -1.229463,1.217546 -2.8202829,1.968994 -4.4674771,2.136804 H 5.6393068 2.5246425 c -1.3932804,-4.63e-4 -2.52287316,1.12913 -2.52240944,2.52241 v 31.02734 c 7.1333e-4,1.392448 1.12996124,2.520742 2.52240944,2.520279 h 4.0648282 c 4.0585703,0 7.2926673,3.234475 7.2924053,7.294525 0,1.72461 -0.597524,3.38244 -1.646809,4.66774 l -3.3639234,3.36393 c -0.9849149,0.98477 -0.9849149,2.58154 0,3.56631 l 21.9389974,21.939 c 0.984522,0.9835 2.57966,0.9835 3.564182,0 l 2.876057,-2.87606 0.0022,-0.002 c 2.868811,-2.86256 7.439674,-2.8587 10.30694,0 1.241306,1.25031 1.992191,2.87656 2.138935,4.57186 v 1.53177 3.11679 c 7.07e-4,1.39162 1.128659,2.51958 2.52028,2.52029 h 31.027339 c 1.391621,-7.1e-4 2.519572,-1.12867 2.520279,-2.52029 v -4.08826 c 0.02643,-4.05357 3.24483,-7.26897 7.294536,-7.26897 1.721899,0 3.377773,0.59585 4.667736,1.64468 l 3.361795,3.36392 c 0.98421,0.98547 2.58099,0.98636 3.56631,0.002 l 21.93901,-21.93899 c 0.98491,-0.98477 0.98491,-2.58154 0,-3.56631 l -2.8782,-2.87606 c -0.006,-0.002 -0.0113,-0.004 -0.017,-0.006 -0.003,-0.006 -0.006,-0.0127 -0.009,-0.0191 -2.83949,-2.8684 -2.83339,-7.42004 0.0213,-10.281374 1.25267,-1.244167 2.88206,-1.996149 4.57613,-2.141066 h 1.53602 3.11681 c 1.39328,4.58e-4 2.52286,-1.129133 2.5224,-2.522409 V 63.470905 c -7.1e-4,-1.392444 -1.12996,-2.520736 -2.5224,-2.520278 h -4.06483 c -4.05703,0 -7.29266,-3.236841 -7.2924,-7.292406 v -0.0022 c 0,-1.753291 0.62373,-3.434729 1.72136,-4.7423 l 1.08438,-1.084381 h 0.002 l 2.20286,-2.204978 c 0.9835,-0.984522 0.9835,-2.579661 0,-3.564183 L 104.65665,20.121143 c -0.98476,-0.984908 -2.58154,-0.984908 -3.5663,0 l -2.136806,2.136805 h 1.009816 c -0.665043,7.07e-4 -1.302879,0.264112 -1.774635,0.732864 -2.870132,2.849019 -7.438557,2.839466 -10.298417,0.0022 -7.32e-4,-7.25e-4 -0.0014,-0.0014 -0.0022,-0.0022 C 86.678274,21.7674 85.93187,20.184295 85.759843,18.546768 V 13.770382 C 85.75913,12.377934 84.629882,11.24964 83.237434,11.250103 Z m -2.520278,5.042688 v 2.456367 c 2.16e-4,0.08254 0.0045,0.165011 0.01279,0.247128 0.28044,2.85291 1.563991,5.51922 3.591878,7.560837 0.0042,0.0043 0.0085,0.0085 0.01279,0.01278 4.774657,4.740907 12.554772,4.754213 17.358606,0.02983 0.0301,-0.0115 0.0599,-0.02358 0.0895,-0.03622 l 1.09289,-1.092902 18.37056,18.372684 -0.41969,0.419692 -1.2122,1.212206 c -0.0497,0.04913 -0.0973,0.100304 -0.14274,0.153389 -1.88697,2.229004 -2.92932,5.07403 -2.92932,8.027398 -4.2e-4,6.781563 5.55154,12.337224 12.33509,12.337224 h 1.54455 v 25.984652 h -0.59652 -1.70646 c -0.0675,-5.44e-4 -0.13504,0.0016 -0.20239,0.0065 -2.92223,0.236095 -5.6671,1.522714 -7.75683,3.598268 -0.002,0.0022 -0.004,0.0043 -0.006,0.0065 -4.78106,4.782096 -4.79706,12.600496 -0.0447,17.401216 l -0.12356,-0.29826 c 0.14756,0.20235 0.30791,0.31854 0.47083,0.4623 l -0.30252,-0.12144 1.09289,1.09504 -18.37055,18.37268 -1.7235,-1.7235 c -0.057,-0.0575 -0.11671,-0.11226 -0.17896,-0.16404 -2.215871,-1.82478 -5.018445,-2.81642 -7.912351,-2.81641 -6.766883,0 -12.293172,5.52435 -12.337223,12.2797 -1.9e-5,0.006 -1.9e-5,0.0113 0,0.017 v 1.58077 H 54.741075 v -0.59439 -1.70646 c -6.4e-5,-0.0683 -0.0029,-0.13648 -0.0085,-0.20451 -0.238745,-2.917 -1.520335,-5.66232 -3.598265,-7.75268 -0.0022,-0.002 -0.0043,-0.004 -0.0065,-0.006 -4.795064,-4.78694 -12.641686,-4.7913 -17.439565,0 h -0.0022 l -1.095033,1.09503 -18.372685,-18.37269 1.725634,-1.72563 c 0.05602,-0.0564 0.109338,-0.11539 0.159782,-0.17682 1.828872,-2.21479 2.820667,-5.01803 2.820667,-7.91236 C 18.924943,97.533131 13.37215,91.979998 6.5894116,91.979998 H 5.0449217 V 65.995336 h 0.5943851 1.8321554 c 0.079659,2.21e-4 0.1592834,-0.0033 0.2386058,-0.01065 2.869571,-0.272058 5.547288,-1.562109 7.594924,-3.594008 0.0028,-0.0022 0.0057,-0.0043 0.0085,-0.0065 4.794136,-4.798222 4.794977,-12.64938 0,-17.448087 h -0.0022 l -1.090771,-1.090771 18.372685,-18.372686 0.419691,0.419693 v 0.0022 l 1.295292,1.293162 c 0.05572,0.05598 0.114034,0.109307 0.174757,0.159811 2.219493,1.835528 5.028128,2.827058 7.925139,2.827058 6.783863,0.0033 12.335094,-5.552252 12.335094,-12.332963 V 16.294922 Z M 121.88105,108.7293 c 0,0 0.5193,-0.0483 1.12912,0.245 0.11665,0.056 0.23419,0.24432 0.35791,0.35364 -0.41736,-0.35598 -0.93943,-0.56615 -1.48703,-0.59864 z m 1.9536,1.06095 c 0.32733,0.4517 0.58799,0.96789 0.58799,1.42524 -0.0424,-0.52482 -0.248,-1.0232 -0.58799,-1.42524 z"
       id="path13"
       sodipodi:nodetypes="cccsssccccccccccccccsccccccccccccccccscccccccccccccccsssccccccccccsccccccccscccccccccscccccccccccccccsscccccccccccccccsccccccccccccccccsccccccccc" /><path
       style="baseline-shift:baseline;display:inline;overflow:visible;vector-effect:none;fill:#bfffbf;fill-opacity:1;stroke-width:1.09077;stroke-linecap:round;stroke-linejoin:round;paint-order:markers stroke fill;enable-background:accumulate;stop-color:#000000"
       d="m 83.238252,13.770421 -31.015482,0.0033 v 4.068584 c 0,5.418565 -4.393413,9.814933 -9.81409,9.811273 -2.319343,0 -4.561825,-0.797088 -6.318198,-2.249615 L 34.795727,24.11037 32.592334,21.906978 10.654225,43.84565 l 2.874726,2.873035 c 3.832803,3.835784 3.83211,10.047863 0,13.883239 -1.644941,1.632299 -3.7889735,2.657988 -6.0572178,2.873036 H 5.6392358 2.5238213 v 31.027365 h 4.0663292 c 5.4206535,0 9.8138755,4.392576 9.8135275,9.814655 0,2.31624 -0.796596,4.55482 -2.243414,6.30693 l -3.506039,3.50772 21.938109,21.93868 2.876981,-2.87698 c 3.833859,-3.82861 10.045055,-3.82493 13.876473,0 1.664671,1.67462 2.683731,3.86782 2.873036,6.18065 v 1.70625 3.11597 h 31.026755 v -4.10353 c 0.03525,-5.40446 4.407488,-9.77577 9.815782,-9.77577 2.315487,0 4.552747,0.7968 6.308052,2.2423 l 3.504917,3.50717 21.93811,-21.93812 -2.87699,-2.87754 c 0,0 -0.035,7.7e-4 -0.035,-0.0343 -3.79685,-3.83551 -3.78575,-10.0228 0.035,-13.844346 1.67527,-1.663909 3.86941,-2.686638 6.18349,-2.873599 h 1.70679 3.11711 v -31.02683 h -4.06633 c -5.42029,0 -9.81386,-4.396091 -9.81354,-9.814655 0,-2.358427 0.83476,-4.628932 2.33305,-6.398803 l 1.21358,-1.212458 2.20284,-2.203393 -21.93811,-21.938674 -2.875294,2.876418 h -0.03495 c -3.835642,3.807428 -10.029351,3.79698 -13.853362,0 -1.628064,-1.639087 -2.650696,-3.77516 -2.872473,-6.031289 z M 59.965367,33.458353 a 46.182614,46.182614 0 0 0 -4.885343,1.136362 c 1.598895,-0.455091 3.220769,-0.854341 4.885343,-1.136362 z m 19.832795,0.94584 c 4.832371,1.304323 9.352468,3.368807 13.419337,6.064547 1.356043,0.898857 2.643905,1.887817 3.894408,2.920946 A 46.182614,46.182614 0 0 0 93.217499,40.46874 46.182614,46.182614 0 0 0 79.798162,34.404193 Z m -25.961036,0.580583 a 46.182614,46.182614 0 0 0 -3.62159,1.311664 c 1.184009,-0.486546 2.390619,-0.923076 3.62159,-1.311664 z m -4.847014,1.821223 a 46.182614,46.182614 0 0 0 -4.442299,2.236651 c 1.428893,-0.831255 2.921381,-1.559661 4.442299,-2.236651 z m 49.309452,7.620844 c 0.867681,0.767899 1.704116,1.565855 2.511726,2.396169 a 46.182614,46.182614 0 0 0 -2.511726,-2.396169 z m 3.604686,3.535351 c 1.09062,1.200336 2.13882,2.439542 3.09963,3.750109 a 46.182614,46.182614 0 0 0 -3.09963,-3.750109 z M 28.139326,55.21045 a 46.182614,46.182614 0 0 0 -2.54216,4.952985 c 0.761501,-1.701803 1.588161,-3.367679 2.54216,-4.952985 z m 80.256724,1.955941 c 0.35859,0.666607 0.65057,1.366021 0.97685,2.051765 a 46.182614,46.182614 0 0 0 -0.97685,-2.051765 z m -83.363683,4.359438 a 46.182614,46.182614 0 0 0 -1.440182,4.058438 c 0.419366,-1.382302 0.898019,-2.734349 1.440182,-4.058438 z m 86.003363,1.596883 c 0.29445,0.802876 0.55562,1.613684 0.80605,2.436753 a 46.182614,46.182614 0 0 0 -0.80605,-2.436753 z m -87.866863,3.866225 a 46.182614,46.182614 0 0 0 -1.157782,5.490164 c 0.264243,-1.873471 0.675736,-3.695972 1.157782,-5.490164 z m 89.720783,2.743391 c 0.1837,0.899415 0.40152,1.78293 0.53211,2.700552 a 46.182614,46.182614 0 0 0 -0.53211,-2.700552 z m 0.66232,3.71798 c 0.20454,1.708411 0.35024,3.434854 0.36299,5.195364 a 46.182614,46.182614 0 0 0 -0.36299,-5.195364 z m 0.36412,5.536385 c -1e-5,1.878709 -0.14551,3.72093 -0.36357,5.540894 a 46.182614,46.182614 0 0 0 0.36357,-5.540894 z m -0.57494,6.925836 c -0.21771,1.443547 -0.49797,2.862612 -0.84608,4.259105 a 46.182614,46.182614 0 0 0 0.84608,-4.259105 z m -90.306437,4.682422 a 46.182614,46.182614 0 0 0 1.811078,5.498057 C 24.134313,94.310831 23.52248,92.478502 23.034713,90.594951 Z m 89.126097,0.875382 c -0.48774,1.738482 -1.04853,3.444898 -1.72821,5.093904 a 46.182614,46.182614 0 0 0 1.72821,-5.093904 z m -87.273307,4.748373 a 46.182614,46.182614 0 0 0 2.455919,5.128284 c -0.916557,-1.652109 -1.744028,-3.359838 -2.455919,-5.128284 z m 85.507907,0.447555 c -0.72312,1.742701 -1.56478,3.419269 -2.48749,5.046559 a 46.182614,46.182614 0 0 0 2.48749,-5.046559 z m -82.944327,4.903379 a 46.182614,46.182614 0 0 0 3.221949,4.97046 c -1.177376,-1.58111 -2.251289,-3.24266 -3.221949,-4.97046 z m 79.838487,1.16117 c -0.75444,1.25383 -1.56352,2.46647 -2.42999,3.63907 a 46.182614,46.182614 0 0 0 2.42999,-3.63907 z m -3.29579,4.79741 c -2.25378,2.85904 -4.832214,5.4395 -7.689613,7.69524 a 46.182614,46.182614 0 0 0 7.689613,-7.69524 z m -64.912455,7.67552 a 46.182614,46.182614 0 0 0 4.603508,3.16783 c -1.593492,-0.97524 -3.145152,-2.01246 -4.603508,-3.16783 z m 56.066185,0.88552 c -1.173279,0.8683 -2.38657,1.67901 -3.641319,2.43507 a 46.182614,46.182614 0 0 0 3.641319,-2.43507 z m -50.675228,2.76369 a 46.182614,46.182614 0 0 0 4.928747,2.50269 C 47.700952,120.6189 46.059,119.78093 44.472282,118.85295 Z m 46.018172,0.28916 c -1.626927,0.92399 -3.303516,1.76705 -5.045991,2.49143 a 46.182614,46.182614 0 0 0 5.045991,-2.49143 z m -40.494188,2.45423 a 46.182614,46.182614 0 0 0 5.22073,1.82856 c -1.789086,-0.50309 -3.526716,-1.12239 -5.22073,-1.82856 z m 35.363646,0.0682 c -1.654437,0.68399 -3.366688,1.24767 -5.111376,1.73836 a 46.182614,46.182614 0 0 0 5.111376,-1.73836 z m -29.895465,1.83702 a 46.182614,46.182614 0 0 0 5.448453,1.12678 c -1.852579,-0.2748 -3.674487,-0.6388 -5.448453,-1.12678 z m 23.488771,0.23504 c -1.392353,0.34813 -2.807495,0.62927 -4.246703,0.84777 a 46.182614,46.182614 0 0 0 4.246703,-0.84777 z m -16.966523,1.03491 a 46.182614,46.182614 0 0 0 5.536385,0.39399 c -1.8781,-0.009 -3.717595,-0.16767 -5.536385,-0.39399 z m 11.317403,0.0276 c -1.819107,0.21905 -3.659638,0.36574 -5.537512,0.36694 a 46.182614,46.182614 0 0 0 5.537512,-0.36694 z"
       id="path14" /><path
       id="path15"
       style="baseline-shift:baseline;display:inline;overflow:visible;vector-effect:none;fill:#00b200;fill-opacity:1;stroke-width:1.09077;stroke-linecap:round;stroke-linejoin:round;paint-order:markers stroke fill;enable-background:accumulate;stop-color:#000000"
       d="m 83.238252,13.770421 -31.015482,0.0033 v 4.068584 c 0,5.418565 -4.393413,9.814933 -9.81409,9.811273 -2.319343,0 -4.561825,-0.797088 -6.318198,-2.249615 L 34.795727,24.11037 32.592334,21.906978 10.654225,43.84565 l 2.874726,2.873035 c 3.832803,3.835784 3.83211,10.047863 0,13.883239 -1.644941,1.632299 -3.7889735,2.657988 -6.0572178,2.873036 H 5.6392358 2.5238213 v 31.027365 h 4.0663292 c 5.4206535,0 9.8138755,4.392578 9.8135275,9.814655 0,2.31624 -0.796596,4.55482 -2.243414,6.30693 l -3.506039,3.50772 10.494443,10.49502 62.089584,-107.542402 z m 19.636078,8.133221 -2.1521,2.153227 -8.94604,15.494776 c 0.48645,0.297041 0.966966,0.602674 1.441309,0.917095 0.518278,0.343542 1.026343,0.700291 1.526423,1.067593 L 104.9058,23.935679 Z M 93.217499,40.46874 A 46.182614,46.182614 0 0 0 91.775625,39.552773 L 39.02383,130.92172 c 1.421317,-0.52027 2.938906,-0.70155 4.427079,-0.54337 L 94.743358,41.537461 A 46.182614,46.182614 0 0 0 93.217499,40.46874 Z M 106.66276,25.69208 45.887662,130.9578 c 1.260844,0.47672 2.44294,1.22205 3.458126,2.23553 0.450245,0.45294 0.85299,0.94407 1.205131,1.46498 l 6.244358,-10.81574 c -0.446419,-0.10648 -0.890067,-0.21977 -1.33083,-0.34101 a 46.182614,46.182614 0 0 0 1.331956,0.33932 L 110.97372,30.003043 Z m 6.06738,6.067929 -60.919414,105.515431 c 5.4e-5,1.7e-4 -5.3e-5,3.9e-4 0,5.7e-4 0.211496,0.68 0.349606,1.38334 0.408098,2.09797 v 1.70625 3.11597 h 31.026755 v -4.10353 c 0.03525,-5.40446 4.407488,-9.77577 9.815782,-9.77577 2.315487,0 4.552747,0.7968 6.308052,2.2423 l 3.504917,3.50717 21.93811,-21.93812 -2.87699,-2.87754 c 0,0 -0.035,7.4e-4 -0.035,-0.0344 -3.79685,-3.83551 -3.7857,-10.0228 0.035,-13.844343 1.67527,-1.663911 3.86941,-2.686639 6.18349,-2.873601 h 1.70679 3.11711 V 63.471625 h -4.06633 c -5.42029,0 -9.81386,-4.396091 -9.81354,-9.814655 0,-2.358427 0.83476,-4.628932 2.33305,-6.398803 l 1.21358,-1.212458 2.20284,-2.203393 z" /><circle
       style="opacity:1;fill:#000000;fill-opacity:1;stroke-width:2.39112;stroke-linecap:round;stroke-linejoin:round;paint-order:markers fill stroke"
       id="circle7"
       cx="67.733322"
       cy="78.983307"
       r="45.544891" /><path
       style="fill:#00b200;fill-opacity:1;stroke:none;stroke-width:10.1442;stroke-linecap:round;stroke-linejoin:round;paint-order:markers stroke fill"
       d="m 87.14997,84.299244 c -0.01709,0 -0.03418,0.0063 -0.04731,0.01951 L 55.816838,115.60458 c 3.844978,1.27273 7.866403,1.93198 11.916491,1.95354 13.774045,-0.0366 26.483466,-7.4148 33.345241,-19.358078 L 87.197285,84.318761 c -0.01313,-0.01313 -0.03022,-0.01951 -0.0473,-0.01951 z"
       id="path10" /><path
       style="fill:#ffffff;fill-opacity:1;stroke:none;stroke-width:10.1442;stroke-linecap:round;stroke-linejoin:round;paint-order:markers stroke fill"
       d="M 70.921825,65.932424 V 92.016455 L 83.965615,78.972664 Z"
       id="path9" /><path
       style="fill:#00b200;fill-opacity:1;stroke:none;stroke-width:10.1442;stroke-linecap:round;stroke-linejoin:round;paint-order:markers stroke fill"
       d="m 49.856226,46.97652 v 63.99642 L 64.984281,95.844896 V 62.227001 62.121134 Z"
       id="path8" /><path
       style="fill:#00b200;fill-opacity:1;stroke:none;stroke-width:10.1442;stroke-linecap:round;stroke-linejoin:round;paint-order:markers stroke fill"
       d="m 67.733371,40.408492 c -4.043374,0.02125 -8.058261,0.678093 -11.897607,1.946455 L 104.3617,90.880875 c 1.26835,-3.83933 1.92519,-7.854207 1.94644,-11.897565 -3e-5,-21.304268 -17.270541,-38.574782 -38.574811,-38.574818 z"
       id="path7" /><path
       id="circle2"
       style="fill:#00b200;fill-opacity:1;stroke-width:2.02519;stroke-linecap:round;stroke-linejoin:round;paint-order:markers fill stroke"
       d="M 43.918769,48.637098 C 34.600406,55.949764 29.158357,67.138187 29.15837,78.98331 c -1.3e-5,11.845124 5.442037,23.03355 14.760399,30.34621 z"
       sodipodi:nodetypes="cccc" /></g></svg>
