<?xml version="1.0" encoding="UTF-8" standalone="no"?>
<svg
   version="1.1"
   viewBox="0 0 88 87.999"
   id="svg3"
   xml:space="preserve"
   xmlns="http://www.w3.org/2000/svg"
   xmlns:svg="http://www.w3.org/2000/svg"><defs
     id="defs3" /><path
     style="baseline-shift:baseline;display:inline;overflow:visible;vector-effect:none;fill:#000000;fill-opacity:1;stroke-width:2.78657;stroke-linecap:round;stroke-linejoin:round;paint-order:markers stroke fill;enable-background:accumulate;stop-color:#000000"
     d="m 52.340292,7.5633085 -16.683858,0.00114 c -0.749495,-2.847e-4 -1.357145,0.6074003 -1.356896,1.3568961 v 2.1877644 c 0,2.181704 -1.739563,3.923176 -3.921704,3.921701 h -0.0011 c -0.929618,0 -1.822081,-0.321202 -2.515528,-0.888171 L 27.240021,13.52264 26.05503,12.336502 c -0.529611,-0.529061 -1.387694,-0.529061 -1.917304,0 L 12.335997,24.138339 c -0.529822,0.529739 -0.529822,1.388704 0,1.918449 l 1.547136,1.545991 c 1.542412,1.544856 1.54165,4.00295 0,5.547914 -0.661372,0.65496 -1.517133,1.059191 -2.403219,1.149463 H 10.597458 8.9219679 c -0.7494973,-2.85e-4 -1.3571453,0.607399 -1.3568962,1.356896 v 16.690732 c 4.27e-4,0.74905 0.6078472,1.355998 1.3568962,1.35575 h 2.1866191 c 2.183251,0 3.922989,1.739945 3.922848,3.923993 0,0.92773 -0.32143,1.819537 -0.885878,2.510947 l -1.809577,1.80958 c -0.529821,0.529743 -0.529821,1.388704 0,1.918447 l 11.801784,11.801785 c 0.529609,0.529061 1.387692,0.529061 1.917303,0 l 1.547136,-1.547137 0.0011,-0.0011 c 1.543238,-1.539874 4.002072,-1.537797 5.544478,0 0.667744,0.672587 1.071672,1.547407 1.150611,2.45937 v 0.823995 1.676634 c 4.27e-4,0.748603 0.607147,1.355374 1.35575,1.355756 h 16.690732 c 0.748603,-4.27e-4 1.355369,-0.607153 1.35575,-1.355756 v -2.199224 c 0.01422,-2.180562 1.745511,-3.910242 3.923996,-3.910242 0.926271,0 1.817026,0.320529 2.510943,0.884732 l 1.808432,1.809575 c 0.529443,0.53012 1.388408,0.5306 1.918449,0.0011 L 75.664274,63.86421 c 0.529818,-0.529743 0.529818,-1.388704 0,-1.918447 l -1.548289,-1.547137 c -0.0032,-0.0011 -0.0061,-0.0022 -0.0092,-0.0032 -0.0016,-0.0032 -0.0032,-0.0068 -0.0048,-0.01028 -1.527465,-1.543017 -1.524182,-3.991509 0.01146,-5.530728 0.673856,-0.669284 1.550364,-1.073801 2.461666,-1.151753 h 0.826281 1.676645 c 0.749496,2.84e-4 1.357137,-0.607406 1.356891,-1.356897 V 35.654772 c -4.27e-4,-0.749043 -0.607847,-1.355996 -1.356891,-1.355749 h -2.18662 c -2.182424,0 -3.922986,-1.741214 -3.922847,-3.922847 v -0.0011 c 0,-0.943158 0.335528,-1.847666 0.925983,-2.551056 l 0.583326,-0.583327 h 0.0011 l 1.184998,-1.186138 c 0.529061,-0.529609 0.529061,-1.387693 0,-1.917308 L 63.862496,12.3353 c -0.529739,-0.529819 -1.388706,-0.529819 -1.918443,0 l -1.149466,1.149462 -0.411424,0.394237 c -1.543948,1.532591 -4.00147,1.527449 -5.539892,0.0011 -4.27e-4,-4.27e-4 -7.12e-4,-5.7e-4 -0.0011,-0.0011 C 54.191318,13.220883 53.7898,12.36927 53.69726,11.488383 V 8.9189949 C 53.696833,8.169946 53.089413,7.5629983 52.340366,7.5632459 Z M 73.128071,60.00091 c 0,0 0.279349,-0.02598 0.607395,0.131794 0.06275,0.03012 0.125978,0.131428 0.192532,0.190235 -0.224514,-0.191493 -0.505353,-0.304552 -0.799927,-0.322029 z m 1.050912,0.570724 c 0.176082,0.242985 0.316302,0.520662 0.316302,0.766687 -0.02281,-0.282319 -0.13341,-0.550416 -0.316302,-0.766687 z"
     id="path13" /><path
     id="path3"
     style="baseline-shift:baseline;display:inline;overflow:visible;vector-effect:none;fill:#00b200;fill-opacity:1;stroke:none;stroke-width:2.78657;stroke-linecap:round;stroke-linejoin:round;paint-order:markers stroke fill;enable-background:accumulate;stop-color:#000000"
     d="m 35.656247,8.9194238 v 2.1894532 c 0,4.570748 -5.348549,6.821617 -8.677734,4.068359 L 25.0957,13.294424 13.294917,25.097158 l 1.54688,1.544922 c 3.230443,3.232956 1.04674,8.605565 -3.25782,9.013672 H 8.9218775 v 16.691405 h 2.1874995 c 4.5663,0 6.824184,5.33927 4.07226,8.67188 l -1.88672,1.88672 11.800783,11.80273 1.548828,-1.54883 c 3.236573,-3.23213 8.652047,-1.0442 9.009766,3.32617 v 2.59375 h 16.689453 v -2.20703 c 0.02971,-4.55517 5.33778,-6.79999 8.673828,-4.05273 l 1.886719,1.88672 11.800781,-11.80274 -1.546875,-1.54687 c 0,0 -0.01953,-6.6e-4 -0.01953,-0.0195 -3.216569,-3.24932 -1.001781,-8.64096 3.345702,-8.99219 h 2.59375 V 35.653799 h -2.1875 c -4.570432,0 -6.859586,-5.37048 -4.023437,-8.720703 l 1.83789,-1.837891 -11.800781,-11.800781 -1.546875,1.546875 h -0.01953 c -3.223843,3.200123 -8.575784,1.05152 -8.998047,-3.244141 V 8.9194238 Z" /><ellipse
     style="fill:#000000;fill-opacity:1;stroke:none;stroke-width:3.3;stroke-linejoin:bevel;paint-order:stroke markers fill"
     id="path2"
     cx="44"
     cy="43.9995"
     rx="24.831533"
     ry="24.5005" /><path
     style="fill:#00b200;fill-opacity:1;stroke:none;stroke-width:25.9153;stroke-linecap:round;stroke-linejoin:round;paint-order:markers stroke fill"
     d="m 54.44496,46.859093 c -0.0092,0 -0.01839,0.0032 -0.02545,0.01049 L 37.58973,63.699367 c 2.068353,0.684648 4.231624,1.039282 6.410313,1.05088 7.409559,-0.01969 14.246419,-3.98869 17.937616,-10.413414 l -7.467248,-7.467239 c -0.0071,-0.007 -0.01626,-0.01049 -0.02544,-0.01049 z"
     id="path10" /><path
     style="fill:#ffffff;fill-opacity:1;stroke:none;stroke-width:25.9153;stroke-linecap:round;stroke-linejoin:round;paint-order:markers stroke fill"
     d="m 45.71525,36.978914 v 14.031547 l 7.01673,-7.016729 z"
     id="path9" /><path
     style="fill:#00b200;fill-opacity:1;stroke:none;stroke-width:25.9153;stroke-linecap:round;stroke-linejoin:round;paint-order:markers stroke fill"
     d="m 34.3833,26.781847 v 34.425997 l 8.13793,-8.137927 v -18.084283 -0.05695 z"
     id="path8-7" /><path
     style="fill:#00b200;fill-opacity:1;stroke:none;stroke-width:25.9153;stroke-linecap:round;stroke-linejoin:round;paint-order:markers stroke fill"
     d="m 44.000065,23.248665 c -2.175077,0.0114 -4.334831,0.364769 -6.400154,1.047066 l 26.103862,26.10386 c 0.682293,-2.065315 1.03563,-4.225065 1.047062,-6.400129 -1.7e-5,-11.460341 -9.290452,-20.750781 -20.750792,-20.750797 z"
     id="path7-5" /><path
     id="rect3"
     style="fill:#bfffbf;fill-opacity:1;stroke:none;stroke-width:3.3;stroke-linejoin:bevel;paint-order:stroke markers fill"
     d="M 52.339844 10.701172 L 47.140625 19.707031 C 50.549427 20.147283 53.82749 21.299862 56.761719 23.089844 C 58.418153 20.208789 60.085377 17.332315 61.746094 14.453125 C 57.153955 18.825558 52.016689 14.939686 52.339844 10.701172 z M 63.996094 14.386719 L 58.357422 24.152344 C 58.709425 24.406789 59.054599 24.67056 59.392578 24.943359 L 64.941406 15.332031 L 63.996094 14.386719 z M 67.259766 17.650391 L 61.775391 27.150391 C 62.087394 27.478518 62.390249 27.815244 62.683594 28.160156 C 64.522444 24.971187 66.364916 21.784002 68.205078 18.595703 L 67.259766 17.650391 z M 24.564453 58.814453 L 18.941406 68.552734 L 25.095703 74.708984 L 28.556641 71.939453 L 32.300781 65.455078 C 29.284882 63.80854 26.649022 61.545994 24.564453 58.814453 z M 33.996094 66.349609 L 30.9375 71.646484 C 31.591133 71.771258 32.511212 72.058794 32.248047 71.958984 L 35.222656 66.808594 C 34.809789 66.666556 34.400781 66.513506 33.996094 66.349609 z M 38.322266 67.773438 L 34.757812 73.949219 C 34.863586 74.111352 35.317717 75.008818 35.435547 75.357422 L 39.648438 68.0625 C 39.203796 67.97841 38.761565 67.882017 38.322266 67.773438 z " /><path
     id="circle2"
     style="fill:#00b200;fill-opacity:1;stroke-width:5.17372;stroke-linecap:round;stroke-linejoin:round;paint-order:markers fill stroke"
     d="m 31.189327,27.675128 c -5.012686,3.933751 -7.940162,9.952408 -7.940155,16.324334 -7e-6,6.371919 2.927469,12.390582 7.940155,16.324327 z" /></svg>
