<?xml version="1.0" encoding="UTF-8" standalone="no"?>
<svg
   version="1.1"
   viewBox="0 0 88 87.999"
   id="svg3"
   xmlns="http://www.w3.org/2000/svg"
   xmlns:svg="http://www.w3.org/2000/svg">
  <defs
     id="defs3" />
  <path
     style="baseline-shift:baseline;display:inline;overflow:visible;vector-effect:none;fill:#000000;stroke-width:2.78657;stroke-linecap:round;stroke-linejoin:round;paint-order:markers stroke fill;enable-background:accumulate;stop-color:#000000"
     d="m 52.340292,7.5633085 -16.683858,0.00114 c -0.749495,-2.847e-4 -1.357145,0.6074003 -1.356896,1.3568961 v 2.1877644 c 0,2.181704 -1.739563,3.923176 -3.921704,3.921701 h -0.0011 c -0.929618,0 -1.822081,-0.321202 -2.515528,-0.888171 L 27.240021,13.52264 26.05503,12.336502 c -0.529611,-0.529061 -1.387694,-0.529061 -1.917304,0 L 12.335997,24.138339 c -0.529822,0.529739 -0.529822,1.388704 0,1.918449 l 1.547136,1.545991 c 1.542412,1.544856 1.54165,4.00295 0,5.547914 -0.661372,0.65496 -1.517133,1.059191 -2.403219,1.149463 H 10.597458 8.9219679 c -0.7494973,-2.85e-4 -1.3571453,0.607399 -1.3568962,1.356896 v 16.690732 c 4.27e-4,0.74905 0.6078472,1.355998 1.3568962,1.35575 h 2.1866191 c 2.183251,0 3.922989,1.739945 3.922848,3.923993 0,0.92773 -0.32143,1.819537 -0.885878,2.510947 l -1.809577,1.80958 c -0.529821,0.529743 -0.529821,1.388704 0,1.918447 l 11.801784,11.801785 c 0.529609,0.529061 1.387692,0.529061 1.917303,0 l 1.547136,-1.547137 0.0011,-0.0011 c 1.543238,-1.539874 4.002072,-1.537797 5.544478,0 0.667744,0.672587 1.071672,1.547407 1.150611,2.45937 v 0.823995 1.676634 c 4.27e-4,0.748603 0.607147,1.355374 1.35575,1.355756 h 16.690732 c 0.748603,-4.27e-4 1.355369,-0.607153 1.35575,-1.355756 v -2.199224 c 0.01422,-2.180562 1.745511,-3.910242 3.923996,-3.910242 0.926271,0 1.817026,0.320529 2.510943,0.884732 l 1.808432,1.809575 c 0.529443,0.53012 1.388408,0.5306 1.918449,0.0011 L 75.664274,63.86421 c 0.529818,-0.529743 0.529818,-1.388704 0,-1.918447 l -1.548289,-1.547137 c -0.0032,-0.0011 -0.0061,-0.0022 -0.0092,-0.0032 -0.0016,-0.0032 -0.0032,-0.0068 -0.0048,-0.01028 -1.527465,-1.543017 -1.524182,-3.991509 0.01146,-5.530728 0.673856,-0.669284 1.550364,-1.073801 2.461666,-1.151753 h 0.826281 1.676645 c 0.749496,2.84e-4 1.357137,-0.607406 1.356891,-1.356897 V 35.654772 c -4.27e-4,-0.749043 -0.607847,-1.355996 -1.356891,-1.355749 h -2.18662 c -2.182424,0 -3.922986,-1.741214 -3.922847,-3.922847 v -0.0011 c 0,-0.943158 0.335528,-1.847666 0.925983,-2.551056 l 0.583326,-0.583327 h 0.0011 l 1.184998,-1.186138 c 0.529061,-0.529609 0.529061,-1.387693 0,-1.917308 L 63.862496,12.3353 c -0.529739,-0.529819 -1.388706,-0.529819 -1.918443,0 l -1.149466,1.149462 h 0.543218 c -0.357751,4.27e-4 -0.700867,0.14208 -0.954642,0.394237 -1.543948,1.532591 -4.00147,1.527449 -5.539892,0.0011 -4.27e-4,-4.27e-4 -7.12e-4,-5.7e-4 -0.0011,-0.0011 C 54.191318,13.220883 53.7898,12.36927 53.69726,11.488383 V 8.9189949 C 53.696833,8.169946 53.089413,7.5629983 52.340366,7.5632459 Z M 73.128071,60.00091 c 0,0 0.279349,-0.02598 0.607395,0.131794 0.06275,0.03012 0.125978,0.131428 0.192532,0.190235 -0.224514,-0.191493 -0.505353,-0.304552 -0.799927,-0.322029 z m 1.050912,0.570724 c 0.176082,0.242985 0.316302,0.520662 0.316302,0.766687 -0.02281,-0.282319 -0.13341,-0.550416 -0.316302,-0.766687 z"
     id="path13" />
  <path
     id="path14"
     style="baseline-shift:baseline;display:inline;overflow:visible;vector-effect:none;fill:#00b200;fill-opacity:1;stroke-width:2.78657;stroke-linecap:round;stroke-linejoin:round;paint-order:markers stroke fill;enable-background:accumulate;stop-color:#000000"
     d="M 35.65625 8.9199219 L 35.65625 11.109375 C 35.65625 14.024217 33.292928 16.388689 30.376953 16.386719 C 29.129294 16.386719 27.923332 15.959103 26.978516 15.177734 L 26.28125 14.480469 L 25.095703 13.294922 L 13.294922 25.097656 L 14.841797 26.642578 C 16.9036 28.705982 16.903227 32.048141 14.841797 34.111328 C 13.956924 34.9894 12.804153 35.540568 11.583984 35.65625 L 10.597656 35.65625 L 8.921875 35.65625 L 8.921875 52.347656 L 11.109375 52.347656 C 14.025337 52.347656 16.38886 54.710222 16.388672 57.626953 C 16.388672 58.872941 15.959936 60.077009 15.181641 61.019531 L 13.294922 62.90625 L 25.095703 74.708984 L 26.644531 73.160156 C 28.706902 71.10061 32.048318 71.10259 34.109375 73.160156 C 35.004861 74.060994 35.552462 75.242173 35.654297 76.486328 L 35.654297 77.404297 L 35.654297 79.080078 L 52.34375 79.080078 L 52.34375 76.873047 C 52.36271 73.965796 54.715685 71.613281 57.625 71.613281 C 58.870584 71.613281 60.073336 72.042726 61.017578 72.820312 L 62.904297 74.707031 L 74.705078 62.904297 L 73.158203 61.357422 C 73.158203 61.357422 73.138672 61.356768 73.138672 61.337891 C 71.09621 59.274634 71.102882 55.946373 73.158203 53.890625 C 74.059391 52.995549 75.239548 52.446275 76.484375 52.345703 L 77.402344 52.345703 L 79.078125 52.345703 L 79.078125 35.654297 L 76.890625 35.654297 C 73.974857 35.654297 71.611157 33.289837 71.611328 30.375 C 71.611328 29.106316 72.061203 27.88567 72.867188 26.933594 L 73.519531 26.28125 L 74.705078 25.095703 L 62.904297 13.294922 L 61.357422 14.841797 L 61.337891 14.841797 C 59.274562 16.889945 55.94379 16.884328 53.886719 14.841797 C 53.010924 13.960071 52.459146 12.81131 52.339844 11.597656 L 52.339844 8.9199219 L 35.65625 8.9199219 z M 44 19.5 A 24.50025 24.50025 0 0 1 68.5 44 A 24.50025 24.50025 0 0 1 44 68.5 A 24.50025 24.50025 0 0 1 19.5 44 A 24.50025 24.50025 0 0 1 44 19.5 z M 39.822266 19.509766 A 24.843304 24.843304 0 0 0 37.193359 20.121094 C 38.053463 19.876285 38.926831 19.661473 39.822266 19.509766 z M 50.490234 20.019531 C 51.7797 20.367575 53.027066 20.816605 54.224609 21.357422 A 24.843304 24.843304 0 0 0 50.490234 20.019531 z M 33.917969 21.310547 A 24.843304 24.843304 0 0 0 31.527344 22.513672 C 32.295996 22.066507 33.099814 21.674725 33.917969 21.310547 z M 54.232422 21.361328 C 55.446211 21.909994 56.608859 22.552028 57.708984 23.28125 C 58.438448 23.764774 59.131997 24.295804 59.804688 24.851562 A 24.843304 24.843304 0 0 0 57.708984 23.28125 A 24.843304 24.843304 0 0 0 54.232422 21.361328 z M 62.380859 27.3125 C 62.967543 27.958205 63.531974 28.625075 64.048828 29.330078 A 24.843304 24.843304 0 0 0 62.380859 27.3125 z M 22.701172 31.210938 A 24.843304 24.843304 0 0 0 21.333984 33.875 C 21.743624 32.959541 22.18798 32.063728 22.701172 31.210938 z M 21.029297 34.609375 A 24.843304 24.843304 0 0 0 20.255859 36.791016 C 20.481452 36.047426 20.737648 35.321649 21.029297 34.609375 z M 20.027344 37.546875 A 24.843304 24.843304 0 0 0 19.404297 40.5 C 19.546444 39.492194 19.768033 38.512035 20.027344 37.546875 z M 68.648438 41.023438 C 68.758466 41.942452 68.836891 42.871317 68.84375 43.818359 A 24.843304 24.843304 0 0 0 68.648438 41.023438 z M 68.84375 44.001953 C 68.843745 45.012579 68.765734 46.0034 68.648438 46.982422 A 24.843304 24.843304 0 0 0 68.84375 44.001953 z M 68.533203 47.726562 C 68.416089 48.503098 68.265386 49.266357 68.078125 50.017578 A 24.843304 24.843304 0 0 0 68.533203 47.726562 z M 19.955078 50.246094 A 24.843304 24.843304 0 0 0 20.929688 53.203125 C 20.546958 52.244432 20.217466 51.259323 19.955078 50.246094 z M 67.898438 50.716797 C 67.636064 51.651989 67.334374 52.569975 66.96875 53.457031 A 24.843304 24.843304 0 0 0 67.898438 50.716797 z M 20.951172 53.271484 A 24.843304 24.843304 0 0 0 22.273438 56.029297 C 21.780388 55.140568 21.334123 54.222795 20.951172 53.271484 z M 66.949219 53.511719 C 66.560227 54.44918 66.107688 55.351184 65.611328 56.226562 A 24.843304 24.843304 0 0 0 66.949219 53.511719 z M 22.330078 56.150391 A 24.843304 24.843304 0 0 0 24.064453 58.824219 C 23.4311 57.973683 22.852232 57.079837 22.330078 56.150391 z M 65.279297 56.773438 C 64.873455 57.447917 64.436808 58.10164 63.970703 58.732422 A 24.843304 24.843304 0 0 0 65.279297 56.773438 z M 63.505859 59.355469 C 62.909664 60.111775 62.269535 60.830842 61.591797 61.511719 A 24.843304 24.843304 0 0 0 63.505859 59.355469 z M 61.527344 61.576172 C 60.845828 62.255855 60.126449 62.896292 59.369141 63.494141 A 24.843304 24.843304 0 0 0 61.527344 61.576172 z M 28.587891 63.484375 A 24.843304 24.843304 0 0 0 31.064453 65.1875 C 30.207256 64.662884 29.372391 64.105889 28.587891 63.484375 z M 58.748047 63.960938 C 58.116898 64.428027 57.464038 64.86282 56.789062 65.269531 A 24.843304 24.843304 0 0 0 58.748047 63.960938 z M 31.486328 65.447266 A 24.843304 24.843304 0 0 0 34.138672 66.792969 C 33.22414 66.396649 32.33988 65.94646 31.486328 65.447266 z M 56.242188 65.601562 C 55.367005 66.098609 54.464684 66.553689 53.527344 66.943359 A 24.843304 24.843304 0 0 0 56.242188 65.601562 z M 34.458984 66.921875 A 24.843304 24.843304 0 0 0 37.267578 67.90625 C 36.305165 67.63562 35.370254 67.301749 34.458984 66.921875 z M 53.482422 66.958984 C 52.592441 67.326927 51.670951 67.630573 50.732422 67.894531 A 24.843304 24.843304 0 0 0 53.482422 66.958984 z M 37.400391 67.947266 A 24.843304 24.843304 0 0 0 40.332031 68.552734 C 39.335462 68.404909 38.35467 68.209767 37.400391 67.947266 z M 50.035156 68.074219 C 49.286159 68.261491 48.526154 68.411758 47.751953 68.529297 A 24.843304 24.843304 0 0 0 50.035156 68.074219 z M 40.908203 68.630859 A 24.843304 24.843304 0 0 0 43.886719 68.841797 C 42.876422 68.836997 41.886595 68.752601 40.908203 68.630859 z M 46.996094 68.644531 C 46.017532 68.762365 45.027754 68.843103 44.017578 68.84375 A 24.843304 24.843304 0 0 0 46.996094 68.644531 z " />
  <path
     id="path1"
     style="baseline-shift:baseline;display:inline;overflow:visible;vector-effect:none;fill:#bfffbf;fill-opacity:1;stroke-width:2.78657;stroke-linecap:round;stroke-linejoin:round;paint-order:markers stroke fill;enable-background:accumulate;stop-color:#000000"
     d="M 52.339844 10.701172 L 47.140625 19.707031 A 24.50025 24.50025 0 0 1 56.761719 23.089844 L 56.90625 22.837891 A 24.843304 24.843304 0 0 0 54.232422 21.361328 C 55.165146 21.782946 56.056904 22.275245 56.923828 22.804688 L 56.933594 22.789062 A 24.843304 24.843304 0 0 1 57.708984 23.28125 C 57.45382 23.112108 57.195271 22.946898 56.933594 22.787109 L 61.746094 14.453125 L 61.357422 14.841797 L 61.337891 14.841797 C 59.274564 16.889943 55.943788 16.884326 53.886719 14.841797 C 53.010925 13.960072 52.459146 12.811309 52.339844 11.597656 L 52.339844 10.701172 z M 63.996094 14.386719 L 58.529297 23.855469 L 58.525391 23.861328 C 58.875739 24.11866 59.221234 24.382627 59.558594 24.65625 L 64.941406 15.332031 L 63.996094 14.386719 z M 67.259766 17.650391 L 61.775391 27.150391 A 24.50025 24.50025 0 0 1 62.683594 28.160156 L 62.847656 27.876953 A 24.843304 24.843304 0 0 0 62.380859 27.3125 C 62.543027 27.490982 62.699253 27.675376 62.857422 27.857422 L 68.205078 18.595703 L 67.259766 17.650391 z M 50.490234 20.019531 C 51.779699 20.367575 53.027068 20.816605 54.224609 21.357422 A 24.843304 24.843304 0 0 0 50.490234 20.019531 z M 58.513672 23.882812 L 58.357422 24.152344 A 24.50025 24.50025 0 0 1 59.392578 24.943359 L 59.554688 24.664062 A 24.843304 24.843304 0 0 0 58.513672 23.882812 z M 24.564453 58.814453 L 18.941406 68.552734 L 25.095703 74.708984 L 26.644531 73.160156 C 27.233426 72.572069 27.928158 72.158305 28.666016 71.90625 C 28.629859 71.918598 28.592576 71.926299 28.556641 71.939453 L 32.109375 65.787109 C 31.90187 65.673369 31.690415 65.566625 31.486328 65.447266 A 24.843304 24.843304 0 0 0 32.119141 65.767578 L 32.300781 65.455078 A 24.50025 24.50025 0 0 1 24.564453 58.814453 z M 28.587891 63.484375 A 24.843304 24.843304 0 0 0 31.064453 65.1875 C 30.207257 64.662885 29.37239 64.105888 28.587891 63.484375 z M 33.996094 66.349609 L 33.830078 66.636719 A 24.843304 24.843304 0 0 0 34.138672 66.792969 C 34.03206 66.746768 33.929983 66.692203 33.824219 66.644531 L 30.9375 71.646484 C 30.765303 71.628181 30.592911 71.622502 30.419922 71.621094 C 31.059139 71.626401 31.697069 71.746673 32.300781 71.982422 C 32.282912 71.975441 32.265976 71.965763 32.248047 71.958984 L 35.029297 67.140625 C 34.839714 67.066536 34.646543 67.000061 34.458984 66.921875 A 24.843304 24.843304 0 0 0 35.039062 67.125 L 35.222656 66.808594 A 24.50025 24.50025 0 0 1 33.996094 66.349609 z M 38.322266 67.773438 L 38.134766 68.099609 A 24.843304 24.843304 0 0 0 39.466797 68.375 L 39.648438 68.0625 A 24.50025 24.50025 0 0 1 38.322266 67.773438 z M 38.123047 68.119141 L 38.117188 68.130859 A 24.843304 24.843304 0 0 0 38.115234 68.130859 L 34.757812 73.949219 C 34.750346 73.938172 34.739974 73.928966 34.732422 73.917969 C 35.065698 74.403554 35.315065 74.939877 35.472656 75.501953 C 35.459212 75.454007 35.450332 75.404958 35.435547 75.357422 L 39.453125 68.398438 C 39.005244 68.317616 38.56211 68.223807 38.123047 68.119141 z M 30.335938 71.617188 C 30.047843 71.619406 29.761272 71.654066 29.476562 71.703125 C 29.770171 71.652603 30.06618 71.619857 30.363281 71.619141 C 30.354132 71.619164 30.345086 71.617117 30.335938 71.617188 z M 29.226562 71.748047 C 29.163812 71.761988 29.10137 71.776718 29.039062 71.792969 C 29.101368 71.776718 29.163814 71.761987 29.226562 71.748047 z M 32.582031 72.105469 C 32.650296 72.136836 32.719962 72.164789 32.787109 72.199219 C 32.719899 72.164732 32.650363 72.136885 32.582031 72.105469 z M 33.048828 72.349609 C 33.119031 72.390867 33.191128 72.42788 33.259766 72.472656 C 33.191223 72.427928 33.118932 72.390829 33.048828 72.349609 z M 33.503906 72.648438 C 33.568917 72.696359 33.634018 72.74169 33.697266 72.792969 C 33.634194 72.741854 33.568729 72.696215 33.503906 72.648438 z M 35.511719 75.658203 C 35.578953 75.929784 35.631331 76.20574 35.654297 76.486328 C 35.631333 76.205781 35.578999 75.929763 35.511719 75.658203 z " />
  <path
     style="fill:#00b200;fill-opacity:1;stroke:none;stroke-width:25.9153;stroke-linecap:round;stroke-linejoin:round;paint-order:markers stroke fill"
     d="m 54.44496,46.859093 c -0.0092,0 -0.01839,0.0032 -0.02545,0.01049 L 37.58973,63.699367 c 2.068353,0.684648 4.231624,1.039282 6.410313,1.05088 7.409559,-0.01969 14.246419,-3.98869 17.937616,-10.413414 l -7.467248,-7.467239 c -0.0071,-0.007 -0.01626,-0.01049 -0.02544,-0.01049 z"
     id="path10" />
  <path
     style="fill:#ffffff;fill-opacity:1;stroke:none;stroke-width:25.9153;stroke-linecap:round;stroke-linejoin:round;paint-order:markers stroke fill"
     d="m 45.71525,36.978914 v 14.031547 l 7.01673,-7.016729 z"
     id="path9" />
  <path
     style="fill:#00b200;fill-opacity:1;stroke:none;stroke-width:25.9153;stroke-linecap:round;stroke-linejoin:round;paint-order:markers stroke fill"
     d="m 34.3833,26.781847 v 34.425997 l 8.13793,-8.137927 v -18.084283 -0.05695 z"
     id="path8-7" />
  <path
     style="fill:#00b200;fill-opacity:1;stroke:none;stroke-width:25.9153;stroke-linecap:round;stroke-linejoin:round;paint-order:markers stroke fill"
     d="m 44.000065,23.248665 c -2.175077,0.0114 -4.334831,0.364769 -6.400154,1.047066 l 26.103862,26.10386 c 0.682293,-2.065315 1.03563,-4.225065 1.047062,-6.400129 -1.7e-5,-11.460341 -9.290452,-20.750781 -20.750792,-20.750797 z"
     id="path7-5" />
  <path
     id="circle2"
     style="fill:#00b200;fill-opacity:1;stroke-width:5.17372;stroke-linecap:round;stroke-linejoin:round;paint-order:markers fill stroke"
     d="m 31.189327,27.675128 c -5.012686,3.933751 -7.940162,9.952408 -7.940155,16.324334 -7e-6,6.371919 2.927469,12.390582 7.940155,16.324327 z" />
</svg>
