<?xml version="1.0" encoding="UTF-8" standalone="no"?>
<!-- Created with Inkscape (http://www.inkscape.org/) -->

<svg
   version="1.1"
   id="svg1"
   width="10.24"
   height="10.24"
   viewBox="0 0 10.24 10.24"
   sodipodi:docname="lamp.svg"
   xml:space="preserve"
   inkscape:version="1.3.2 (1:1.3.2+202311252150+091e20ef0f)"
   inkscape:export-filename="lamp.png"
   inkscape:export-xdpi="300"
   inkscape:export-ydpi="300"
   xmlns:inkscape="http://www.inkscape.org/namespaces/inkscape"
   xmlns:sodipodi="http://sodipodi.sourceforge.net/DTD/sodipodi-0.dtd"
   xmlns="http://www.w3.org/2000/svg"
   xmlns:svg="http://www.w3.org/2000/svg"><defs
     id="defs1" /><sodipodi:namedview
     id="namedview1"
     pagecolor="#ffffff"
     bordercolor="#666666"
     borderopacity="1.0"
     inkscape:showpageshadow="2"
     inkscape:pageopacity="0.0"
     inkscape:pagecheckerboard="0"
     inkscape:deskcolor="#d1d1d1"
     inkscape:zoom="76.660158"
     inkscape:cx="4.2329681"
     inkscape:cy="4.8004075"
     inkscape:window-width="1850"
     inkscape:window-height="1016"
     inkscape:window-x="1150"
     inkscape:window-y="711"
     inkscape:window-maximized="1"
     inkscape:current-layer="g1" /><g
     inkscape:groupmode="layer"
     inkscape:label="Image"
     id="g1"><path
       id="path1"
       style="fill:#ffffff;stroke:none;stroke-width:0.917924;stroke-linecap:round;stroke-linejoin:round;paint-order:markers stroke fill"
       d="M 5.1015625 0.72265625 C 5.0145617 0.73395467 4.9472656 0.82836103 4.9472656 0.94335938 L 4.9472656 2.2207031 C 4.9472656 2.343368 5.023789 2.4433594 5.1191406 2.4433594 C 5.2144922 2.4433594 5.2929688 2.343368 5.2929688 2.2207031 L 5.2929688 0.94335938 C 5.2929688 0.82069447 5.2144922 0.72265625 5.1191406 0.72265625 C 5.1131811 0.72265625 5.1073626 0.72190302 5.1015625 0.72265625 z M 2.1054688 1.96875 C 2.0692023 1.9713194 2.0350495 1.9844817 2.0097656 2.0097656 C 1.9423418 2.0771894 1.9581847 2.2023253 2.0449219 2.2890625 L 2.9492188 3.1914062 C 3.0359559 3.2781434 3.1591387 3.2939863 3.2265625 3.2265625 C 3.2939863 3.1591387 3.2781434 3.0359559 3.1914062 2.9492188 L 2.2890625 2.0449219 C 2.2348518 1.9907111 2.1659128 1.9644677 2.1054688 1.96875 z M 8.0976562 1.96875 C 8.0473591 1.9750513 7.9945405 2.0015533 7.9511719 2.0449219 L 7.046875 2.9492188 C 6.9601378 3.0359559 6.9462481 3.1591387 7.0136719 3.2265625 C 7.0810957 3.2939863 7.2042784 3.2781434 7.2910156 3.1914062 L 8.1953125 2.2890625 C 8.2820497 2.2023253 8.2978925 2.0771894 8.2304688 2.0097656 C 8.1967569 1.9760537 8.1479534 1.9624487 8.0976562 1.96875 z M 5.1191406 2.890625 C 3.8884818 2.8909027 2.890625 3.8884818 2.890625 5.1191406 C 2.890625 6.5049852 4.1855469 7.2376237 4.1855469 8.1289062 L 6.0527344 8.1289062 C 6.0527344 7.2112034 7.3496094 6.3728695 7.3496094 5.1191406 C 7.3496094 3.8877188 6.3505622 2.8898239 5.1191406 2.890625 z M 0.94335938 4.9472656 C 0.82069447 4.9472656 0.72265625 5.023789 0.72265625 5.1191406 C 0.72265625 5.2144922 0.82069447 5.2929688 0.94335938 5.2929688 L 2.2207031 5.2929688 C 2.343368 5.2929688 2.4433594 5.2144922 2.4433594 5.1191406 C 2.4433594 5.023789 2.343368 4.9472656 2.2207031 4.9472656 L 0.94335938 4.9472656 z M 8.0175781 4.9472656 C 7.8949132 4.9472656 7.796875 5.023789 7.796875 5.1191406 C 7.796875 5.2144922 7.8949132 5.2929688 8.0175781 5.2929688 L 9.296875 5.2929688 C 9.4195399 5.2929688 9.5175781 5.2144922 9.5175781 5.1191406 C 9.5175781 5.023789 9.4195399 4.9472656 9.296875 4.9472656 L 8.0175781 4.9472656 z M 3.1132812 6.9707031 C 3.0575827 6.9723464 2.9980084 6.9980853 2.9492188 7.046875 L 2.0449219 7.9511719 C 1.9581847 8.0379091 1.9423418 8.163045 2.0097656 8.2304688 C 2.0771894 8.2978925 2.2023253 8.2820497 2.2890625 8.1953125 L 3.1914062 7.2910156 C 3.2781434 7.2042784 3.2939863 7.0810957 3.2265625 7.0136719 C 3.1970646 6.984174 3.1566024 6.969425 3.1132812 6.9707031 z M 7.1074219 6.9707031 C 7.0711555 6.9732725 7.0389558 6.988388 7.0136719 7.0136719 C 6.9462481 7.0810957 6.9601378 7.2042784 7.046875 7.2910156 L 7.9511719 8.1953125 C 8.0379091 8.2820497 8.163045 8.2978925 8.2304688 8.2304688 C 8.2978925 8.163045 8.2820497 8.0379091 8.1953125 7.9511719 L 7.2910156 7.046875 C 7.2368049 6.9926643 7.1678659 6.9664208 7.1074219 6.9707031 z M 4.1855469 8.7207031 L 4.1855469 9.4882812 C 4.1855469 9.6678892 4.3301578 9.8125 4.5097656 9.8125 L 5.7285156 9.8125 C 5.9081235 9.8125 6.0527344 9.6678892 6.0527344 9.4882812 L 6.0527344 8.7207031 L 4.1855469 8.7207031 z " /></g></svg>
