# Blender 4.4.3
# www.blender.org
mtllib Mesh_3D.mtl
o Cube.002
v -1.513016 0.631044 0.000000
v -1.513016 -0.631044 0.000000
v -0.250928 0.631044 -0.000000
v -0.250928 -0.631044 -0.000000
v -0.202449 0.404402 0.000000
v -0.202449 -0.404402 0.000000
v 1.415160 0.404402 -0.000000
v 1.415160 -0.404402 -0.000000
vn -0.0000 -0.0000 1.0000
vt 1.000000 1.000000
vt 0.000000 0.000000
vt 1.000000 0.000000
vt 0.000000 1.000000
s 0
usemtl Logo_animado
f 3/1/1 2/2/1 4/3/1
f 3/1/1 1/4/1 2/2/1
usemtl Texto
f 7/1/1 6/2/1 8/3/1
f 7/1/1 5/4/1 6/2/1
